<svg xmlns="http://www.w3.org/2000/svg" width="317" height="778" fill="none"><path fill="#000" fill-rule="evenodd" d="M250.56 276.6c.7-6.89-15.53-68.98-24.04-96.34-31.3 15.66-44.9 12.5-47.01 6.44-1.63-4.69 2.67-8.93 5.86-11.12.69-.47 1.41.25 1.06 1.02-1.1 2.45-.88 3.53 1.2 3.66 17.53 1.08 20-9.04 10.72-12.4-12.81-4.65-29.32 0-46.72 5.65-8.58 2.79-20.78-5.37-23.94-9.37-8.4 4.43-15.27 12.87-16.07 18.87-.43 3.24.44 20.5 1.46 40.5 1.33 26.39 2.9 57.53 2.04 67.52-27.25 38.28-55.18 43.88-66.01 41.17-.43-.1-6.47-.69-8.72.44-2.15-.85-5.87-.46-5.9-.44-2.34 0-1.7 7.07.4 9.74 1.8 2.7 3.6 6.45 6.36 10.14 1.04 1.4 2.1 2.8 3.13 4.21 3.32 4.48 5.74 5 6.35 2.02.37 2.4 1.34 7.23 4.1 7.32 2.75.08 2.85-2.86 2.55-4.34.54-.34.95.8 2.66-.77 1.71-1.57.06-8.28-.29-10.24 5.63.45 13.8.1 18.1-.74 13.38-2.61 22.68-5.6 31.6-9.94 0 0-15.11 103.35-18.77 147.27-3.66 43.92-.8 51.86 4.64 58.14 7.51 8.7 20.34 4.12 29.4-2.06l23.78-27.62c0 6.04.83 11.95 3.8 19.87 1.94 5.2 35.07 70.55 64.92 123.4l15.2 37.62 15.17 38.83c.72 2.86 4.72 9.63 9.66 9.2 4.94-.43 4.1-28.39 3.12-43.24.21-1.96.5-4.26.8-6.77 1.26-10.44 2.94-24.24 1.44-29.82-1.06-3.97-5.36-10.25-8.04-12.48-11.93-22.84-23.64-55-32.07-79.25-8.43-24.24-21.41-49.06-28.6-59.44l11.43-59.64c11.6-11.96 35.63-35.36 32.59-37.96-2.17-1.86-9.71.41-17.02 2.62-2.96.89-7.04 1.52-9.54 2.1.9-7.42 4.42-27.9 6.6-51.37 2.17-23.48-6.7-54.35-11.42-66.85 34.54-2.1 42.28-16.85 44.02-25.54Zm-93.42 146.66-1.61 25.6-10.4 9.23 12-34.83Zm52.43-186.34 9.47 32a24.27 24.27 0 0 1-9.47 5.1c-4.55 1.22-6.94 1.4-7.58 1.33l7.58-38.44Z" clip-rule="evenodd"/><path fill="url(#a)" fill-rule="evenodd" d="M250.56 276.6c.7-6.89-15.53-68.98-24.04-96.34-31.3 15.66-44.9 12.5-47.01 6.44-1.63-4.69 2.67-8.93 5.86-11.12.69-.47 1.41.25 1.06 1.02-1.1 2.45-.88 3.53 1.2 3.66 17.53 1.08 20-9.04 10.72-12.4-12.81-4.65-29.32 0-46.72 5.65-8.58 2.79-20.78-5.37-23.94-9.37-8.4 4.43-15.27 12.87-16.07 18.87-.43 3.24.44 20.5 1.46 40.5 1.33 26.39 2.9 57.53 2.04 67.52-27.25 38.28-55.18 43.88-66.01 41.17-.43-.1-6.47-.69-8.72.44-2.15-.85-5.87-.46-5.9-.44-2.34 0-1.7 7.07.4 9.74 1.8 2.7 3.6 6.45 6.36 10.14 1.04 1.4 2.1 2.8 3.13 4.21 3.32 4.48 5.74 5 6.35 2.02.37 2.4 1.34 7.23 4.1 7.32 2.75.08 2.85-2.86 2.55-4.34.54-.34.95.8 2.66-.77 1.71-1.57.06-8.28-.29-10.24 5.63.45 13.8.1 18.1-.74 13.38-2.61 22.68-5.6 31.6-9.94 0 0-15.11 103.35-18.77 147.27-3.66 43.92-.8 51.86 4.64 58.14 7.51 8.7 20.34 4.12 29.4-2.06l23.78-27.62c0 6.04.83 11.95 3.8 19.87 1.94 5.2 35.07 70.55 64.92 123.4l15.2 37.62 15.17 38.83c.72 2.86 4.72 9.63 9.66 9.2 4.94-.43 4.1-28.39 3.12-43.24.21-1.96.5-4.26.8-6.77 1.26-10.44 2.94-24.24 1.44-29.82-1.06-3.97-5.36-10.25-8.04-12.48-11.93-22.84-23.64-55-32.07-79.25-8.43-24.24-21.41-49.06-28.6-59.44l11.43-59.64c11.6-11.96 35.63-35.36 32.59-37.96-2.17-1.86-9.71.41-17.02 2.62-2.96.89-7.04 1.52-9.54 2.1.9-7.42 4.42-27.9 6.6-51.37 2.17-23.48-6.7-54.35-11.42-66.85 34.54-2.1 42.28-16.85 44.02-25.54Zm-93.42 146.66-1.61 25.6-10.4 9.23 12-34.83Zm52.43-186.34 9.47 32a24.27 24.27 0 0 1-9.47 5.1c-4.55 1.22-6.94 1.4-7.58 1.33l7.58-38.44Z" clip-rule="evenodd"/><path stroke="#FFBD00" stroke-linecap="round" stroke-linejoin="round" stroke-width="1.74" d="M113.96 220.51c0 4.47 9.9 6.44 11.1-1.65 1.4-9.27.5-34.67-3.26-36.95-3.77-2.28-7.71-1.89-9.2 3.27"/><path fill="#0C0C0D" fill-opacity=".2" d="M131.47 287.19h14.7c.24 3.8-.62 12.03-1.74 14.86-12.75 32.43-38.57 38.41-48.18 43.36-3.1-.47-4.11-3.17-4.45-4.9-.17-.9.32-1.75 1.1-2.24 13.6-8.52 33.11-26.18 34.53-33.87a332.3 332.3 0 0 0 2.16-15.48c.1-.96.92-1.73 1.88-1.73Z"/><path stroke="#0C0C0D" stroke-linecap="round" stroke-linejoin="round" stroke-width="1.74" d="M59.75 350.88c1.2 3.8 3.14 11.37-1.79 10.75"/><path stroke="#0C0C0D" stroke-linecap="round" stroke-linejoin="round" stroke-width="1.74" d="M37.58 345.77c4.33 4.99 9.8 16.39 11.94 14.9 2.69-1.88.62-6.07-3.82-14.13"/><path stroke="#0C0C0D" stroke-linecap="round" stroke-linejoin="round" stroke-width="1.74" d="M53.42 349c2.33 3.1 5.79 15.46 3.33 16.77-2.82 1.5-4.22-1.2-5.93-6.91"/><path fill="url(#b)" d="M109.21 69.36h17.7a15.9 15.9 0 0 0 7.3 13.59c-7.3 6.18-6.18 19.48 1.66 22.8l-1.66 3.68h-22.77a4.34 4.34 0 0 1-4.33-4.04l-2.23-31.38a4.34 4.34 0 0 1 4.33-4.65Z"/><path fill="#0C0C0D" d="M245.95 677.63c-2.98-15.33 17.65-26.02 17.65-7.98l-2.94 31.77c.87 14.33 1.26 42.98-4.15 42.98-10.56-3.56-5.57-41.13-10.56-66.77Z"/><path stroke="#0C0C0D" stroke-linecap="round" stroke-linejoin="round" stroke-width="1.74" d="M145.6 458.77a1705.76 1705.76 0 0 1 28.5-78.35"/><path stroke="#FFF73A" stroke-linecap="round" stroke-linejoin="round" stroke-width="1.74" d="M214.49 332c-6.25-12.87-6.65-10.06-11.8-8.22-5.15 1.84-25.69 2.6-36.42 0-12.87-3.12-16 13.86-29.78 33.06-13.39 18.65-17.2 75.65-28.4 120.5a9.32 9.32 0 0 1-4.74 5.82c-3.57 1.93-6.3 4.15-4.87 6.14 1.92 2.64 6.12-3.27 7.49 0 1.1 2.62-5.75 5.45-6.82 9.43-.73 2.72 1.27 2.97 2.36 2.75"/><path stroke="#0C0C0D" stroke-linecap="round" stroke-linejoin="round" stroke-width="1.74" d="M209.7 236.19c2.6 12.27 12.2 38.8 12.2 38.8"/><path stroke="#0C0C0D" stroke-linecap="round" stroke-linejoin="round" stroke-width="1.74" d="M219.29 269.2s-9.77 6.4-16.66 6.24"/><path fill="#0C0C0D" fill-opacity=".2" d="m228.35 251.96 14.63-3.26a1.7 1.7 0 0 1 2.02 1.18c3.15 10.61 4.93 22.65 5.57 29.24-1.81 17.55-29.71 22.36-43.44 22.56a58.4 58.4 0 0 0 21.18-11.06c4.04-3.35 5.03-8.78 3.87-13.9l-5.15-22.68a1.74 1.74 0 0 1 1.32-2.08Z"/><path stroke="#0C0C0D" stroke-linecap="round" stroke-linejoin="round" stroke-width="1.74" d="m155.68 449.69 2.88-28"/><path stroke="#FFBD00" stroke-linecap="round" stroke-linejoin="round" stroke-width="1.74" d="M100.1 503.38c-.9 1.35-2.16 4.77 0 7.58 2.72 3.52 63.56-60.87 69.32-63.18 5.77-2.3 66.66-30.92 58.72-17.94"/><path stroke="#FFBD00" stroke-width="1.74" d="M161.28 454.26c.92 1.53 3.54 1.64 5.86.25 2.32-1.4 3.46-3.76 2.54-5.29-.91-1.52-3.54-1.63-5.86-.24-2.32 1.4-3.45 3.76-2.54 5.28Z"/><path stroke="#2C375F" stroke-width="1.74" d="M227.77 663.68c1.67-.69 2.19-3.27 1.16-5.77-1.03-2.5-3.22-3.98-4.89-3.3-1.66.7-2.18 3.28-1.15 5.78 1.03 2.5 3.22 3.98 4.88 3.29Z"/><path stroke="#2C375F" stroke-linecap="round" stroke-linejoin="round" stroke-width="1.74" d="M156.57 506.41c.94 3.7-5.1 10.87 0 10.26 2.93-.34 8.02-6.05 9.8-2.53 2.38 4.7-13.84 9.87-11.61 13.62 1.4 2.36 4.22 0 7.92 0s55.92 111.47 64.04 135.2c6.57 19.2 7.8 35.12 19.5 68.51"/><path stroke="#0C0C0D" stroke-linecap="round" stroke-linejoin="round" stroke-width="1.74" d="M193.22 514.3c-3.07-1.07-14.06-2.14-19.16 2.37"/><path stroke="#0C0C0D" stroke-linecap="round" stroke-linejoin="round" stroke-width="1.74" d="M256.65 654.44c-3.4-3.53-10.17-2.4-12.41 2.48"/><path stroke="#0C0C0D" stroke-linecap="round" stroke-linejoin="round" stroke-width="1.74" d="M148.04 214.92c0 19.89-.51 59.85-2.46 84.35a14.77 14.77 0 0 1-1.1 4.62c-13.37 31.4-51.53 44.32-67.88 46.41-14.85 1.9-26.28-.71-33.93-7.37m84.68-177.99c-3.6 3.12-12.9 7.76-14.93 18.39 0 31.59 4.24 60.39 4.24 106.53-11.01 18.34-29.64 33.63-47.52 40.2-17.88 6.58-20.54-1.04-28.83 3.17m2.39 1.33c-11.17-7.21-11.88 4.44-4.1 12.21 2.8 2.8 5.4 5.03 6.31 2.45.74-2.06-1.2-5.13-2.24-6.3m0 0a27.87 27.87 0 0 1-2.72-2.71"/><path stroke="#0C0C0D" stroke-linecap="round" stroke-linejoin="round" stroke-width="1.74" d="M216.18 199.7c-3.28 24.6-15.44 72.26-14.06 85.57 1.72 16.65 16.39 43.88 16.39 80.99 0 11.95-2.88 32.72-6.73 55.47m-62.02 92.83s-.08 8.45 0 9.6c1.14 18.3 58.65 117.66 69.72 139.82 10.77 21.55 29.56 81.6 33.97 78.43 0 0 2.34 2.75 3.72 2.65 5.47-1.24 3.54-32.25 3.54-44.28 5.89-43.07 1.81-36.3-3.54-45.43-25.47-43.48-34.95-99.35-62.83-141.6 2.63-13.82 7.15-36.06 11.58-59.55"/><path stroke="#0C0C0D" stroke-linecap="round" stroke-linejoin="round" stroke-width="1.74" d="M109.48 340.45c-6.87 44.7-20.55 150.38-20.17 182.94.39 32.56 20.17 30.67 35.88 19.1 21.55-26.18 64.7-73 73.34-81.38 11.31-10.98 32.58-33.93 36.53-38.76 4.98-6.1 4.5-8.37-2.15-6.89-6.65 1.48-51.68 16.26-56.41 17.12m-81.25 78.49c8.38-20.35 69.97-68.04 70.95-70.75 3.2-16.98 1.92-7.63 19.9-10.44"/><path stroke="#0C0C0D" stroke-linecap="round" stroke-linejoin="round" stroke-width="1.74" d="M227.02 180.89c8.26 21.62 21.94 83.5 23.44 95.32 1.8 14.04-20.04 26-44.29 26"/><path fill="#0C0C0D" d="M145.43 302.22c-.22.6-.45 1.2-.69 1.78-6.56 15.64-25.6 29.43-34.61 34.52l-1.98 13.86c7.02-2.81 23.99-16.4 36.6-48.38.24-.59.47-1.18.68-1.78Z"/><path fill="url(#c)" d="M215.03 100.24c-4.7-2.54.76-30.48-17.01-41.15-9.24-14.39-26.17-24.63-39.2-26.64-16.3-2.52-18.82 6.23-22.13 9.14-3.31 2.92-7.29 7.4-7.29 15.24-8.56 15 .95 23.32 3.45 26.5 0 0 6-3.18 9.27-3.18.75 1.8-1.19 19.47-2.25 28.08l-5.39-2.75c-4.8 20.38-12.5 35.35-12.5 45.55 0 7 6.72 26.28 27.83 23.9 20.68-2.34 40.65-11.44 48.82-5.02 4.35 3.42-1.03 8.72-8.8 9.75-4.62.62-4.57-1.1-1.27-4.36-13.09 1.43-13.85 14.08-5.8 16.9 17.7 6.18 47.26-4.72 49.72-19.44 17.73-10.55 22.34-39.42-6.27-52.96 8.13-1.91 8.33-10.65 14.1-11.18 6.96-.64 12.06 12.32 7.87 29.97 4.82-6.48 6.16-10.67 6.98-17.65 0 4.38.07 11.5-.82 15.78 9.46-14.7 10.27-37.54-7.02-44.23-10.83-4.19-27.06 10.57-32.29 7.75Z"/><path stroke="#0C0C0D" stroke-linecap="round" stroke-linejoin="round" stroke-width="1.74" d="M180.67 146.2c-4.9-1.36-19.88.94-31.9 7.46m65.9 19.02c6.43-13.42-6.21-23.55-23.63-25.32"/><path stroke="#1F2B7A" stroke-linecap="round" stroke-linejoin="round" stroke-width="1.74" d="M140.22 49.38c-5.02 1.71-13.58 9.26-13.58 17.98 0 10.1 4.9 13.33 6.79 15.6"/><path stroke="#1F2B7A" stroke-linecap="round" stroke-linejoin="round" stroke-width="1.74" d="M155.86 40.52c-15.26-5.3-25.87 4.75-25.87 16.55"/><path fill="#51CCFF" stroke="#fff" stroke-linecap="round" stroke-linejoin="round" stroke-width="1.74" d="M199.15 52.26c-5.4-5.9-9.5-5.48-12.15-5.48 6.99 5.82 10.48 11.54 10.48 11.54l5.3 3.89c.1-2.82-1.05-7.13-3.63-9.95Z"/><path stroke="#0C0C0D" stroke-linecap="round" stroke-linejoin="round" stroke-width="1.74" d="M222.13 164.55c1.78-5.36.14-19.63-26.74-16.56"/><path stroke="#0C0C0D" stroke-linecap="round" stroke-linejoin="round" stroke-width="1.74" d="M224.5 147.56c2.4 4.7 2.92 16.98-14.19 28.55"/><path stroke="#0C0C0D" stroke-linecap="round" stroke-linejoin="round" stroke-width="1.74" d="M172.92 146.07c-13.49 1.72-22.63-8.22-19.89-28.92"/><path stroke="#0C0C0D" stroke-linecap="round" stroke-linejoin="round" stroke-width="1.74" d="M204.75 102.38c-.28 4.1 1.04 12.68 8.55 14.18 3.3.66 11.2 1.53 16.64 4.19"/><path fill="#FF8C7C" d="M128.1 93.9c0-7.74 5.28-15.09 14.72-14l-2.66 27.89a13.78 13.78 0 0 1-12.07-13.89Z"/><path stroke="#0C0C0D" stroke-linecap="round" stroke-linejoin="round" stroke-width="1.74" d="M141.96 89.35c-2.46 21.37-3.88 26.42-5.87 40.82"/><path fill="#51CCFF" stroke="#fff" stroke-linecap="round" stroke-linejoin="round" stroke-width="1.74" d="M150.74 54.62c-5.68 1.9-9.64 10.33-7.56 24.29 5.66-14.84 13.1-11.76 17.73-14.7 5.64-3.6-2.33-12.2-10.17-9.6Z"/><path fill="#FFC729" d="M173.81 240.5c10.88 0 21.08-6.63 26.75-17.39-5.2-10.74-15.1-17.33-25.98-17.32-5.68 10.75-5.98 23.98-.77 34.72Z"/><path fill="#fff" d="m189.05 221.97 11.48 1.14s0 .03 0 0c-5.18-10.74-15.07-17.33-25.95-17.32 0 0 9.2 4.82 14.47 16.18Z" opacity=".2"/><defs><linearGradient id="b" x1="110.78" x2="132.68" y1="64.44" y2="110.78" gradientUnits="userSpaceOnUse"><stop stop-color="#FF6C8C"/><stop offset="1" stop-color="#155ED2" stop-opacity=".5"/></linearGradient><linearGradient id="c" x1="162.45" x2="215.53" y1="78.95" y2="191.02" gradientUnits="userSpaceOnUse"><stop stop-color="#fff"/><stop offset="1" stop-color="#FFBD00"/></linearGradient><radialGradient id="a" cx="0" cy="0" r="1" gradientTransform="matrix(215.86681892 547.44936868 -217.45518891 85.74557315 117.1 182.07)" gradientUnits="userSpaceOnUse"><stop offset=".02" stop-color="#167DFF"/><stop offset=".14" stop-color="#FFBD00"/><stop offset=".76" stop-color="#0B2C99" stop-opacity=".67"/></radialGradient></defs></svg>
