<svg xmlns="http://www.w3.org/2000/svg" width="22" height="22" fill="none"><path fill="#fff" fill-opacity=".3" d="M11.35.65a.5.5 0 0 0-.7 0L7.46 3.83a.5.5 0 1 0 .71.7l2.33-2.32v8.29H2.2l2.34-2.33a.5.5 0 1 0-.71-.7L.65 10.64a.5.5 0 0 0 0 .7l3.18 3.19a.5.5 0 1 0 .7-.71L2.22 11.5h8.29v8.3l-2.33-2.34a.5.5 0 1 0-.7.71l3.18 3.18c.2.2.5.2.7 0l3.19-3.18a.5.5 0 1 0-.71-.7l-2.33 2.32V11.5h8.3l-2.34 2.33a.5.5 0 1 0 .71.7l3.18-3.18a.5.5 0 0 0 0-.7l-3.18-3.19a.5.5 0 1 0-.7.71l2.32 2.33h-8.3V2.2l2.33 2.34a.5.5 0 1 0 .7-.71L11.36.65Z"/></svg>
