<svg width="138" height="45" fill="none" xmlns="http://www.w3.org/2000/svg"><path d="M20 .5V45" stroke="#fff" stroke-opacity=".5"/><path d="M20.198 11.896c.96 0 1.835.17 2.624.512.81.32 1.45.81 1.92 1.472.49.64.736 1.44.736 2.4 0 1.301-.427 2.453-1.28 3.456-.853 1.003-1.952 1.93-3.296 2.784l-.256-.448c.555-.47.992-.981 1.312-1.536a5.994 5.994 0 0 0 .736-1.792c.15-.661.224-1.344.224-2.048 0-1.259-.267-2.272-.8-3.04-.512-.79-1.27-1.184-2.272-1.184-.853 0-1.568.31-2.144.928-.576.597-.864 1.43-.864 2.496 0 1.003.235 1.888.704 2.656a8.632 8.632 0 0 0 1.824 2.048 43.162 43.162 0 0 0 2.368 1.824 25.205 25.205 0 0 1 2.368 1.856 8.196 8.196 0 0 1 1.824 2.208c.47.81.704 1.76.704 2.848 0 1.216-.299 2.283-.896 3.2-.597.917-1.419 1.632-2.464 2.144-1.024.512-2.208.768-3.552.768a8.617 8.617 0 0 1-3.168-.576c-.981-.405-1.77-1.003-2.368-1.792-.597-.81-.896-1.813-.896-3.008 0-1.11.245-2.101.736-2.976a8.096 8.096 0 0 1 2.016-2.336 13.471 13.471 0 0 1 2.816-1.728l.256.448c-1.11.747-1.888 1.653-2.336 2.72-.448 1.045-.672 2.176-.672 3.392 0 .917.117 1.781.352 2.592.256.79.662 1.44 1.216 1.952.576.49 1.323.736 2.24.736a4.048 4.048 0 0 0 2.784-1.056c.81-.725 1.216-1.77 1.216-3.136 0-1.045-.235-1.963-.704-2.752a8.867 8.867 0 0 0-1.76-2.176A26.303 26.303 0 0 0 19.11 23.8a34.37 34.37 0 0 1-2.304-1.92 9.258 9.258 0 0 1-1.792-2.208c-.448-.81-.672-1.739-.672-2.784 0-1.003.256-1.877.768-2.624a5.257 5.257 0 0 1 2.112-1.728c.896-.427 1.888-.64 2.976-.64zM119.303 14.072c.896 0 1.685.15 2.368.448.704.277 1.248.693 1.632 1.248.405.533.608 1.184.608 1.952 0 .832-.235 1.6-.704 2.304a6.685 6.685 0 0 1-1.76 1.792c-.725.49-1.493.885-2.304 1.184a7.975 7.975 0 0 1 2.848.576 5.172 5.172 0 0 1 2.208 1.568c.576.704.864 1.61.864 2.72 0 .981-.235 1.888-.704 2.72-.448.81-1.077 1.536-1.888 2.176a11.18 11.18 0 0 1-2.72 1.664c-1.024.47-2.101.821-3.232 1.056a15.887 15.887 0 0 1-3.296.352v-.576a10.944 10.944 0 0 0 3.2-.544 9.183 9.183 0 0 0 2.816-1.408A6.748 6.748 0 0 0 121.255 31c.512-.917.768-1.963.768-3.136 0-1.259-.309-2.293-.928-3.104-.597-.832-1.419-1.29-2.464-1.376-.32.128-.608.245-.864.352a1.894 1.894 0 0 1-.64.128c-.171 0-.299-.032-.384-.096a.435.435 0 0 1-.128-.32.5.5 0 0 1 .256-.448c.171-.107.363-.16.576-.16.171 0 .341.021.512.064.192.021.395.043.608.064.875-.661 1.504-1.387 1.888-2.176.384-.81.576-1.621.576-2.432 0-1.003-.256-1.728-.768-2.176-.491-.47-1.163-.704-2.016-.704-.875 0-1.685.235-2.432.704-.725.47-1.333 1.184-1.824 2.144l-.544-.256a8.202 8.202 0 0 1 1.248-1.952 5.58 5.58 0 0 1 1.888-1.472c.768-.384 1.675-.576 2.72-.576zM57.159 13.072c.896 0 1.685.15 2.368.448.704.277 1.248.693 1.632 1.248.405.533.608 1.184.608 1.952 0 .832-.235 1.6-.704 2.304a6.681 6.681 0 0 1-1.76 1.792c-.725.49-1.493.885-2.304 1.184a7.977 7.977 0 0 1 2.848.576 5.172 5.172 0 0 1 2.208 1.568c.576.704.864 1.61.864 2.72 0 .981-.235 1.888-.704 2.72-.448.81-1.078 1.536-1.888 2.176a11.187 11.187 0 0 1-2.72 1.664c-1.024.47-2.102.821-3.232 1.056a15.89 15.89 0 0 1-3.296.352v-.576a10.946 10.946 0 0 0 3.2-.544 9.18 9.18 0 0 0 2.816-1.408A6.742 6.742 0 0 0 59.11 30c.512-.917.768-1.963.768-3.136 0-1.259-.31-2.293-.928-3.104-.598-.832-1.419-1.29-2.464-1.376-.32.128-.608.245-.864.352a1.892 1.892 0 0 1-.64.128c-.17 0-.299-.032-.384-.096a.434.434 0 0 1-.128-.32c0-.192.085-.341.256-.448.17-.107.363-.16.576-.16.17 0 .341.021.512.064.192.021.395.043.608.064.874-.661 1.504-1.387 1.888-2.176.384-.81.576-1.621.576-2.432 0-1.003-.256-1.728-.768-2.176-.49-.47-1.163-.704-2.016-.704-.875 0-1.686.235-2.432.704-.725.47-1.334 1.184-1.824 2.144l-.544-.256a8.202 8.202 0 0 1 1.248-1.952 5.583 5.583 0 0 1 1.888-1.472c.768-.384 1.675-.576 2.72-.576z" fill="#fff"/><path opacity=".3" d="M52.534 34.928c-.896 0-1.686-.15-2.368-.448-.704-.277-1.248-.693-1.632-1.248-.406-.533-.608-1.184-.608-1.952 0-.832.234-1.6.704-2.304a6.68 6.68 0 0 1 1.76-1.792A10.7 10.7 0 0 1 52.694 26a7.976 7.976 0 0 1-2.848-.576 5.172 5.172 0 0 1-2.208-1.568c-.576-.704-.864-1.61-.864-2.72 0-.981.234-1.888.704-2.72.448-.81 1.077-1.536 1.888-2.176a11.185 11.185 0 0 1 2.72-1.664 15.093 15.093 0 0 1 3.232-1.056 15.889 15.889 0 0 1 3.296-.352v.576a10.946 10.946 0 0 0-3.2.544 9.179 9.179 0 0 0-2.816 1.408A6.74 6.74 0 0 0 50.582 18c-.512.917-.768 1.963-.768 3.136 0 1.259.31 2.293.928 3.104.597.832 1.418 1.29 2.464 1.376.32-.128.608-.245.864-.352.234-.085.448-.128.64-.128.17 0 .298.032.384.096a.434.434 0 0 1 .128.32.502.502 0 0 1-.256.448c-.17.107-.363.16-.576.16-.17 0-.342-.021-.512-.064a55.837 55.837 0 0 0-.608-.064c-.875.661-1.504 1.387-1.888 2.176-.384.81-.576 1.621-.576 2.432 0 1.003.256 1.728.768 2.176.49.47 1.162.704 2.016.704.874 0 1.685-.235 2.432-.704.725-.47 1.333-1.184 1.824-2.144l.544.256a8.202 8.202 0 0 1-1.248 1.952 5.584 5.584 0 0 1-1.888 1.472c-.768.384-1.675.576-2.72.576z" fill="#fff"/><path d="M91.554 18.433c.508.546 1.26 1.373 2.257 2.483.28.332.457.511 2.334 2.406H77.762v1.356h18.383c-.736.743-.939.947-1.775 1.818-.39.41-.93.98-1.624 1.715-.456.486-.634.665-1.217 1.254l.71.82c2.917-2.74 4.388-3.892 7.837-6.298-2.976-2.133-5.588-4.223-7.837-6.271l-.71.717h.025z" fill="#fff" fill-opacity=".5"/></svg>