<svg width="138" height="44" fill="none" xmlns="http://www.w3.org/2000/svg"><path d="M49.753 4.741L29.247 40.26" stroke="#fff" stroke-opacity=".5"/><path d="M29.851 18.451c0 .96-.17 1.835-.512 2.624-.32.81-.81 1.45-1.472 1.92-.64.49-1.44.736-2.4.736-1.301 0-2.453-.427-3.456-1.28-1.003-.853-1.93-1.952-2.784-3.296l.448-.256c.47.555.981.992 1.536 1.312a5.995 5.995 0 0 0 1.792.736c.661.15 1.344.224 2.048.224 1.259 0 2.272-.267 3.04-.8.79-.512 1.184-1.27 1.184-2.272 0-.853-.31-1.568-.928-2.144-.597-.576-1.43-.864-2.496-.864-1.003 0-1.888.235-2.656.704a8.625 8.625 0 0 0-2.048 1.824 43.162 43.162 0 0 0-1.824 2.368 25.218 25.218 0 0 1-1.856 2.368 8.196 8.196 0 0 1-2.208 1.824c-.81.47-1.76.704-2.848.704-1.216 0-2.283-.299-3.2-.896-.917-.597-1.632-1.419-2.144-2.464-.512-1.024-.768-2.208-.768-3.552 0-1.13.192-2.187.576-3.168.405-.981 1.003-1.77 1.792-2.368.81-.597 1.813-.896 3.008-.896 1.11 0 2.101.245 2.976.736a8.098 8.098 0 0 1 2.336 2.016 13.477 13.477 0 0 1 1.728 2.816l-.448.256c-.747-1.11-1.653-1.888-2.72-2.336-1.045-.448-2.176-.672-3.392-.672-.917 0-1.781.117-2.592.352-.79.256-1.44.661-1.952 1.216-.49.576-.736 1.323-.736 2.24 0 1.067.352 1.995 1.056 2.784.725.81 1.77 1.216 3.136 1.216 1.045 0 1.963-.235 2.752-.704a8.871 8.871 0 0 0 2.176-1.76 26.32 26.32 0 0 0 1.952-2.336 34.26 34.26 0 0 1 1.92-2.304 9.256 9.256 0 0 1 2.208-1.792c.81-.448 1.739-.672 2.784-.672 1.003 0 1.877.256 2.624.768a5.258 5.258 0 0 1 1.728 2.112c.427.896.64 1.888.64 2.976zM130.092 23.451c0 .96-.171 1.835-.512 2.624-.32.81-.811 1.45-1.472 1.92-.64.49-1.44.736-2.4.736-1.302 0-2.454-.427-3.456-1.28-1.003-.853-1.931-1.952-2.784-3.296l.448-.256c.469.555.981.992 1.536 1.312a5.989 5.989 0 0 0 1.792.736 9.27 9.27 0 0 0 2.048.224c1.258 0 2.272-.267 3.04-.8.789-.512 1.184-1.27 1.184-2.272 0-.853-.31-1.568-.928-2.144-.598-.576-1.43-.864-2.496-.864-1.003 0-1.888.235-2.656.704a8.608 8.608 0 0 0-2.048 1.824 42.867 42.867 0 0 0-1.824 2.368 25.268 25.268 0 0 1-1.856 2.368 8.196 8.196 0 0 1-2.208 1.824c-.811.47-1.76.704-2.848.704-1.216 0-2.283-.299-3.2-.896-.918-.597-1.632-1.419-2.144-2.464-.512-1.024-.768-2.208-.768-3.552 0-1.13.192-2.187.576-3.168.405-.981 1.002-1.77 1.792-2.368.81-.597 1.813-.896 3.008-.896 1.109 0 2.101.245 2.976.736a8.105 8.105 0 0 1 2.336 2.016 13.528 13.528 0 0 1 1.728 2.816l-.448.256c-.747-1.11-1.654-1.888-2.72-2.336-1.046-.448-2.176-.672-3.392-.672-.918 0-1.782.117-2.592.352-.79.256-1.44.661-1.952 1.216-.491.576-.736 1.323-.736 2.24 0 1.067.352 1.995 1.056 2.784.725.81 1.77 1.216 3.136 1.216 1.045 0 1.962-.235 2.752-.704a8.888 8.888 0 0 0 2.176-1.76 26.475 26.475 0 0 0 1.952-2.336 33.903 33.903 0 0 1 1.92-2.304 9.244 9.244 0 0 1 2.208-1.792c.81-.448 1.738-.672 2.784-.672 1.002 0 1.877.256 2.624.768a5.267 5.267 0 0 1 1.728 2.112c.426.896.64 1.888.64 2.976zM53.965 20.072c1.472 0 2.635.352 3.488 1.056.875.683 1.312 1.675 1.312 2.976 0 .853-.202 1.664-.608 2.432a10.15 10.15 0 0 1-1.536 2.176 36.67 36.67 0 0 1-2.048 2.016c-.725.64-1.429 1.28-2.112 1.92a12.724 12.724 0 0 0-1.728 1.888h6.496c.875 0 1.43-.117 1.664-.352.235-.256.395-.683.48-1.28h.544c0 1.13.011 2.005.032 2.624.022.597.054 1.141.096 1.632-.192-.043-.544-.075-1.056-.096-.512-.021-1.098-.043-1.76-.064H47.79v-.544c.64-.704 1.408-1.45 2.304-2.24.896-.81 1.76-1.685 2.592-2.624a14.262 14.262 0 0 0 2.112-3.104 7.99 7.99 0 0 0 .864-3.68c0-1.216-.288-2.09-.864-2.624-.554-.555-1.333-.832-2.336-.832-.853 0-1.642.256-2.368.768-.725.49-1.365 1.237-1.92 2.24l-.512-.288a7.931 7.931 0 0 1 1.28-1.92 6.377 6.377 0 0 1 2.048-1.504c.832-.384 1.824-.576 2.976-.576z" fill="#fff"/><path d="M91.554 17.433c.508.546 1.26 1.373 2.257 2.483.28.332.457.511 2.334 2.406H77.762v1.356h18.383c-.736.743-.939.947-1.775 1.818-.39.41-.93.98-1.624 1.715-.456.486-.634.665-1.217 1.254l.71.82c2.917-2.74 4.388-3.892 7.837-6.298-2.976-2.133-5.588-4.223-7.837-6.271l-.71.717h.025z" fill="#fff" fill-opacity=".5"/></svg>