<svg width="138" height="44" fill="none" xmlns="http://www.w3.org/2000/svg"><path d="M49.753 4.741L29.247 40.26" stroke="#fff" stroke-opacity=".5"/><path d="M20.198 7.896c.96 0 1.835.17 2.624.512.81.32 1.45.81 1.92 1.472.49.64.736 1.44.736 2.4 0 1.301-.427 2.453-1.28 3.456-.853 1.003-1.952 1.93-3.296 2.784l-.256-.448c.555-.47.992-.981 1.312-1.536a5.994 5.994 0 0 0 .736-1.792c.15-.661.224-1.344.224-2.048 0-1.259-.267-2.272-.8-3.04-.512-.79-1.27-1.184-2.272-1.184-.853 0-1.568.31-2.144.928-.576.597-.864 1.43-.864 2.496 0 1.003.235 1.888.704 2.656a8.632 8.632 0 0 0 1.824 2.048 43.162 43.162 0 0 0 2.368 1.824 25.205 25.205 0 0 1 2.368 1.856 8.196 8.196 0 0 1 1.824 2.208c.47.81.704 1.76.704 2.848 0 1.216-.299 2.283-.896 3.2-.597.917-1.419 1.632-2.464 2.144-1.024.512-2.208.768-3.552.768a8.617 8.617 0 0 1-3.168-.576c-.981-.405-1.77-1.003-2.368-1.792-.597-.81-.896-1.813-.896-3.008 0-1.11.245-2.101.736-2.976a8.096 8.096 0 0 1 2.016-2.336 13.471 13.471 0 0 1 2.816-1.728l.256.448c-1.11.747-1.888 1.653-2.336 2.72-.448 1.045-.672 2.176-.672 3.392 0 .917.117 1.781.352 2.592.256.79.662 1.44 1.216 1.952.576.49 1.323.736 2.24.736a4.048 4.048 0 0 0 2.784-1.056c.81-.725 1.216-1.77 1.216-3.136 0-1.045-.235-1.963-.704-2.752a8.867 8.867 0 0 0-1.76-2.176A26.303 26.303 0 0 0 19.11 19.8a34.37 34.37 0 0 1-2.304-1.92 9.258 9.258 0 0 1-1.792-2.208c-.448-.81-.672-1.739-.672-2.784 0-1.003.256-1.877.768-2.624a5.258 5.258 0 0 1 2.112-1.728c.896-.427 1.888-.64 2.976-.64zM53.965 20.072c1.472 0 2.635.352 3.488 1.056.875.683 1.312 1.675 1.312 2.976 0 .853-.202 1.664-.608 2.432a10.15 10.15 0 0 1-1.536 2.176 36.67 36.67 0 0 1-2.048 2.016c-.725.64-1.429 1.28-2.112 1.92a12.724 12.724 0 0 0-1.728 1.888h6.496c.875 0 1.43-.117 1.664-.352.235-.256.395-.683.48-1.28h.544c0 1.13.011 2.005.032 2.624.022.597.054 1.141.096 1.632-.192-.043-.544-.075-1.056-.096-.512-.021-1.098-.043-1.76-.064H47.79v-.544c.64-.704 1.408-1.45 2.304-2.24.896-.81 1.76-1.685 2.592-2.624a14.262 14.262 0 0 0 2.112-3.104 7.99 7.99 0 0 0 .864-3.68c0-1.216-.288-2.09-.864-2.624-.554-.555-1.333-.832-2.336-.832-.853 0-1.642.256-2.368.768-.725.49-1.365 1.237-1.92 2.24l-.512-.288a7.931 7.931 0 0 1 1.28-1.92 6.377 6.377 0 0 1 2.048-1.504c.832-.384 1.824-.576 2.976-.576zM121.608 13.072l.128.832-8.992 12.736-.032-.512h9.792c.874 0 1.429-.117 1.664-.352.234-.256.394-.683.48-1.28h.544c0 1.045.01 1.845.032 2.4.021.555.053 1.067.096 1.536-.15-.043-.395-.064-.736-.064-.32-.021-.704-.043-1.152-.064a29.706 29.706 0 0 0-1.408-.032H111.208V27.6l10.4-14.528zm.512 0v21.44h-2.56V16.464l2.048-3.392h.512z" fill="#fff"/><path d="M91.554 17.433c.508.546 1.26 1.373 2.257 2.483.28.332.457.511 2.334 2.406H77.762v1.356h18.383c-.736.743-.939.947-1.775 1.818-.39.41-.93.98-1.624 1.715-.456.486-.634.665-1.217 1.254l.71.82c2.917-2.74 4.388-3.892 7.837-6.298-2.976-2.133-5.588-4.223-7.837-6.271l-.71.717h.025z" fill="#fff" fill-opacity=".5"/></svg>