<svg width="138" height="44" fill="none" xmlns="http://www.w3.org/2000/svg"><path d="M39.513 22.5H0" stroke="#fff" stroke-opacity=".5"/><path d="M20.198 11.896c.96 0 1.835.17 2.624.512.81.32 1.45.81 1.92 1.472.49.64.736 1.44.736 2.4 0 1.301-.427 2.453-1.28 3.456-.853 1.003-1.952 1.93-3.296 2.784l-.256-.448c.555-.47.992-.981 1.312-1.536a5.994 5.994 0 0 0 .736-1.792c.15-.661.224-1.344.224-2.048 0-1.259-.267-2.272-.8-3.04-.512-.79-1.27-1.184-2.272-1.184-.853 0-1.568.31-2.144.928-.576.597-.864 1.43-.864 2.496 0 1.003.235 1.888.704 2.656a8.632 8.632 0 0 0 1.824 2.048 43.162 43.162 0 0 0 2.368 1.824 25.205 25.205 0 0 1 2.368 1.856 8.196 8.196 0 0 1 1.824 2.208c.47.81.704 1.76.704 2.848 0 1.216-.299 2.283-.896 3.2-.597.917-1.419 1.632-2.464 2.144-1.024.512-2.208.768-3.552.768a8.617 8.617 0 0 1-3.168-.576c-.981-.405-1.77-1.003-2.368-1.792-.597-.81-.896-1.813-.896-3.008 0-1.11.245-2.101.736-2.976a8.096 8.096 0 0 1 2.016-2.336 13.471 13.471 0 0 1 2.816-1.728l.256.448c-1.11.747-1.888 1.653-2.336 2.72-.448 1.045-.672 2.176-.672 3.392 0 .917.117 1.781.352 2.592.256.79.662 1.44 1.216 1.952.576.49 1.323.736 2.24.736a4.048 4.048 0 0 0 2.784-1.056c.81-.725 1.216-1.77 1.216-3.136 0-1.045-.235-1.963-.704-2.752a8.867 8.867 0 0 0-1.76-2.176A26.303 26.303 0 0 0 19.11 23.8a34.37 34.37 0 0 1-2.304-1.92 9.258 9.258 0 0 1-1.792-2.208c-.448-.81-.672-1.739-.672-2.784 0-1.003.256-1.877.768-2.624a5.257 5.257 0 0 1 2.112-1.728c.896-.427 1.888-.64 2.976-.64zM119.459 11.896c1.579 0 2.955.459 4.128 1.376 1.195.917 2.123 2.24 2.784 3.968.661 1.707.992 3.787.992 6.24 0 2.39-.341 4.48-1.024 6.272-.683 1.792-1.621 3.19-2.816 4.192-1.195 1.003-2.56 1.504-4.096 1.504-1.579 0-2.965-.459-4.16-1.376-1.173-.917-2.091-2.24-2.752-3.968-.661-1.728-.992-3.808-.992-6.24 0-2.39.341-4.48 1.024-6.272.683-1.792 1.621-3.19 2.816-4.192 1.195-1.003 2.56-1.504 4.096-1.504zm-.128.576c-1.557 0-2.72.97-3.488 2.912-.747 1.941-1.12 4.725-1.12 8.352 0 3.733.427 6.528 1.28 8.384.875 1.835 2.059 2.752 3.552 2.752 1.579 0 2.741-.97 3.488-2.912.747-1.941 1.12-4.725 1.12-8.352 0-3.733-.437-6.517-1.312-8.352-.853-1.856-2.027-2.784-3.52-2.784z" fill="#fff"/><path opacity=".2" d="M54.787 10.445c1.123 0 2.112.261 2.967.783.87.507 1.55 1.226 2.04 2.16.491.934.736 2.033.736 3.299s-.253 2.405-.76 3.418a6.02 6.02 0 0 1-2.112 2.373c-.886.57-1.93.854-3.132.854-1.092 0-2.073-.253-2.943-.76-.87-.521-1.559-1.25-2.065-2.183-.49-.949-.736-2.057-.736-3.322 0-1.25.246-2.374.736-3.37a6.02 6.02 0 0 1 2.112-2.374c.902-.585 1.954-.878 3.157-.878zm-.214.427c-1.012 0-1.851.538-2.516 1.614-.648 1.076-.973 2.58-.973 4.51 0 1.423.166 2.57.499 3.44.332.855.775 1.48 1.329 1.876.57.395 1.179.593 1.827.593 1.029 0 1.867-.538 2.516-1.614.649-1.092.973-2.603.973-4.533 0-1.424-.166-2.563-.498-3.417-.332-.87-.776-1.496-1.33-1.875a3.076 3.076 0 0 0-1.827-.594z" fill="#fff"/><path d="M54.787 23.116c1.123 0 2.112.262 2.967.784.87.506 1.55 1.226 2.04 2.16.491.933.736 2.033.736 3.298 0 1.266-.253 2.405-.76 3.418a6.02 6.02 0 0 1-2.112 2.373c-.886.57-1.93.855-3.132.855-1.092 0-2.073-.253-2.943-.76-.87-.522-1.559-1.25-2.065-2.183-.49-.95-.736-2.057-.736-3.323 0-1.25.246-2.373.736-3.37a6.02 6.02 0 0 1 2.112-2.373c.902-.586 1.954-.879 3.157-.879zm-.214.428c-1.012 0-1.851.538-2.516 1.613-.648 1.076-.973 2.58-.973 4.51 0 1.424.166 2.571.499 3.441.332.855.775 1.48 1.329 1.875.57.396 1.179.594 1.827.594 1.029 0 1.867-.538 2.516-1.614.649-1.092.973-2.603.973-4.534 0-1.423-.166-2.563-.498-3.417-.332-.87-.776-1.495-1.33-1.875a3.075 3.075 0 0 0-1.827-.593z" fill="#fff"/><path d="M91.554 17.433c.508.546 1.26 1.373 2.257 2.483.28.332.457.511 2.334 2.406H77.762v1.356h18.383c-.736.743-.939.947-1.775 1.818-.39.41-.93.98-1.624 1.715-.456.486-.634.665-1.217 1.254l.71.82c2.917-2.74 4.388-3.892 7.837-6.298-2.976-2.133-5.588-4.223-7.837-6.271l-.71.717h.025z" fill="#fff" fill-opacity=".5"/></svg>