<svg width="45" height="60" viewBox="0 0 45 60" fill="none" xmlns="http://www.w3.org/2000/svg">
<path d="M20.6052 19.7284C20.5441 19.1669 20.6682 18.6266 20.9773 18.1075C21.3068 17.5821 21.7264 17.2411 22.2362 17.0843C22.7664 16.9213 23.2337 16.9897 23.6383 17.2893C24.0633 17.5827 24.3063 18.0102 24.3674 18.5717C24.4284 19.1332 24.2942 19.6767 23.9647 20.202C23.6556 20.7211 23.236 21.0622 22.7058 21.2252C22.196 21.3819 21.7286 21.3136 21.3036 21.0202C20.8991 20.7205 20.6662 20.2899 20.6052 19.7284ZM22.1678 28.1867C22.2074 26.7907 21.8703 26.2025 21.1566 26.4219C20.6876 26.5661 20.3479 26.9495 20.1376 27.5722C19.9273 28.1948 19.7812 29.099 19.6994 30.2847L19.6191 31.5481L19.038 31.7268L19.1468 29.2494C19.1893 28.2989 19.3557 27.5336 19.646 26.9533C19.9363 26.373 20.2909 25.9292 20.7097 25.6219C21.1427 25.2879 21.5631 25.0582 21.9709 24.9329C22.6235 24.7322 23.1434 24.7174 23.5308 24.8885C23.9182 25.0595 24.2083 25.3498 24.4011 25.7592C24.5939 26.1686 24.7177 26.6439 24.7725 27.185C24.821 27.7057 24.8358 28.2257 24.8168 28.7448L24.3934 39.0189C24.3713 39.673 24.4442 40.1639 24.6119 40.4918C24.7938 40.7929 25.0784 40.884 25.4659 40.7649C25.8737 40.6395 26.1922 40.296 26.4213 39.7346C26.6504 39.1731 26.8075 38.2321 26.8925 36.9115L26.9727 35.6481L27.5539 35.4694L27.4451 37.9468C27.4041 38.8298 27.2518 39.5685 26.9882 40.1629C26.7183 40.7369 26.377 41.1878 25.9645 41.5155C25.5582 41.8636 25.1205 42.1097 24.6515 42.2539C23.7747 42.5235 23.1206 42.5014 22.6894 42.1876C22.2581 41.8738 21.983 41.3781 21.8639 40.7005C21.7449 40.0229 21.705 39.2763 21.7444 38.4608L22.1678 28.1867Z" fill="white"/>
</svg>
