<svg width="36" height="24" viewBox="0 0 36 24" fill="none" xmlns="http://www.w3.org/2000/svg">
<g clip-path="url(#clip0_7256_6054)">
<path d="M28.1664 1.49039C29.3096 1.49039 30.3076 1.68999 31.1605 2.08921C32.0134 2.47028 32.6757 3.0328 33.1475 3.77679C33.6374 4.50263 33.8824 5.37364 33.8824 6.38982C33.8824 7.406 33.6193 8.31331 33.093 9.11173C32.585 9.91016 31.8682 10.5906 30.9427 11.1532C30.0354 11.6975 28.9739 12.124 27.7581 12.4325V16.4064H27.2137V12.1875C28.4295 11.7338 29.3368 11.2348 29.9356 10.6904C30.5345 10.1461 30.9337 9.55631 31.1333 8.9212C31.351 8.28609 31.4599 7.61468 31.4599 6.90699C31.4599 5.18311 31.1061 3.94011 30.3984 3.17797C29.6907 2.41584 28.7743 2.03477 27.6492 2.03477C27.2137 2.03477 26.7329 2.09828 26.2066 2.2253C25.6985 2.35233 25.2902 2.61544 24.9818 3.01466C25.3265 3.08724 25.5987 3.24148 25.7983 3.47738C26.0161 3.71328 26.125 4.02176 26.125 4.40283C26.125 4.85648 25.9798 5.2194 25.6895 5.49159C25.3991 5.74564 25.0453 5.87266 24.6279 5.87266C24.2106 5.87266 23.8658 5.73657 23.5936 5.46437C23.3214 5.19218 23.1853 4.84741 23.1853 4.43005C23.1853 4.04898 23.3033 3.69513 23.5391 3.3685C23.775 3.02373 24.0835 2.72432 24.4646 2.47027C24.8457 2.21623 25.3356 1.9894 25.9344 1.7898C26.5514 1.59019 27.2954 1.49039 28.1664 1.49039ZM27.5131 19.6727C27.9849 19.6727 28.3932 19.8451 28.738 20.1899C29.0828 20.5347 29.2552 20.943 29.2552 21.4148C29.2552 21.8866 29.0828 22.2948 28.738 22.6396C28.3932 22.9844 27.9849 23.1568 27.5131 23.1568C27.0413 23.1568 26.6331 22.9844 26.2883 22.6396C25.9435 22.2948 25.7711 21.8866 25.7711 21.4148C25.7711 20.943 25.9435 20.5347 26.2883 20.1899C26.6331 19.8451 27.0413 19.6727 27.5131 19.6727Z" fill="white"/>
<path d="M18.4232 0.347198L18.9403 0.701047L3.01716 24.2728L2.5 23.9189L18.4232 0.347198ZM6.69174 2.27975V8.97565C6.69174 9.50189 6.82784 9.85573 7.10003 10.0372C7.39036 10.2187 7.86216 10.3094 8.51542 10.3094V10.881C8.26137 10.8628 7.88938 10.8538 7.39944 10.8538C6.90949 10.8356 6.4014 10.8265 5.87517 10.8265C5.29449 10.8265 4.73197 10.8356 4.18758 10.8538C3.66135 10.8538 3.25306 10.8628 2.96272 10.881V10.3094C3.59784 10.3094 4.08778 10.2187 4.43256 10.0372C4.79548 9.85573 4.97694 9.50189 4.97694 8.97565V5.46439C4.97694 4.66596 4.8227 4.17602 4.51421 3.99456C4.20573 3.79495 3.62506 3.69515 2.77219 3.69515V3.12355C3.67949 3.1054 4.43256 3.03282 5.03138 2.90579C5.64834 2.77877 6.2018 2.57009 6.69174 2.27975ZM15.5379 14.1201C16.3364 14.1201 16.9896 14.2924 17.4977 14.6372C18.0058 14.9639 18.2599 15.4719 18.2599 16.1615C18.2599 16.724 18.0965 17.2321 17.7699 17.6858C17.4614 18.1394 17.0713 18.5658 16.5995 18.9651C16.1277 19.3461 15.6377 19.7272 15.1297 20.1083C14.6397 20.4712 14.2133 20.8432 13.8504 21.2242H17.4433C17.8788 21.2242 18.1691 21.1426 18.3143 20.9793C18.4595 20.816 18.5956 20.5891 18.7226 20.2988L19.1853 20.3804C19.0583 20.8522 18.9585 21.2968 18.8859 21.7142C18.8315 22.1134 18.7952 22.4854 18.777 22.8302C18.6137 22.7939 18.4413 22.7757 18.2599 22.7757C18.0965 22.7576 17.9242 22.7485 17.7427 22.7485H11.7545V22.2041C12.1537 21.8594 12.6255 21.4964 13.1699 21.1154C13.7143 20.7162 14.2405 20.2806 14.7486 19.8088C15.2748 19.3371 15.7013 18.829 16.0279 18.2846C16.3727 17.7402 16.5451 17.1505 16.5451 16.5153C16.5451 15.9891 16.3908 15.6171 16.0823 15.3994C15.7738 15.1635 15.3383 15.0455 14.7758 15.0455C14.2314 15.0455 13.7415 15.1635 13.306 15.3994C12.8886 15.6171 12.5166 15.9891 12.19 16.5153L11.7817 16.2976C12.0902 15.7351 12.5529 15.236 13.1699 14.8005C13.7868 14.3469 14.5762 14.1201 15.5379 14.1201Z" fill="white"/>
</g>
<defs>
<clipPath id="clip0_7256_6054">
<rect width="36" height="24" fill="white"/>
</clipPath>
</defs>
</svg>
