<svg xmlns="http://www.w3.org/2000/svg" width="317" height="242" fill="none"><path fill="#fff" fill-opacity=".3" d="M127.32 199.02c.58 0 1.05-.14 1.4-.43.37-.28.55-.7.55-1.26 0-.44-.13-.81-.4-1.1a2.9 2.9 0 0 0-1.4-.73l-.9-.26a2.83 2.83 0 0 1-1.51-.93 2.46 2.46 0 0 1-.52-1.58c0-.42.1-.8.28-1.17.2-.37.5-.66.9-.89.4-.22.92-.33 1.55-.33.7 0 1.25.13 1.68.39.42.25.71.58.88.99.16.4.2.84.12 1.3l-1.1.24c.12-.8.03-1.42-.24-1.86-.27-.43-.74-.65-1.4-.65-.54 0-.95.15-1.26.43-.3.28-.45.69-.45 1.22 0 .43.12.8.36 1.1.25.29.68.52 1.3.7l.89.26c1.44.4 2.17 1.24 2.17 2.53 0 .46-.1.88-.33 1.25-.2.36-.53.65-.96.87-.42.22-.96.33-1.61.33a4.1 4.1 0 0 1-1.3-.21 2.42 2.42 0 0 1-1.05-.72c-.29-.33-.48-.8-.58-1.4l.78-.26c.05.57.17 1.01.38 1.33.21.3.47.53.78.66.31.12.64.18.99.18zm3.98-5.81v-.34h2v1.04c.26-.4.55-.7.87-.88a2.13 2.13 0 0 1 1.1-.29 2 2 0 0 1 1.72.85c.42.56.62 1.35.62 2.36v.26a3.6 3.6 0 0 1-.71 2.36c-.48.58-1.14.87-1.99.87a2.3 2.3 0 0 1-1.55-.56v2.14c0 .3.02.47.04.52.03.06.11.1.25.12l.97.07v.35h-3.32v-.35l.71-.07c.14-.02.22-.06.25-.12.02-.05.04-.22.04-.52v-7.1c0-.3-.02-.48-.04-.53-.03-.05-.11-.08-.25-.1l-.71-.08zm3.8 0c-.28 0-.56.09-.85.26a2.9 2.9 0 0 0-.89 1.05v3.72c.38.51.87.77 1.48.77.57 0 .98-.22 1.23-.64.25-.43.37-1.02.37-1.77v-1.04c0-.81-.11-1.4-.35-1.78a1.11 1.11 0 0 0-1-.57zm9.18 6.19c-.67 0-1.07-.31-1.2-.94a2.8 2.8 0 0 1-1 .76 2.87 2.87 0 0 1-1.07.22c-.6 0-1.06-.17-1.34-.51a1.83 1.83 0 0 1-.43-1.22c0-.51.17-.92.52-1.21.35-.3.97-.46 1.83-.46h1.47V195c0-.7-.12-1.17-.36-1.43a1.2 1.2 0 0 0-.96-.4c-.26 0-.5.05-.7.15-.21.1-.37.3-.46.58-.09.26-.1.66-.03 1.18l-1.02-.16c-.05-.4 0-.77.15-1.09.16-.33.4-.59.76-.78.35-.2.8-.3 1.32-.3.63 0 1.12.11 1.46.33.34.2.57.48.7.82.14.33.2.7.2 1.1v2.93c0 .44.06.71.15.83.1.11.22.17.34.17a.68.68 0 0 0 .25-.06c.08-.04.18-.1.28-.19l.24.32a2 2 0 0 1-.47.3 1.51 1.51 0 0 1-.63.1zm-2.9-.5c.23 0 .5-.07.77-.2.29-.14.6-.42.91-.82v-1.42h-1.32c-.49 0-.85.1-1.07.3-.22.19-.33.49-.33.9 0 .39.09.69.25.9.18.22.44.33.78.33zm7.61-5.74c-.48 0-.85.2-1.12.6-.26.39-.39 1.03-.39 1.93v.78c0 .91.13 1.57.4 1.97.26.39.7.58 1.3.58.4 0 .73-.1.98-.31.25-.2.42-.57.5-1.08l.7.2c-.16.58-.45 1-.86 1.24-.42.24-.88.37-1.4.37-.93 0-1.63-.3-2.1-.87a3.72 3.72 0 0 1-.69-2.36v-.26c0-.97.23-1.74.7-2.32a2.37 2.37 0 0 1 1.98-.89c.56 0 1.02.11 1.38.33.37.21.64.5.8.88.15.36.2.77.12 1.21l-1.02.16c.09-.7.03-1.23-.2-1.6-.22-.38-.58-.56-1.08-.56zm9.02 4.66c-.15.6-.45 1.01-.88 1.25a2.81 2.81 0 0 1-1.42.37c-.96 0-1.68-.3-2.16-.87a3.63 3.63 0 0 1-.71-2.36v-.26c0-.97.23-1.74.69-2.32.46-.6 1.12-.89 2-.89.47 0 .9.1 1.27.29.4.19.7.47.93.84.23.37.35.84.35 1.4 0 .25-.03.53-.08.81h-4v.4c0 .9.15 1.56.42 1.96.29.39.75.58 1.38.58.4 0 .73-.1.99-.31.27-.2.45-.57.53-1.08l.7.2zm-2.48-4.66c-.51 0-.9.2-1.15.58a3.7 3.7 0 0 0-.37 1.93h2.92v-.04a3.8 3.8 0 0 0 .05-.63c0-.65-.13-1.11-.4-1.4-.27-.3-.62-.44-1.05-.44zm6.63-3.12v-.35h2.06v8.56c0 .3.02.48.04.54.03.05.11.08.25.1l.72.08v.34h-3.07v-.34l.71-.08c.14-.02.22-.05.25-.1.03-.06.04-.23.04-.54v-7.51c0-.3-.01-.48-.04-.53-.03-.06-.1-.09-.25-.1l-.71-.07zm9.88 5.91v.26c0 .98-.25 1.77-.74 2.36-.49.58-1.18.87-2.08.87-.9 0-1.59-.3-2.08-.87a3.59 3.59 0 0 1-.73-2.36v-.26c0-.97.24-1.74.73-2.32.48-.6 1.18-.89 2.08-.89s1.6.3 2.08.89c.5.58.74 1.35.74 2.32zm-1.17-.26c0-.9-.15-1.54-.43-1.93a1.4 1.4 0 0 0-1.22-.6c-.53 0-.94.2-1.23.6-.27.39-.41 1.03-.41 1.93v.78c0 .91.14 1.57.41 1.97.3.39.7.58 1.23.58s.94-.2 1.22-.58c.28-.4.43-1.06.43-1.97v-.78zm8.48 4.37c0 .7-.25 1.22-.76 1.59-.5.37-1.2.56-2.11.56-.99 0-1.71-.18-2.17-.52-.46-.34-.7-.77-.72-1.3l.97-.19c-.04.48.09.86.37 1.15.3.3.81.44 1.55.44.66 0 1.19-.12 1.59-.36.4-.25.6-.6.6-1.07 0-.35-.11-.6-.34-.78-.24-.17-.62-.26-1.16-.26h-1.55c-.58 0-.99-.12-1.22-.36a1.2 1.2 0 0 1-.35-.84c0-.25.06-.48.18-.7.13-.22.33-.45.61-.66a2.13 2.13 0 0 1-.84-.72c-.22-.32-.33-.7-.33-1.15 0-.48.11-.87.33-1.19.22-.32.52-.56.88-.71a3.02 3.02 0 0 1 1.23-.25h.23c.47 0 .9.09 1.27.26l1.88-.65.15.98h-1.52a2.12 2.12 0 0 1 .65 1.56 2.02 2.02 0 0 1-1.21 1.89 3.07 3.07 0 0 1-1.22.24h-.23a3.26 3.26 0 0 1-.83-.1 1.2 1.2 0 0 0-.41.4.86.86 0 0 0-.12.43c0 .17.06.3.18.41.13.1.34.16.61.16h1.7c.68 0 1.2.15 1.57.44.36.3.54.73.54 1.3zm-3.01-3.46c.23 0 .44-.05.63-.15.2-.1.36-.28.48-.52.13-.26.19-.6.19-1.04 0-.45-.06-.8-.19-1.04a1.11 1.11 0 0 0-.48-.54 1.3 1.3 0 0 0-.63-.15h-.22c-.24 0-.45.05-.65.15-.2.1-.36.28-.49.54a2.4 2.4 0 0 0-.18 1.04c0 .44.06.78.18 1.04.13.24.29.41.49.52.2.1.41.15.65.15h.22zm9.96-.65v.26c0 .98-.25 1.77-.75 2.36-.48.58-1.18.87-2.08.87-.89 0-1.58-.3-2.08-.87a3.59 3.59 0 0 1-.72-2.36v-.26c0-.97.24-1.74.72-2.32.49-.6 1.18-.89 2.08-.89s1.6.3 2.08.89c.5.58.74 1.35.74 2.32zm-1.17-.26c0-.9-.15-1.54-.43-1.93a1.4 1.4 0 0 0-1.23-.6c-.52 0-.93.2-1.22.6-.27.39-.41 1.03-.41 1.93v.78c0 .91.14 1.57.41 1.97.29.39.7.58 1.22.58.54 0 .95-.2 1.23-.58.28-.4.43-1.06.43-1.97v-.78zm4.16 3.19c0 .39-.13.84-.4 1.36a7.42 7.42 0 0 1-1.05 1.58l-.28-.24c.35-.43.6-.83.76-1.2.16-.35.25-.67.26-.94h-.01a.69.69 0 0 1-.5-.2.69.69 0 0 1-.2-.5c0-.21.06-.38.2-.51a.69.69 0 0 1 .5-.2c.2 0 .38.08.5.22.15.14.22.35.22.63zm-95.5 7.94v-.35h3.61c.85 0 1.5.2 1.95.6.46.4.7.94.7 1.6v.41c0 .53-.16.98-.45 1.35-.29.37-.7.62-1.24.76l1.67 3.06.25.45c.05.07.1.13.14.15l.2.04.6.08v.34h-1.97l-2.06-4h-1.27v2.94c0 .3.01.48.04.54.03.05.1.08.25.1l.71.08v.34H93.8v-.34l.71-.08c.14-.02.22-.05.25-.1.03-.06.04-.23.04-.54v-6.73c0-.3-.01-.48-.04-.53-.03-.06-.1-.09-.25-.1l-.71-.07zm3.61.06h-1.48v4h1.48c.45 0 .8-.14 1.05-.42.26-.3.4-.74.4-1.33v-.5c0-.6-.13-1.03-.4-1.32-.25-.28-.6-.43-1.05-.43zm9.83 6.94c-.15.6-.45 1.01-.88 1.25a2.81 2.81 0 0 1-1.42.37c-.96 0-1.68-.3-2.16-.87a3.63 3.63 0 0 1-.71-2.36v-.26c0-.97.23-1.74.69-2.32.46-.6 1.12-.89 2-.89.47 0 .89.1 1.27.29.4.19.7.47.93.84.23.37.35.84.35 1.4 0 .25-.03.53-.08.81h-4v.4c0 .9.15 1.56.42 1.96.29.39.75.58 1.38.58.4 0 .73-.1.99-.31.27-.2.44-.57.53-1.08l.7.2zm-2.48-4.66c-.51 0-.9.2-1.15.58a3.68 3.68 0 0 0-.37 1.93h2.92v-.04a4.36 4.36 0 0 0 .05-.63c0-.65-.13-1.11-.4-1.4-.27-.3-.62-.44-1.05-.44zm10.73 5.8v.35h-2v-1.04c-.3.4-.65.7-1.04.9a2.64 2.64 0 0 1-1.15.27c-.61 0-1.1-.2-1.44-.59-.34-.4-.5-.96-.5-1.68v-3.25c0-.3-.02-.48-.05-.53-.02-.05-.1-.09-.24-.1l-.72-.07v-.35h2.07v4.3c0 .63.1 1.09.28 1.36.2.26.49.39.86.39.28 0 .58-.09.91-.26.34-.18.66-.51.95-1v-3.74c0-.3-.01-.48-.04-.53-.02-.06-.1-.1-.24-.1l-.98-.07v-.35h2.33v5.38c0 .3.01.48.04.54.02.05.1.08.24.1l.72.08zm.73-8.92v-.35h2.07v8.56c0 .3.01.48.04.54.03.05.1.08.25.1l.71.08v.34h-3.07v-.34l.72-.08c.14-.02.22-.05.25-.1.02-.06.04-.23.04-.54v-7.51c0-.3-.02-.48-.04-.53-.03-.06-.11-.09-.25-.1l-.72-.07zm9.44 7.78c-.15.6-.45 1.01-.88 1.25a2.81 2.81 0 0 1-1.42.37c-.96 0-1.68-.3-2.16-.87a3.63 3.63 0 0 1-.71-2.36v-.26c0-.97.23-1.74.69-2.32.46-.6 1.12-.89 2-.89.47 0 .9.1 1.27.29.4.19.7.47.93.84.23.37.35.84.35 1.4 0 .25-.03.53-.08.81h-4v.4c0 .9.15 1.56.42 1.96.29.39.75.58 1.38.58.4 0 .73-.1.99-.31.27-.2.45-.57.53-1.08l.7.2zm-2.48-4.66c-.51 0-.9.2-1.14.58a3.68 3.68 0 0 0-.38 1.93h2.92v-.04a4.36 4.36 0 0 0 .06-.63c0-.65-.14-1.11-.4-1.4-.28-.3-.63-.44-1.06-.44zm9.13 6.24c-.68 0-1.07-.31-1.2-.94a2.82 2.82 0 0 1-1 .76 2.87 2.87 0 0 1-1.08.22c-.6 0-1.05-.17-1.34-.51a1.83 1.83 0 0 1-.42-1.22c0-.51.17-.92.52-1.21.35-.3.96-.46 1.83-.46h1.47V211c0-.7-.12-1.17-.37-1.43a1.2 1.2 0 0 0-.96-.4c-.26 0-.5.05-.7.15-.2.1-.36.3-.46.58-.08.26-.1.66-.02 1.18l-1.03-.16c-.04-.4.01-.77.16-1.09.15-.33.4-.59.75-.78.36-.2.8-.3 1.33-.3.63 0 1.12.11 1.45.33.34.2.58.48.7.82.14.33.21.7.21 1.1v2.93c0 .44.05.71.15.83.1.11.21.17.33.17a.68.68 0 0 0 .25-.06 1.62 1.62 0 0 0 .29-.19l.23.32a1.8 1.8 0 0 1-.47.3 1.52 1.52 0 0 1-.62.1zm-2.91-.5c.24 0 .5-.07.78-.2.28-.14.59-.42.9-.82v-1.42h-1.32c-.48 0-.84.1-1.06.3-.22.19-.33.49-.33.9 0 .39.08.69.25.9.17.22.43.33.78.33zm11.53.07v.34h-2v-1.04c-.3.4-.65.7-1.04.9a2.63 2.63 0 0 1-1.15.27c-.61 0-1.1-.2-1.44-.59-.34-.4-.5-.96-.5-1.68v-3.25c0-.3-.02-.48-.05-.53-.02-.05-.1-.09-.24-.1l-.72-.07v-.35h2.07v4.3c0 .63.1 1.09.28 1.36.2.26.5.39.86.39.28 0 .58-.09.91-.26.34-.18.66-.51.95-1v-3.74c0-.3-.01-.48-.04-.53-.02-.06-.1-.1-.24-.1l-.98-.07v-.35h2.33v5.38c0 .3.01.48.04.54.02.05.1.08.24.1l.72.08zm2.96 0v.34h-2.47v-.34l.66-.08a.84.84 0 0 0 .21-.04.6.6 0 0 0 .17-.14c.06-.08.15-.2.26-.38l1.5-2.16-1.45-2.32a2.76 2.76 0 0 0-.25-.37.32.32 0 0 0-.15-.14.48.48 0 0 0-.2-.05l-.67-.07v-.35h3.05v.35l-.66.07c-.14.01-.2.05-.2.1s.07.2.24.46l1 1.6 1.1-1.6c.18-.25.26-.4.25-.46 0-.05-.06-.08-.2-.1l-.66-.07v-.35h2.47v.35l-.66.07a.59.59 0 0 0-.2.05.4.4 0 0 0-.18.14l-.26.37-1.4 2.02 1.52 2.46.23.38a.7.7 0 0 0 .16.14l.2.04.68.08v.34h-3.05v-.34l.66-.08c.14-.02.21-.05.21-.09 0-.04-.08-.2-.25-.47l-1.08-1.74-1.2 1.74a1.6 1.6 0 0 0-.25.47c0 .04.08.07.2.1l.67.07zm11.9-.99c-.12.5-.33.87-.6 1.1a1.6 1.6 0 0 1-1.07.36c-.42 0-.75-.1-1.01-.28a1.67 1.67 0 0 1-.58-.74 2.52 2.52 0 0 1-.18-.95v-3.55c0-.3-.01-.48-.04-.53-.01-.05-.1-.09-.24-.1l-.72-.07v-.35h1v-1.7l1.07-.22v1.92h2.12v.42h-2.12v4.29c0 .54.07.92.22 1.13a.73.73 0 0 0 .61.31c.25 0 .44-.1.57-.29.14-.19.24-.5.3-.93l.68.18zm6.28-.16c-.15.6-.45 1.01-.88 1.25a2.81 2.81 0 0 1-1.42.37c-.96 0-1.68-.3-2.16-.87a3.63 3.63 0 0 1-.71-2.36v-.26c0-.97.23-1.74.69-2.32.46-.6 1.12-.89 2-.89.47 0 .9.1 1.27.29.4.19.7.47.93.84.23.37.35.84.35 1.4 0 .25-.03.53-.08.81h-4v.4c0 .9.15 1.56.42 1.96.29.39.75.58 1.38.58.4 0 .73-.1.99-.31.27-.2.45-.57.53-1.08l.7.2zm-2.48-4.66c-.51 0-.9.2-1.15.58a3.7 3.7 0 0 0-.37 1.93h2.92v-.04a3.8 3.8 0 0 0 .06-.63c0-.65-.14-1.11-.4-1.4-.28-.3-.63-.44-1.06-.44zm8.06 4.82c-.13.5-.33.87-.6 1.1a1.6 1.6 0 0 1-1.07.36c-.42 0-.76-.1-1.02-.28a1.67 1.67 0 0 1-.57-.74 2.54 2.54 0 0 1-.18-.95v-3.55c0-.3-.01-.48-.04-.53-.02-.05-.1-.09-.25-.1l-.71-.07v-.35h1v-1.7l1.07-.22v1.92h2.11v.42h-2.11v4.29c0 .54.07.92.22 1.13a.73.73 0 0 0 .6.31c.26 0 .45-.1.58-.29.14-.19.24-.5.3-.93l.67.18zm.74-4.76v-.35h2v1.04c.3-.4.61-.7.91-.88a1.8 1.8 0 0 1 .95-.29c.28 0 .54.08.78.25.25.16.45.43.61.8l-.84.5a1.51 1.51 0 0 0-.44-.65.9.9 0 0 0-.55-.18c-.22 0-.43.07-.65.2-.2.14-.44.4-.7.78v3.81c0 .3.01.49.04.55.02.05.1.08.24.1l.98.07v.34h-3.33v-.34l.72-.08c.14-.02.22-.05.24-.1.03-.06.04-.23.04-.54v-4.33c0-.3-.01-.48-.04-.53-.02-.05-.1-.08-.24-.1l-.72-.07zm11.05 6.18c-.68 0-1.08-.31-1.2-.94a2.82 2.82 0 0 1-1 .76 2.87 2.87 0 0 1-1.08.22c-.6 0-1.05-.17-1.34-.51a1.83 1.83 0 0 1-.43-1.22c0-.51.17-.92.52-1.21.36-.3.97-.46 1.83-.46h1.47V211c0-.7-.12-1.17-.36-1.43a1.2 1.2 0 0 0-.96-.4c-.26 0-.5.05-.7.15-.21.1-.36.3-.46.58-.09.26-.1.66-.03 1.18l-1.02-.16a1.73 1.73 0 0 1 .91-1.87c.35-.2.8-.3 1.32-.3.63 0 1.12.11 1.46.33.34.2.57.48.7.82.14.33.2.7.2 1.1v2.93c0 .44.06.71.15.83.1.11.22.17.34.17a.68.68 0 0 0 .25-.06 1.62 1.62 0 0 0 .28-.19l.24.32a2 2 0 0 1-.47.3 1.52 1.52 0 0 1-.63.1zm-2.92-.5c.25 0 .5-.07.78-.2.29-.14.6-.42.91-.82v-1.42h-1.32c-.49 0-.84.1-1.07.3-.22.19-.32.49-.32.9 0 .39.08.69.24.9.18.22.44.33.78.33zm11.76.07v.34h-3.07v-.34l.71-.08c.14-.02.22-.05.25-.1.03-.06.04-.23.04-.54v-3.23c0-.65-.1-1.1-.31-1.36s-.5-.4-.89-.4c-.3 0-.61.09-.96.26s-.67.52-.97 1.03v3.7c0 .3 0 .48.03.54.03.05.11.08.25.1l.72.08v.34H181v-.34l.71-.08c.14-.02.22-.05.25-.1.03-.06.04-.23.04-.54v-7.51c0-.3-.01-.48-.04-.53-.03-.06-.1-.09-.25-.1l-.71-.07v-.35h2.07v4.17c.3-.39.65-.67 1.04-.85a2.72 2.72 0 0 1 1.15-.27c.64 0 1.14.2 1.48.6.35.39.52.94.52 1.66v3.25c0 .3.02.48.04.54.03.05.11.08.25.1l.72.08zm6.3-1.15c-.16.6-.46 1.01-.9 1.25a2.81 2.81 0 0 1-1.4.37c-.97 0-1.69-.3-2.17-.87a3.63 3.63 0 0 1-.71-2.36v-.26c0-.97.23-1.74.69-2.32.46-.6 1.12-.89 2-.89.47 0 .9.1 1.27.29.4.19.7.47.93.84.23.37.35.84.35 1.4 0 .25-.03.53-.08.81h-4v.4c0 .9.15 1.56.42 1.96.29.39.75.58 1.38.58.4 0 .73-.1.99-.31.27-.2.45-.57.53-1.08l.7.2zm-2.5-4.66c-.5 0-.88.2-1.13.58a3.7 3.7 0 0 0-.38 1.93h2.92v-.04a3.8 3.8 0 0 0 .06-.63c0-.65-.14-1.11-.4-1.4-.28-.3-.63-.44-1.06-.44zm10.5 5.82v.33h-2v-1.03c-.27.4-.56.7-.9.88-.31.19-.67.28-1.07.28-.75 0-1.33-.28-1.74-.84a4.01 4.01 0 0 1-.62-2.37v-.26c0-.98.24-1.76.72-2.34a2.44 2.44 0 0 1 1.99-.89c.61 0 1.13.2 1.56.57v-2.57c0-.3-.01-.48-.04-.53-.03-.06-.1-.09-.25-.1l-.71-.07v-.35h2.06v8.56c0 .3.02.48.04.54.03.05.11.08.25.1l.72.1zm-5.16-2.36c0 .81.12 1.4.36 1.79.24.38.57.57 1 .57.27 0 .56-.09.85-.26.3-.17.6-.52.89-1.05v-3.72a1.78 1.78 0 0 0-1.5-.77c-.55 0-.96.22-1.22.64a3.48 3.48 0 0 0-.38 1.76v1.04zm5.99-3.4v-.35h2v1.04c.3-.4.6-.7.9-.88.32-.2.64-.29.96-.29.27 0 .53.08.78.25.24.16.44.43.6.8l-.84.5a1.51 1.51 0 0 0-.44-.65.9.9 0 0 0-.55-.18c-.21 0-.43.07-.65.2-.2.14-.44.4-.7.78v3.81c0 .3.02.49.04.55.03.05.1.08.25.1l.97.07v.34h-3.32v-.34l.71-.08c.14-.02.22-.05.25-.1.02-.06.04-.23.04-.54v-4.33c0-.3-.02-.48-.04-.53-.03-.05-.11-.08-.25-.1l-.71-.07zm11.61 2.73v.26c0 .98-.24 1.77-.74 2.36-.49.58-1.18.87-2.08.87-.9 0-1.59-.3-2.08-.87a3.58 3.58 0 0 1-.73-2.36v-.26c0-.97.24-1.74.73-2.32a2.54 2.54 0 0 1 2.08-.89c.9 0 1.6.3 2.08.89.5.58.74 1.35.74 2.32zm-1.17-.26c0-.9-.14-1.54-.43-1.93a1.4 1.4 0 0 0-1.22-.6c-.53 0-.93.2-1.22.6-.28.39-.42 1.03-.42 1.93v.78c0 .91.14 1.57.42 1.97.28.39.7.58 1.22.58.54 0 .95-.2 1.22-.58.29-.4.43-1.06.43-1.97v-.78zm9.7 3.28v.34h-3.07v-.34l.71-.08c.14-.02.22-.05.25-.1.03-.06.04-.23.04-.54v-3.23c0-.65-.1-1.1-.31-1.36s-.51-.4-.9-.4c-.29 0-.6.09-.95.26s-.67.51-.97 1.02v3.71c0 .3 0 .48.03.54.03.05.11.08.25.1l.72.08v.34h-3.07v-.34l.71-.08c.14-.02.22-.05.25-.1.03-.06.04-.23.04-.54v-4.33c0-.3-.01-.48-.04-.53-.03-.05-.1-.09-.25-.1l-.71-.07v-.35h2v1.05c.31-.41.66-.71 1.05-.9a2.75 2.75 0 0 1 1.2-.28c.64 0 1.13.2 1.48.6.36.39.53.94.53 1.66v3.25c0 .3.02.48.04.54.03.05.11.08.25.1l.71.08z"/><path stroke="#fff" stroke-linecap="round" stroke-linejoin="round" stroke-miterlimit="10" stroke-width=".23" d="m132.6 120.18.09.05.1.06.09.05.08.05.1.05.09.06.1.05.09.05.09.05.09.05.09.05.09.05.09.05.09.05.1.05.18.1.09.04.09.05.1.05.09.05.09.05.1.05.08.04"/><path fill="#fff" fill-opacity=".31" d="m132.6 120.18.09.05.1.06.09.05.08.05.1.05.09.06.1.05.09.05.09.05.09.05.09.05.09.05.09.05.09.05.1.05.18.1.09.04.09.05.1.05.09.05.09.05.1.05.08.04v-17.23"/><path stroke="#fff" stroke-linecap="round" stroke-linejoin="round" stroke-miterlimit="10" stroke-width=".23" d="m132.6 120.18.09.05.1.06.09.05.08.05.1.05.09.06.1.05.09.05.09.05.09.05.09.05.09.05.09.05.09.05.1.05.18.1.09.04.09.05.1.05.09.05.09.05.1.05.08.04m23.65 5.73h.73l.27-.01h.24l.26-.01.5-.02.49-.02.51-.03.5-.03.48-.03.5-.05.5-.04.47-.05.5-.05.49-.06.51-.07.5-.07.47-.07.5-.08.5-.09.46-.08.5-.1.48-.09.51-.1.5-.12.46-.1M158.45 75.4l.48.28.52.31.5.3.47.3.5.33.49.32.51.35.5.35.47.34.51.37.49.37.47.36.5.4.48.38.51.43.5.42.47.41.5.45.5.45.5.48.5.49.48.47.51.52.47.5"/><path fill="#fff" fill-opacity=".31" d="M158.45 127.1h1.24l.26-.01.5-.02.49-.02.51-.03.5-.03.48-.03.5-.05.5-.04.47-.05.5-.05.49-.06.51-.07.5-.07.47-.07.5-.08.5-.09.46-.08.5-.1.48-.09.51-.1.5-.12.46-.1V84.77l-.47-.49-.5-.52-.49-.47-.5-.49-.5-.48-.5-.45-.5-.45-.47-.41-.5-.42-.51-.43-.48-.39-.5-.4-.47-.35-.49-.37-.5-.37-.48-.34-.5-.35-.51-.35-.49-.32-.5-.32-.47-.3-.5-.3-.52-.32-.48-.28"/><path stroke="#fff" stroke-linecap="round" stroke-linejoin="round" stroke-miterlimit="10" stroke-width=".23" d="M158.45 127.1h1.24l.26-.01.5-.02.49-.02.51-.03.5-.03.48-.03.5-.05.5-.04.47-.05.5-.05.49-.06.51-.07.5-.07.47-.07.5-.08.5-.09.46-.08.5-.1.48-.09.51-.1.5-.12.46-.1m-23.66 0 .48.1.53.12.49.1.47.1.5.1.49.08.51.09.5.08.48.07.5.07.5.06.46.06.5.05.48.05.52.05.49.04.47.03.5.04.5.02.51.02.5.02h.48l.24.01h.73m-11.82-42.33.47-.5.53-.54.49-.48.47-.46.5-.48.49-.44.51-.46.5-.43.48-.4.5-.43.5-.4.46-.36.5-.39.48-.36.52-.37.49-.36.47-.33.5-.34.5-.32.51-.33.5-.32.48-.3.5-.3.47-.27"/><path fill="#fff" fill-opacity=".31" d="m146.63 125.74.47.1.53.12.49.1.47.1.5.1.49.08.51.09.5.08.48.07.5.07.5.06.46.06.5.05.48.05.52.05.49.04.47.03.5.04.5.02.51.02.5.02h.48l.24.01h.73V75.4l-.46.27-.51.3-.48.3-.5.32-.52.33-.48.32-.5.35-.48.32-.5.36-.5.37-.49.36-.5.39-.47.37-.48.4-.51.41-.48.4-.5.44-.51.46-.48.45-.5.47-.48.46-.5.48-.52.54-.47.5"/><path stroke="#fff" stroke-linecap="round" stroke-linejoin="round" stroke-miterlimit="10" stroke-width=".23" d="m146.63 125.74.47.1.53.12.49.1.47.1.5.1.49.08.51.09.5.08.48.07.5.07.5.06.46.06.5.05.48.05.52.05.49.04.47.03.5.04.5.02.51.02.5.02h.48l.24.01h.73m-23.65-5.72.48.25.52.25.5.24.47.22.5.23.48.22.52.22.5.2.47.2.5.2.5.19.47.17.5.18.48.17.5.17.5.16.48.15.5.15.49.14.51.15.5.14.48.12.51.13.46.11m-11.82-20.49.48-1.5.52-1.49.5-1.28.47-1.14.5-1.14.48-1.03.52-1.03.5-.95.47-.86.5-.88.5-.82.47-.75.5-.77.48-.71.5-.73.5-.68.48-.63.5-.66.49-.6.51-.63.5-.58.48-.55.51-.57.46-.5"/><path fill="#fff" fill-opacity=".31" d="m134.8 121.38.48.25.52.25.5.24.47.22.5.23.48.22.52.22.5.2.47.2.5.2.5.19.47.17.5.18.48.17.5.17.5.16.48.15.5.15.49.15.51.14.5.14.48.12.51.13.46.11V84.77l-.46.5-.5.57-.49.54-.5.59-.51.63-.49.6-.5.66-.48.63-.5.68-.5.73-.48.71-.5.77-.47.75-.5.82-.5.88-.48.86-.5.95-.5 1.03-.49 1.03-.5 1.14-.48 1.14-.49 1.28-.52 1.49-.48 1.5"/><path stroke="#fff" stroke-linecap="round" stroke-linejoin="round" stroke-miterlimit="10" stroke-width=".23" d="m134.8 121.38.48.25.52.25.5.24.47.22.5.23.48.22.52.22.5.2.47.2.5.2.5.19.47.17.5.18.48.17.5.17.5.16.48.15.5.15.49.14.51.15.5.14.48.12.51.13.46.11m23.66 0 .48-.12.52-.13.49-.12.47-.13.5-.15.49-.14.52-.15.5-.16.47-.16.5-.17.5-.17.46-.17.5-.18.49-.19.5-.2.5-.2.48-.2.5-.21.49-.22.51-.24.5-.23.48-.23.5-.25.47-.24m-11.82-36.61.48.52.52.58.49.56.47.56.5.6.49.62.52.66.5.66.47.66.5.73.5.72.46.73.5.8.49.8.5.89.5.9.48.9.5 1.02.49 1.03.51 1.17.5 1.2.48 1.26.5 1.45.47 1.46"/><path fill="#fff" fill-opacity=".31" d="m170.28 125.74.48-.12.52-.13.49-.12.47-.13.5-.15.49-.14.52-.15.5-.16.47-.16.5-.17.5-.17.46-.17.5-.18.49-.19.5-.2.5-.2.48-.2.5-.21.49-.22.51-.24.5-.23.48-.23.5-.25.47-.24v-16.13l-.46-1.46-.51-1.45-.48-1.25-.5-1.21-.51-1.17-.49-1.03-.5-1.02-.48-.9-.5-.9-.5-.9-.49-.8-.5-.8-.47-.72-.48-.72-.51-.73-.48-.66-.5-.66-.51-.66-.48-.61-.5-.61-.48-.56-.49-.56-.52-.58-.48-.52"/><path stroke="#fff" stroke-linecap="round" stroke-linejoin="round" stroke-miterlimit="10" stroke-width=".23" d="m170.28 125.74.48-.12.52-.13.49-.12.47-.13.5-.15.49-.14.52-.15.5-.16.47-.16.5-.17.5-.17.46-.17.5-.18.49-.19.5-.2.5-.2.48-.2.5-.21.49-.22.51-.24.5-.23.48-.23.5-.25.47-.24m0 0 .1-.04.09-.06.1-.04.08-.05.1-.05.08-.05.1-.05.1-.04.08-.05.1-.06.09-.04.08-.05.1-.05.09-.05.1-.05.09-.05.08-.05.1-.06.09-.05.1-.05.08-.05.1-.05.09-.06.09-.05"/><path fill="#fff" fill-opacity=".31" d="m182.1 121.38.1-.04.09-.06.1-.04.08-.05.1-.05.08-.05.1-.05.1-.04.08-.05.1-.06.09-.04.08-.05.1-.05.09-.05.1-.05.09-.05.08-.05.1-.06.09-.05.1-.05.08-.05.1-.05.09-.06.09-.05v-.52l-.01-.2v-.33l-.01-.26v-.2l-.03-.58-.02-.51-.02-.4-.05-.76-.05-.59-.09-.96-.1-.84-.08-.69-.09-.65-.1-.62-.08-.54-.1-.53-.1-.52-.08-.46-.1-.46-.08-.41-.1-.42-.1-.4-.08-.38-.1-.38-.08-.34-.1-.35-.09-.35-.09-.32-.09-.32-.1-.34-.04-.15-.03-.08-.01-.05v-1.94"/><path stroke="#fff" stroke-linecap="round" stroke-linejoin="round" stroke-miterlimit="10" stroke-width=".23" d="m182.1 121.38.1-.04.09-.06.1-.04.08-.05.1-.05.08-.05.1-.05.1-.04.08-.05.1-.06.09-.04.08-.05.1-.05.09-.05.1-.05.09-.05.08-.05.1-.06.09-.05.1-.05.08-.05.1-.05.09-.06.09-.05"/><mask id="a" width="105" height="106" x="132" y="67" maskUnits="userSpaceOnUse" style="mask-type:luminance"><path fill="#fff" d="M132.38 67.88h103.79v104.16h-103.8V67.88z"/></mask><g mask="url(#a)"><path stroke="#fff" stroke-linecap="round" stroke-linejoin="round" stroke-miterlimit="10" stroke-width=".23" d="M236.01 120.18a51.73 51.73 0 0 0-51.7-51.7 51.73 51.73 0 0 0-51.71 51.7 51.73 51.73 0 0 0 51.7 51.7 51.72 51.72 0 0 0 51.71-51.7zm0 0c0-1.72-.08-3.45-.26-5.16"/></g><mask id="b" width="105" height="106" x="80" y="67" maskUnits="userSpaceOnUse" style="mask-type:luminance"><path fill="#fff" d="M80.74 67.88h103.98v104.16H80.74V67.88z"/></mask><g mask="url(#b)"><path stroke="#fff" stroke-linecap="round" stroke-linejoin="round" stroke-miterlimit="10" stroke-width=".23" d="M184.3 120.18a51.73 51.73 0 0 0-51.7-51.7 51.73 51.73 0 0 0-51.7 51.7c0 28.54 23.16 51.7 51.7 51.7s51.7-23.16 51.7-51.7zm0 0c0-1.72-.08-3.45-.25-5.16"/></g><path stroke="#fff" stroke-linecap="round" stroke-linejoin="round" stroke-miterlimit="10" stroke-width=".23" d="M210.16 75.4a51.73 51.73 0 0 0-51.7-51.7 51.73 51.73 0 0 0-51.72 51.7 51.73 51.73 0 0 0 51.71 51.7 51.73 51.73 0 0 0 51.7-51.7zm0 0c0-1.72-.09-3.45-.26-5.16"/><path stroke="#FBFBFB" stroke-opacity=".47" stroke-width=".61" d="m132.53 120.54 25.82-45.08 25.92 44.77-51.74.3z"/><path fill="#fff" d="M160.6 75.46a2.25 2.25 0 1 1-4.5 0 2.25 2.25 0 0 1 4.5 0zm25.82 44.87a2.25 2.25 0 1 1-2.25-2.25 2.25 2.25 0 0 1 2.25 2.25zm-51.63-.3a2.25 2.25 0 1 1-2.26-2.26 2.26 2.26 0 0 1 2.26 2.25zm22.1-2.57c.38-1.26.5-1.56.84-2.13.25-.42.46-.64.58-.64.05 0 .08.03.12.1.05.12.11.16.27.16.22 0 .33-.13.33-.36 0-.23-.14-.38-.34-.38-.18 0-.37.1-.56.3-.31.33-.6.75-.72 1.05l-.1.27.39-1.6-.02-.02-1.15.2v.13c.16-.04.2-.04.25-.04.16 0 .26.07.26.2 0 .1 0 .1-.12.6l-.6 2.16h.57zm9.22-15.98c.38-1.26.5-1.57.84-2.14.26-.4.46-.63.58-.63.05 0 .08.03.12.1.06.12.11.16.27.16.22 0 .33-.14.33-.37 0-.22-.14-.37-.34-.37-.18 0-.37.1-.56.3-.3.32-.6.75-.72 1.05l-.1.27.39-1.61-.02-.01-1.15.2v.13c.16-.04.2-.04.25-.04.17 0 .26.06.26.2 0 .1 0 .1-.11.6l-.6 2.16h.56zm-17.83 0c.39-1.26.51-1.57.85-2.14.25-.4.45-.63.58-.63.04 0 .07.03.11.1.06.12.12.16.27.16.22 0 .34-.14.34-.37 0-.22-.15-.37-.35-.37-.17 0-.37.1-.56.3-.3.32-.6.75-.72 1.05l-.1.27.39-1.61-.02-.01-1.15.2v.13c.17-.04.2-.04.25-.04.17 0 .26.06.26.2 0 .1 0 .1-.11.6l-.6 2.16h.56z"/></svg>
