<svg width="318" height="318" fill="none" xmlns="http://www.w3.org/2000/svg"><path fill="#fff" d="M0 0h149v149H0z"/><path d="M12.624 15.276v-.35h3.133v.35l-.715.065c-.139.018-.221.052-.247.104-.026.052-.039.23-.039.533v6.734c0 .303.013.481.039.533.026.052.108.087.247.104l.715.078v.338h-3.133v-.338l.715-.078c.139-.017.221-.052.247-.104.026-.052.039-.23.039-.533v-6.734c0-.303-.013-.48-.039-.533-.026-.052-.108-.087-.247-.104l-.715-.065zm6.954 5.863l-.793-.195c-1.084-.277-1.625-.901-1.625-1.872 0-.32.073-.624.22-.91.148-.286.382-.515.703-.689.33-.182.75-.273 1.26-.273.573 0 1.032.096 1.379.286.346.19.59.438.728.741.139.303.182.633.13.988l-1.014.182c.104-.563.043-1-.182-1.313-.217-.312-.576-.468-1.08-.468-.39 0-.701.1-.935.3-.234.19-.351.471-.351.844 0 .277.087.524.26.741.173.208.463.364.87.468l.82.195c.572.139 1.014.36 1.326.663.32.303.48.702.48 1.196 0 .555-.203 1.006-.61 1.352-.399.347-.97.52-1.716.52-.355 0-.702-.052-1.04-.156a2.405 2.405 0 0 1-.871-.52 2.159 2.159 0 0 1-.533-.936l.728-.26c.095.546.303.928.624 1.144.32.217.689.325 1.105.325.242 0 .472-.039.689-.117.225-.078.407-.2.546-.364.138-.173.208-.394.208-.663a.999.999 0 0 0-.286-.715c-.19-.2-.537-.364-1.04-.494zm6.157 0l-.793-.195c-1.083-.277-1.625-.901-1.625-1.872 0-.32.074-.624.221-.91.147-.286.381-.515.702-.689.33-.182.75-.273 1.261-.273.572 0 1.031.096 1.378.286.347.19.59.438.728.741.139.303.182.633.13.988l-1.014.182c.104-.563.043-1-.182-1.313-.217-.312-.576-.468-1.079-.468-.39 0-.702.1-.936.3-.234.19-.35.471-.35.844 0 .277.086.524.26.741.172.208.463.364.87.468l.82.195c.571.139 1.013.36 1.325.663.32.303.481.702.481 1.196 0 .555-.204 1.006-.61 1.352-.4.347-.972.52-1.717.52-.355 0-.702-.052-1.04-.156a2.405 2.405 0 0 1-.87-.52 2.16 2.16 0 0 1-.534-.936l.728-.26c.095.546.303.928.624 1.144.32.217.69.325 1.105.325.243 0 .472-.039.69-.117.224-.078.406-.2.545-.364.139-.173.208-.394.208-.663a.998.998 0 0 0-.286-.715c-.19-.2-.537-.364-1.04-.494zm10.37 2.288v.338h-2.003v-1.04c-.303.407-.65.706-1.04.897a2.636 2.636 0 0 1-1.144.273c-.615 0-1.096-.195-1.443-.585-.338-.398-.507-.957-.507-1.677v-3.25c0-.303-.013-.48-.039-.533-.026-.052-.108-.087-.247-.104l-.715-.065v-.35h2.067v4.29c0 .64.096 1.096.286 1.364.2.26.486.39.858.39.278 0 .581-.087.91-.26.338-.173.655-.507.95-1v-3.732c0-.303-.014-.48-.04-.533-.026-.06-.108-.095-.247-.104l-.975-.065v-.35h2.327v5.381c0 .303.013.481.04.533.025.052.108.087.246.104l.715.078zm6.365-1.144c-.156.59-.451 1.005-.884 1.248a2.805 2.805 0 0 1-1.417.364c-.962 0-1.682-.29-2.158-.87-.477-.59-.715-1.374-.715-2.354v-.26c0-.97.23-1.746.689-2.327.459-.59 1.126-.884 2.002-.884.468 0 .892.096 1.274.286.39.19.697.473.923.845.234.373.35.837.35 1.391 0 .26-.025.533-.077.82h-3.991v.39c0 .91.138 1.564.416 1.962.286.39.745.585 1.378.585.398 0 .728-.104.988-.312.268-.208.446-.568.533-1.079l.689.195zm-2.483-4.667c-.512 0-.893.195-1.144.585-.252.39-.377 1.032-.377 1.924h2.925v-.039a3.983 3.983 0 0 0 .052-.624c0-.65-.135-1.118-.403-1.404-.27-.294-.62-.442-1.053-.442zM16.745 36.44c-.13.503-.334.871-.611 1.105-.277.234-.633.351-1.066.351-.416 0-.754-.09-1.014-.273-.26-.19-.45-.438-.572-.74a2.532 2.532 0 0 1-.182-.95v-3.549c0-.303-.013-.48-.039-.533-.017-.052-.1-.087-.247-.104l-.715-.065v-.35H13.3v-1.704l1.066-.22v1.923h2.119v.416h-2.119v4.29c0 .546.074.923.221 1.131a.73.73 0 0 0 .611.312c.251 0 .442-.095.572-.286.139-.19.238-.502.299-.936l.676.182zm.737-4.758v-.35h2.002v1.04c.304-.408.607-.703.91-.885.312-.19.629-.286.95-.286.277 0 .537.082.78.247.242.165.446.43.61.793l-.845.507c-.13-.312-.277-.529-.442-.65a.9.9 0 0 0-.546-.182c-.216 0-.433.07-.65.208-.208.139-.442.399-.702.78v3.81c0 .303.013.484.04.545.025.052.108.082.246.091l.975.078v.338h-3.328v-.338l.715-.078c.139-.017.221-.052.247-.104.026-.052.04-.23.04-.533v-4.329c0-.303-.014-.48-.04-.533-.026-.052-.108-.087-.247-.104l-.715-.065zm11.044 6.175c-.676 0-1.075-.312-1.196-.936a2.803 2.803 0 0 1-1.001.754 2.859 2.859 0 0 1-1.08.221c-.606 0-1.052-.169-1.338-.507-.286-.338-.43-.745-.43-1.222 0-.511.174-.914.52-1.209.356-.303.967-.455 1.834-.455h1.469V33.45c0-.693-.121-1.17-.364-1.43-.234-.268-.555-.403-.962-.403-.26 0-.494.052-.702.156-.208.104-.36.295-.455.572-.087.269-.096.663-.026 1.183l-1.027-.156c-.044-.407.008-.771.156-1.092.156-.33.407-.59.754-.78.355-.2.797-.299 1.326-.299.633 0 1.118.108 1.456.325.338.208.572.481.702.82.139.337.208.706.208 1.104v2.925c0 .442.047.72.143.832.104.113.216.17.338.17.078 0 .16-.018.247-.053.087-.043.182-.108.286-.195l.234.325c-.13.113-.286.208-.468.286a1.513 1.513 0 0 1-.624.117zm-2.912-.507c.242 0 .502-.065.78-.195.286-.139.59-.412.91-.819v-1.417h-1.326c-.486 0-.84.1-1.066.3-.217.19-.325.489-.325.896 0 .39.082.694.247.91.173.217.433.325.78.325zm7.618-5.733c-.476 0-.849.2-1.118.598-.26.39-.39 1.036-.39 1.937v.78c0 .91.13 1.565.39 1.963.269.39.702.585 1.3.585.408 0 .737-.104.988-.312.252-.208.42-.568.507-1.079l.69.195c-.157.59-.443 1.005-.859 1.248a2.71 2.71 0 0 1-1.39.364c-.937 0-1.639-.29-2.107-.87-.459-.59-.689-1.374-.689-2.354v-.26c0-.97.23-1.746.69-2.327.459-.59 1.122-.884 1.988-.884.555 0 1.014.108 1.378.325.373.217.637.511.793.884.156.364.2.767.13 1.21l-1.027.155c.096-.693.03-1.226-.195-1.599-.216-.372-.576-.559-1.079-.559zm3.393-3.12v-.35h2.067V34.8l2.457-2.496c.251-.251.385-.403.403-.455.017-.052-.048-.087-.195-.104l-.663-.065v-.35h2.509v.35l-.663.065a.683.683 0 0 0-.403.195c-.078.07-.204.19-.377.364l-1.43 1.443 1.91 3.042c.113.174.196.3.248.377a.59.59 0 0 0 .169.143c.052.017.121.03.208.04l.676.077v.338h-1.963l-1.976-3.276-.91.923v1.3c0 .303.013.481.039.533.026.052.108.087.247.104l.715.078v.338h-3.068v-.338l.715-.078c.138-.017.22-.052.247-.104.026-.052.039-.23.039-.533v-7.514c0-.303-.013-.48-.04-.533-.025-.052-.108-.087-.246-.104l-.715-.065zm12.878 7.787c-.156.59-.45 1.005-.884 1.248a2.805 2.805 0 0 1-1.417.364c-.962 0-1.682-.29-2.158-.87-.477-.59-.715-1.374-.715-2.354v-.26c0-.97.23-1.746.689-2.327.46-.59 1.126-.884 2.002-.884.468 0 .892.096 1.274.286.39.19.697.473.923.845.234.373.35.836.35 1.391 0 .26-.025.533-.077.82h-3.991v.39c0 .91.138 1.563.416 1.962.286.39.745.585 1.378.585.398 0 .728-.104.988-.312.268-.208.446-.568.533-1.079l.689.195zm-2.483-4.667c-.512 0-.893.195-1.144.585-.252.39-.377 1.032-.377 1.924h2.925v-.039a3.983 3.983 0 0 0 .052-.624c0-.65-.135-1.118-.403-1.404-.269-.294-.62-.442-1.053-.442zm3.775.065v-.35h2.002v1.04c.303-.408.607-.703.91-.885.312-.19.628-.286.949-.286.277 0 .537.082.78.247.242.165.446.43.61.793l-.844.507c-.13-.312-.277-.529-.442-.65a.9.9 0 0 0-.546-.182c-.217 0-.433.07-.65.208-.208.139-.442.399-.702.78v3.81c0 .303.013.484.039.545.026.052.108.082.247.091l.975.078v.338h-3.328v-.338l.715-.078c.139-.017.22-.052.247-.104.026-.052.039-.23.039-.533v-4.329c0-.303-.013-.48-.04-.533-.025-.052-.108-.087-.246-.104l-.715-.065z" fill="#000"/><rect x="72" y="97.636" width="6.727" height="6.727" rx="3.364" fill="#262626"/><rect x="92.182" y="97.636" width="6.727" height="6.727" rx="3.364" fill="#262626"/><rect x="72" y="97.636" width="6.727" height="6.727" rx="3.364" fill="#262626"/><rect width="67.273" height="6.727" rx="3.364" transform="matrix(1 0 0 -1 72 97.636)" fill="#262626"/><rect width="53.818" height="6.727" rx="3.364" transform="matrix(1 0 0 -1 78.727 90.91)" fill="#262626"/><rect width="40.364" height="6.727" rx="3.364" transform="matrix(1 0 0 -1 85.454 84.182)" fill="#262626"/><rect width="26.909" height="6.727" rx="3.364" transform="matrix(1 0 0 -1 92.182 77.455)" fill="#262626"/><rect x="92.182" y="97.636" width="6.727" height="6.727" rx="3.364" fill="#262626"/><rect x="112.364" y="97.636" width="6.727" height="6.727" rx="3.364" fill="#262626"/><rect x="102.273" y="64" width="6.727" height="67.273" rx="3.364" fill="#262626"/><rect x="95.546" y="131.273" width="6.727" height="6.727" rx="3.364" fill="#262626"/><rect x="88.818" y="124.545" width="6.727" height="6.727" rx="3.364" fill="#262626"/><rect x="132.545" y="97.636" width="6.727" height="6.727" rx="3.364" fill="#262626"/><g clip-path="url(#clip0_5327_23045)"><path fill="#262626" d="M169 0h149v149H169z"/><path d="M169 74.765v74h149v-149h-74v22.237c28.765.269 52 23.67 52 52.498 0 28.995-23.505 52.5-52.5 52.5-28.907 0-52.357-23.362-52.499-52.235H169zM185.342 25.13c-1.101 0-1.941-.368-2.522-1.105-.572-.737-.858-1.725-.858-2.964v-.975c0-.815.121-1.525.364-2.132.251-.607.62-1.079 1.105-1.417.485-.338 1.079-.507 1.781-.507.65 0 1.187.13 1.612.39.425.251.732.585.923 1.001.191.407.251.854.182 1.339l-1.118.273c.095-.832 0-1.469-.286-1.911-.286-.45-.724-.676-1.313-.676-.659 0-1.161.234-1.508.702-.338.468-.507 1.23-.507 2.288v2.275c0 1.066.182 1.833.546 2.301.364.468.906.702 1.625.702.286 0 .559-.048.819-.143.26-.104.481-.277.663-.52.182-.243.295-.58.338-1.014l.806.208c-.191.693-.529 1.183-1.014 1.469-.477.277-1.023.416-1.638.416zm10.855-.468V25h-3.068v-.338l.715-.078c.139-.017.221-.052.247-.104.026-.052.039-.23.039-.533V20.71c0-.641-.104-1.092-.312-1.352-.208-.269-.502-.403-.884-.403-.294 0-.615.087-.962.26-.346.173-.671.516-.975 1.027v3.705c0 .303.013.481.039.533.026.052.109.087.247.104l.715.078V25h-3.068v-.338l.715-.078c.139-.017.221-.052.247-.104.026-.052.039-.23.039-.533v-7.514c0-.303-.013-.481-.039-.533-.026-.052-.108-.087-.247-.104l-.715-.065v-.351h2.067v4.173c.304-.39.65-.672 1.04-.845a2.72 2.72 0 0 1 1.157-.273c.642 0 1.136.2 1.482.598.347.39.52.945.52 1.664v3.25c0 .303.013.481.039.533.026.052.109.087.247.104l.715.078zm6.115.429c-.676 0-1.075-.312-1.196-.936a2.8 2.8 0 0 1-1.001.754 2.862 2.862 0 0 1-1.079.221c-.607 0-1.053-.169-1.339-.507-.286-.338-.429-.745-.429-1.222 0-.511.173-.914.52-1.209.355-.303.966-.455 1.833-.455h1.469v-1.053c0-.693-.121-1.17-.364-1.43-.234-.269-.555-.403-.962-.403-.26 0-.494.052-.702.156-.208.104-.36.295-.455.572-.087.269-.095.663-.026 1.183l-1.027-.156a2.059 2.059 0 0 1 .156-1.092c.156-.33.407-.59.754-.78.355-.2.797-.299 1.326-.299.633 0 1.118.108 1.456.325.338.208.572.481.702.819.139.338.208.706.208 1.105v2.925c0 .442.048.72.143.832.104.113.217.169.338.169.078 0 .16-.017.247-.052.087-.043.182-.108.286-.195l.234.325c-.13.113-.286.208-.468.286a1.51 1.51 0 0 1-.624.117zm-2.912-.507c.243 0 .503-.065.78-.195.286-.139.589-.412.91-.819v-1.417h-1.326c-.485 0-.841.1-1.066.299-.217.19-.325.49-.325.897 0 .39.082.693.247.91.173.217.433.325.78.325zm8.866-.91c-.13.503-.333.871-.611 1.105-.277.234-.632.351-1.066.351-.416 0-.754-.091-1.014-.273-.26-.19-.45-.438-.572-.741a2.539 2.539 0 0 1-.182-.949v-3.549c0-.303-.013-.481-.039-.533-.017-.052-.099-.087-.247-.104l-.715-.065v-.351h1.001v-1.703l1.066-.221v1.924h2.119v.416h-2.119v4.29c0 .546.074.923.221 1.131a.73.73 0 0 0 .611.312c.252 0 .442-.095.572-.286.139-.19.239-.503.299-.936l.676.182zm3.481-1.3l-.793-.195c-1.084-.277-1.625-.901-1.625-1.872 0-.32.073-.624.221-.91a1.63 1.63 0 0 1 .702-.689c.329-.182.749-.273 1.261-.273.572 0 1.031.095 1.378.286.346.19.589.438.728.741.138.303.182.633.13.988l-1.014.182c.104-.563.043-1.001-.182-1.313-.217-.312-.577-.468-1.079-.468-.39 0-.702.1-.936.299-.234.19-.351.472-.351.845 0 .277.086.524.26.741.173.208.463.364.871.468l.819.195c.572.139 1.014.36 1.326.663.32.303.481.702.481 1.196 0 .555-.204 1.005-.611 1.352-.399.347-.971.52-1.716.52-.356 0-.702-.052-1.04-.156a2.398 2.398 0 0 1-.871-.52 2.151 2.151 0 0 1-.533-.936l.728-.26c.095.546.303.927.624 1.144.32.217.689.325 1.105.325.242 0 .472-.039.689-.117.225-.078.407-.2.546-.364.138-.173.208-.394.208-.663 0-.277-.096-.516-.286-.715-.191-.2-.538-.364-1.04-.494z" fill="#fff"/><path fill-rule="evenodd" clip-rule="evenodd" d="M231 49.5a4 4 0 0 0-8 0v4h-4a4 4 0 0 0 0 8 4 4 0 0 0 4-4v-4h8v4a4 4 0 0 0 8 0 4 4 0 0 0-4-4h-4v-4zm40 8a4 4 0 0 0-4-4 4 4 0 0 1-4-4 4 4 0 0 0-8 0v4a8 8 0 0 0 8 8h4a4 4 0 0 0 4-4zm-16 36a4 4 0 0 0-4-4h-4v-4a4 4 0 0 0-8 0 4 4 0 0 0 4 4h4v2a4 4 0 0 1-4 4 4 4 0 0 0 0 8h1a3 3 0 0 0 3-3 3 3 0 0 1 3-3h1a4 4 0 0 0 4-4z" fill="#fff"/></g><g clip-path="url(#clip1_5327_23045)"><path fill="#262626" d="M0 169h149v149H0z"/><path d="M.469 257l48.766-47.14h98.774v124.141H.469V257z" fill="#fff"/><path d="M150.102 257.139h-5.449a5.89 5.89 0 0 1-5.89-5.891v-3.251a2.639 2.639 0 0 1 2.639-2.639 2.64 2.64 0 0 0 2.64-2.64v-.228a2.674 2.674 0 0 0-2.674-2.674 2.674 2.674 0 0 1-2.674-2.674v-7.345c0-.966-.783-1.749-1.749-1.749h-4.187a.014.014 0 0 1-.01-.024c.009-.009.024-.002.024.01v15.555c0 .958-.777 1.734-1.734 1.734h-4.154c-.012 0-.019-.015-.01-.024.009-.009.025-.003.025.01v4.104c0 .947.767 1.714 1.714 1.714h1.16a2.875 2.875 0 0 1 2.875 2.875v5.797a8.562 8.562 0 0 1-17.123 0v-7.052c0-.887-.719-1.606-1.606-1.606h-4.234c-.014 0-.021-.017-.01-.026a.015.015 0 0 1 .025.011v4.04a1.849 1.849 0 0 1-1.848 1.849h-9.569c-.013 0-.02-.018-.01-.027.01-.008.026-.002.026.011v3.789c0 .957.776 1.734 1.733 1.734h3.85a5.583 5.583 0 0 1 5.583 5.583v4.723a1.46 1.46 0 0 1-1.461 1.461h-3.847c-.014 0-.021-.017-.01-.026a.015.015 0 0 1 .025.011v3.765c0 .951-.771 1.723-1.723 1.723H49.442a2.947 2.947 0 0 0 0 5.894h52.987c.89 0 1.612.721 1.612 1.612v4.249c0 .014-.018.02-.027.01a.015.015 0 0 1 .012-.025h8.583a2.826 2.826 0 0 0 2.826-2.826 2.827 2.827 0 0 1 2.826-2.827h.232a2.83 2.83 0 0 1 2.829 2.83v.09a2.74 2.74 0 0 0 5.48 0v-.135a2.874 2.874 0 0 1 2.874-2.874h.073a2.94 2.94 0 0 0 2.94-2.941v-1.33c0-.889.721-1.61 1.61-1.61h4.244c.014 0 .02.018.01.027a.015.015 0 0 1-.025-.012v-3.764c0-.952.771-1.723 1.723-1.723h1.065a2.788 2.788 0 0 0 2.788-2.788v-6.002a2.979 2.979 0 0 1 2.978-2.978h1.461c.838 0 1.517-.679 1.517-1.517v-3.998c0-.014.018-.021.027-.01l.017.02c.002.002.001.005-.002.005z" fill="#262626"/><path d="M86.79 268.44a.014.014 0 0 1-.024-.01v-4.05c0-.934-.758-1.692-1.692-1.692H49.346a2.864 2.864 0 1 0 0 5.728H86.78c.013 0 .02.016.01.024zM37.765 297.002a2.657 2.657 0 0 0 0-5.313H20.491a2.656 2.656 0 1 0 0 5.313h17.274zM40.394 259.793a2.667 2.667 0 0 0-2.667-2.667H26.022a2.667 2.667 0 0 0 0 5.334h11.705a2.667 2.667 0 0 0 2.667-2.667zM26.253 285.58a2.802 2.802 0 0 0 0-5.604h-5.645a2.802 2.802 0 1 0 0 5.604h5.645zM-2.285 296.988a2.643 2.643 0 0 0 0-5.286h-.435a2.643 2.643 0 1 0 0 5.286h.435zM46.475 294.373a2.664 2.664 0 0 0 2.664 2.664h.31a2.664 2.664 0 0 0 0-5.328h-.31a2.664 2.664 0 0 0-2.664 2.664z" fill="#262626"/><path d="M12.624 185.511v-.351h3.692c1.057 0 1.868.342 2.431 1.027.563.685.845 1.651.845 2.899v.975c0 1.257-.282 2.227-.845 2.912S17.373 194 16.316 194h-3.692v-.338l.715-.078c.139-.017.221-.052.247-.104.026-.052.039-.23.039-.533v-6.734c0-.303-.013-.481-.039-.533-.026-.052-.108-.087-.247-.104l-.715-.065zm3.666.065h-1.534v8.008h1.534c.468 0 .854-.087 1.157-.26.303-.173.529-.468.676-.884.156-.425.234-1.001.234-1.729v-2.275c0-.719-.078-1.287-.234-1.703-.147-.416-.373-.711-.676-.884-.303-.182-.689-.273-1.157-.273zm10.702 5.07v.26c0 .979-.247 1.764-.741 2.353-.486.581-1.179.871-2.08.871-.893 0-1.586-.29-2.08-.871-.486-.589-.728-1.374-.728-2.353v-.26c0-.971.242-1.746.728-2.327.485-.589 1.178-.884 2.08-.884.901 0 1.594.295 2.08.884.494.581.74 1.356.74 2.327zm-1.17-.26c0-.901-.143-1.547-.43-1.937-.277-.399-.684-.598-1.221-.598-.529 0-.936.199-1.222.598-.278.39-.416 1.036-.416 1.937v.78c0 .91.138 1.564.416 1.963.286.39.693.585 1.222.585.537 0 .944-.195 1.222-.585.286-.399.429-1.053.429-1.963v-.78zm5.468-2.535c-.477 0-.85.199-1.118.598-.26.39-.39 1.036-.39 1.937v.78c0 .91.13 1.564.39 1.963.269.39.702.585 1.3.585.407 0 .737-.104.988-.312.251-.208.42-.568.507-1.079l.689.195c-.156.589-.442 1.005-.858 1.248-.416.243-.88.364-1.391.364-.936 0-1.638-.29-2.106-.871-.46-.589-.689-1.374-.689-2.353v-.26c0-.971.23-1.746.689-2.327.46-.589 1.122-.884 1.989-.884.555 0 1.014.108 1.378.325.373.217.637.511.793.884.156.364.2.767.13 1.209l-1.027.156c.095-.693.03-1.226-.195-1.599-.217-.373-.576-.559-1.079-.559zm10.438 5.811V194h-2.002v-1.04c-.303.407-.65.706-1.04.897a2.636 2.636 0 0 1-1.144.273c-.615 0-1.096-.195-1.443-.585-.338-.399-.507-.958-.507-1.677v-3.25c0-.303-.013-.481-.039-.533-.026-.052-.108-.087-.247-.104l-.715-.065v-.351h2.067v4.29c0 .641.096 1.096.286 1.365.2.26.486.39.858.39.278 0 .581-.087.91-.26.338-.173.655-.507.95-1.001v-3.731c0-.303-.014-.481-.04-.533-.026-.061-.108-.095-.247-.104l-.975-.065v-.351h2.327v5.382c0 .303.013.481.04.533.025.052.108.087.246.104l.715.078zm7.965 0V194h-3.068v-.338l.715-.078c.138-.017.22-.052.247-.104.026-.052.039-.23.039-.533v-3.237c0-.641-.1-1.092-.3-1.352-.19-.269-.472-.403-.844-.403-.27 0-.572.087-.91.26-.33.173-.646.507-.95 1.001v3.731c0 .303.014.481.04.533.026.052.108.087.247.104l.715.078V194h-3.068v-.338l.715-.078c.138-.017.22-.052.247-.104.026-.052.039-.23.039-.533v-4.329c0-.303-.013-.481-.04-.533-.025-.052-.108-.087-.246-.104l-.715-.065v-.351h2.002v1.053c.303-.407.645-.706 1.027-.897.39-.191.775-.286 1.157-.286.936 0 1.538.429 1.807 1.287.32-.451.676-.776 1.066-.975a2.566 2.566 0 0 1 1.196-.312c.615 0 1.092.199 1.43.598.346.39.52.945.52 1.664v3.25c0 .303.013.481.039.533.026.052.108.087.247.104l.715.078V194h-3.068v-.338l.715-.078c.138-.017.22-.052.247-.104.026-.052.039-.23.039-.533v-3.237c0-.641-.1-1.092-.3-1.352-.19-.269-.472-.403-.844-.403-.27 0-.577.091-.923.273-.338.173-.66.516-.962 1.027.008.069.013.143.013.221.008.069.013.143.013.221v3.25c0 .303.013.481.039.533.026.052.108.087.247.104l.715.078zm10.36-1.144c-.156.589-.451 1.005-.884 1.248a2.802 2.802 0 0 1-1.417.364c-.962 0-1.682-.29-2.158-.871-.477-.589-.715-1.374-.715-2.353v-.26c0-.971.23-1.746.689-2.327.459-.589 1.126-.884 2.002-.884.468 0 .892.095 1.274.286.39.191.697.472.923.845.234.373.35.836.35 1.391 0 .26-.025.533-.077.819h-3.991v.39c0 .91.138 1.564.416 1.963.286.39.745.585 1.378.585.398 0 .728-.104.988-.312.268-.208.446-.568.533-1.079l.689.195zm-2.483-4.667c-.512 0-.893.195-1.144.585-.252.39-.377 1.031-.377 1.924h2.925v-.039a3.985 3.985 0 0 0 .052-.624c0-.65-.135-1.118-.403-1.404-.27-.295-.62-.442-1.053-.442zm11.042 5.811V194h-3.068v-.338l.715-.078c.138-.017.22-.052.247-.104.026-.052.039-.23.039-.533v-3.237c0-.641-.104-1.092-.312-1.352-.208-.269-.507-.403-.897-.403-.286 0-.603.087-.95.26-.346.173-.671.511-.974 1.014v3.718c0 .303.013.481.039.533.026.052.108.087.247.104l.715.078V194h-3.068v-.338l.715-.078c.138-.017.22-.052.247-.104.026-.052.039-.23.039-.533v-4.329c0-.303-.013-.481-.04-.533-.025-.052-.108-.087-.246-.104l-.715-.065v-.351h2.002v1.053c.312-.416.663-.715 1.053-.897a2.747 2.747 0 0 1 1.196-.286c.641 0 1.135.199 1.482.598.355.39.533.945.533 1.664v3.25c0 .303.013.481.039.533.026.052.108.087.247.104l.715.078zm5.046-.988c-.13.503-.334.871-.61 1.105-.278.234-.634.351-1.067.351-.416 0-.754-.091-1.014-.273a1.672 1.672 0 0 1-.572-.741 2.533 2.533 0 0 1-.182-.949v-3.549c0-.303-.013-.481-.039-.533-.017-.052-.1-.087-.247-.104l-.715-.065v-.351h1.001v-1.703l1.066-.221v1.924h2.12v.416h-2.12v4.29c0 .546.074.923.221 1.131a.73.73 0 0 0 .611.312c.251 0 .442-.095.572-.286.139-.191.238-.503.3-.936l.675.182zm3.48-1.3l-.793-.195c-1.083-.277-1.625-.901-1.625-1.872 0-.321.074-.624.221-.91.148-.286.382-.516.702-.689.33-.182.75-.273 1.261-.273.572 0 1.032.095 1.378.286.347.191.59.438.728.741.14.303.182.633.13.988l-1.014.182c.104-.563.044-1.001-.182-1.313-.216-.312-.576-.468-1.079-.468-.39 0-.702.1-.936.299-.234.191-.35.472-.35.845 0 .277.086.524.26.741.173.208.463.364.87.468l.82.195c.571.139 1.013.36 1.325.663.321.303.481.702.481 1.196 0 .555-.203 1.005-.61 1.352-.4.347-.971.52-1.717.52-.355 0-.702-.052-1.04-.156a2.412 2.412 0 0 1-.87-.52 2.165 2.165 0 0 1-.534-.936l.728-.26c.096.546.304.927.624 1.144.321.217.69.325 1.105.325.243 0 .473-.039.69-.117.225-.078.407-.199.545-.364.14-.173.208-.394.208-.663a.998.998 0 0 0-.286-.715c-.19-.199-.537-.364-1.04-.494z" fill="#fff"/></g><g clip-path="url(#clip2_5327_23045)"><path fill="#262626" d="M169 169h149v149H169z"/><path d="M231.536 254.628h7.522a8.133 8.133 0 0 0 8.133-8.133v-4.489a3.645 3.645 0 0 0-3.645-3.644 3.644 3.644 0 0 1-3.644-3.644v-.315a3.692 3.692 0 0 1 3.692-3.692 3.692 3.692 0 0 0 3.692-3.692v-10.14a2.415 2.415 0 0 1 2.415-2.415h5.78c.018 0 .027-.021.014-.033-.012-.012-.033-.003-.033.014v21.475a2.394 2.394 0 0 0 2.394 2.394h5.734c.018 0 .027-.021.014-.033a.02.02 0 0 0-.033.014v5.666a2.367 2.367 0 0 1-2.367 2.367h-1.602a3.968 3.968 0 0 0-3.968 3.969v8.004c0 6.528 5.292 11.82 11.82 11.82 6.528 0 11.82-5.292 11.82-11.82v-9.736c0-1.225.993-2.218 2.217-2.218h5.846c.019 0 .028-.024.013-.036a.02.02 0 0 0-.034.015v5.579a2.551 2.551 0 0 0 2.552 2.551h13.21c.019 0 .028-.024.013-.036a.02.02 0 0 0-.034.015v5.231a2.394 2.394 0 0 1-2.394 2.394h-5.314a7.708 7.708 0 0 0-7.709 7.708v6.521c0 1.114.903 2.017 2.017 2.017h5.312c.019 0 .028-.024.013-.036a.02.02 0 0 0-.034.015v5.198a2.379 2.379 0 0 0 2.379 2.379h73.182a4.068 4.068 0 1 1 0 8.137h-73.155a2.225 2.225 0 0 0-2.225 2.225v5.867c0 .019.024.028.037.014.011-.014.002-.035-.016-.035H283.3a3.902 3.902 0 0 1-3.902-3.902 3.901 3.901 0 0 0-3.902-3.901h-.32a3.906 3.906 0 0 0-3.906 3.906v.124a3.783 3.783 0 0 1-7.566 0v-.186a3.967 3.967 0 0 0-3.968-3.968h-.1a4.06 4.06 0 0 1-4.06-4.06v-1.836a2.222 2.222 0 0 0-2.222-2.223h-5.86c-.019 0-.028.024-.014.037.014.011.035.002.035-.016v-5.198a2.38 2.38 0 0 0-2.379-2.379h-1.47a3.85 3.85 0 0 1-3.85-3.849v-8.286a4.112 4.112 0 0 0-4.111-4.111h-2.017a2.095 2.095 0 0 1-2.095-2.096v-5.519c0-.019-.024-.028-.037-.014l-.024.028c-.002.002 0 .007.004.007z" fill="#fff"/><path d="M144.39 309.855c.004 0 .007-.004.007-.007v-7.845a7.851 7.851 0 0 1 7.852-7.851h27.608a3.988 3.988 0 0 0 3.988-3.988 3.988 3.988 0 0 1 3.988-3.988h15.998a3.883 3.883 0 0 1 3.883 3.883 3.883 3.883 0 0 0 3.883 3.883h4.169a7.708 7.708 0 0 0 7.708-7.709v-3.639a4.07 4.07 0 0 1 4.069-4.069h.286a3.783 3.783 0 0 1 3.783 3.783 3.782 3.782 0 0 0 3.783 3.782h12.074a.02.02 0 0 0 .014-.036.021.021 0 0 0-.035.016v19.883a3.787 3.787 0 0 1-3.787 3.787 3.788 3.788 0 0 0-3.788 3.787v.234c0 2.221-1.824 4.021-4.044 4.021-2.248 0-4.093-1.821-4.093-4.069v-7.25a4.07 4.07 0 0 0-4.069-4.069h-.415a3.654 3.654 0 0 0-3.654 3.654 3.654 3.654 0 0 1-3.654 3.654h-.19a3.73 3.73 0 0 1-3.731-3.73 3.73 3.73 0 0 0-3.73-3.73h-8.638a3.993 3.993 0 0 1-3.993-3.993v-.277a3.715 3.715 0 1 0-7.431 0v.454a3.749 3.749 0 0 0 3.749 3.749c2.071 0 3.749 1.697 3.749 3.768 0 2.092 1.696 3.807 3.787 3.807h.172a3.958 3.958 0 0 1 3.959 3.959v.157a4.116 4.116 0 0 1-4.116 4.117h-7.508c-2.205 0-3.993-1.803-3.993-4.008 0-2.184-1.77-3.977-3.954-3.977a3.955 3.955 0 0 0-3.954 3.956 3.973 3.973 0 0 0 3.973 3.962c2.202 0 4.002 1.809 4.002 4.011 0 2.229-1.807 4.06-4.035 4.06H172.02a3.792 3.792 0 0 0-3.792 3.792 3.792 3.792 0 0 1-3.792 3.792h-8.538a3.735 3.735 0 1 1 0-7.47h.19a3.926 3.926 0 0 0 3.926-3.926v-.095c0-2.221 1.826-4.021 4.047-4.021 2.25 0 4.1-1.824 4.1-4.074v-.424c0-2.074 1.697-3.754 3.77-3.754 2.052 0 3.738-1.664 3.738-3.716a3.718 3.718 0 0 0-3.718-3.716 3.732 3.732 0 0 0-3.723 3.732 3.751 3.751 0 0 1-3.756 3.753l-20.071-.072c-.029 0-.044.036-.023.057l.008.008a.008.008 0 0 0 .004.002zM223.672 389.612a.01.01 0 0 0 .003-.007v-19.882a3.954 3.954 0 0 1 3.954-3.954 3.955 3.955 0 0 0 3.954-3.955v-27.823a7.842 7.842 0 0 1 7.842-7.842h3.773a4.07 4.07 0 0 0 4.069-4.069 4.07 4.07 0 0 1 4.069-4.069h.086a3.992 3.992 0 0 0 3.992-3.992 3.993 3.993 0 0 1 3.993-3.993h.086a4.078 4.078 0 0 1 4.078 4.079v19.571c0 .018.021.027.033.014.013-.012.004-.033-.014-.033h-5.733a2.395 2.395 0 0 0-2.395 2.395v21.474c0 .018.021.027.033.014.013-.012.004-.033-.014-.033h-5.673a2.37 2.37 0 0 1-2.369-2.37v-1.365c0-2.063-1.698-3.735-3.761-3.735-2.092 0-3.814 1.696-3.814 3.788v71.044a4.064 4.064 0 1 1-8.128 0v-33.092a2.225 2.225 0 0 0-2.225-2.225h-5.847a.028.028 0 0 0-.019.049l.013.011a.01.01 0 0 0 .014 0zM319.049 325.914c.002.002.001.007-.003.007h-5.427a2.253 2.253 0 0 1-2.253-2.253v-1.687a3.94 3.94 0 0 0-3.94-3.94h-.114a4.056 4.056 0 0 1-4.055-4.055v-.11a4.03 4.03 0 0 0-4.03-4.03h-1.905a2.126 2.126 0 0 1-2.126-2.126v-5.603c0-.02-.024-.029-.036-.014a.02.02 0 0 0 .015.034h51.799a3.783 3.783 0 1 1 0 7.566h-15.788a4.068 4.068 0 0 0-4.069 4.068 4.069 4.069 0 0 1-4.069 4.069h-1.844a2.225 2.225 0 0 0-2.225 2.225v5.85c0 .025.031.037.048.018l.016-.019c.002-.002.004-.002.006 0zM192.158 238.36c.013.012.034.002.034-.016-.047-9.489-.086-14.001-.133-23.507a2.968 2.968 0 0 0-2.967-2.967h-.997c-2.189 0-3.964-1.8-3.964-3.99 0-2.218 1.798-4.042 4.016-4.042h3.745a7.76 7.76 0 0 1 7.761 7.76v6.754a4.097 4.097 0 0 0 4.097 4.097h1.875c1.228 0 2.223.995 2.223 2.223v5.859c0 .02.023.028.036.014.012-.013.002-.035-.016-.035h-5.564a2.546 2.546 0 0 0-2.546 2.547v3.18a2.088 2.088 0 0 1-2.088 2.087h-5.499a.02.02 0 0 0-.013.036zM263.577 150.957a.006.006 0 0 0-.006.006v27.846a3.954 3.954 0 1 1-7.909 0v-25.447a2.339 2.339 0 0 1 2.339-2.339h5.565c.03 0 .045-.036.024-.057l-.008-.007c-.001-.002-.003-.002-.005-.002zM318.946 270.23c-.012-.012-.033-.003-.033.014v5.639a2.356 2.356 0 0 1-2.356 2.356h-21.544c-.019 0-.028.024-.013.037.013.012.034.002.034-.016v-5.486a2.51 2.51 0 0 1 2.511-2.51h21.387c.018 0 .026-.021.014-.034zM231.473 206.789c-.012-.012-.003-.033.014-.033h5.673a2.37 2.37 0 0 0 2.37-2.369v-21.424a.02.02 0 0 1 .033-.014c.013.012.004.033-.013.033h-8.043v23.794c0 .017-.021.026-.034.013zM168.18 262.157c0 .004.004.007.007.007h19.737a3.955 3.955 0 0 1 0 7.909h-17.338a2.339 2.339 0 0 1-2.339-2.339v-5.566c0-.029-.036-.044-.057-.023l-.008.007-.002.005zM279.355 317.95c-.013.012-.004.033.014.033h13.302a2.372 2.372 0 0 1 2.372 2.372v5.68c0 .018.021.026.034.014.012-.012.003-.033-.014-.033h-5.309a2.219 2.219 0 0 0-2.219 2.218v1.545a3.764 3.764 0 0 1-3.763 3.764h-.31a4.074 4.074 0 0 1-4.074-4.074v-11.506c0-.017-.021-.026-.033-.013zM263.58 214.465l7.549-.086c.019 0 .028-.024.013-.036-.013-.012-.035-.003-.035.015v21.682c0 1.22-.988 2.208-2.207 2.208h-5.282c-.017 0-.026.021-.014.033a.02.02 0 0 0 .034-.014v-23.822c0-.017-.021-.026-.034-.014l-.026.027c-.003.002-.001.007.002.007zM303.178 159.046a.007.007 0 0 0-.007.007v11.642a3.959 3.959 0 1 1-7.918 0v-9.24a2.342 2.342 0 0 1 2.342-2.342h5.572c.03 0 .044-.036.023-.057l-.007-.008-.005-.002z" fill="#fff"/><path d="M279.216 198.571v13.536a2.215 2.215 0 0 1-2.214 2.215h-5.839a.02.02 0 0 0-.014.036c.013.012.035.002.035-.016v-13.48c0-1.223.991-2.215 2.214-2.215h5.808c.03 0 .044-.037.021-.057l-.004-.003a.024.024 0 0 1-.007-.016zM231.473 206.789c.013.013.004.034-.013.034h-5.599a2.339 2.339 0 0 0-2.339 2.338v9.262a3.958 3.958 0 1 0 7.918 0v-11.62c0-.017.021-.026.033-.014zM295.096 238.271c.012.013.033.004.033-.014v-11.582a3.959 3.959 0 1 1 7.918 0v9.224a2.339 2.339 0 0 1-2.338 2.339h-5.599c-.018 0-.027.021-.014.033zM318.807 190.462v14.08a2.204 2.204 0 0 1-2.204 2.205h-5.275c-.018 0-.027.021-.014.033a.02.02 0 0 0 .033-.014v-14.189c0-1.136.922-2.058 2.058-2.058h5.423a.02.02 0 0 0 .014-.036l-.027-.024c-.003-.003-.008-.001-.008.003zM207.805 262.131c-.012.013-.004.034.014.034h5.585a2.333 2.333 0 0 1 2.334 2.333v1.635a3.95 3.95 0 0 1-3.95 3.95h-1.611a2.339 2.339 0 0 1-2.339-2.339v-5.599c0-.017-.021-.026-.033-.014zM311.271 246.366v5.793a2.24 2.24 0 0 1-2.241 2.24h-5.908c-.019 0-.028.024-.014.036.014.012.035.003.035-.015v-5.577a2.4 2.4 0 0 1 2.4-2.4h5.714c.03 0 .045-.036.024-.057l-.004-.004a.023.023 0 0 1-.006-.016zM223.427 246.519h5.903c1.224 0 2.215.992 2.215 2.215v5.838c0 .02.024.029.037.014.012-.013.002-.034-.016-.034h-5.848a2.216 2.216 0 0 1-2.215-2.216v-5.807a.032.032 0 0 0-.057-.021l-.003.004a.024.024 0 0 1-.016.007zM183.921 238.314c2.738.019 5.467.048 8.206.067.019 0 .028-.024.014-.037-.014-.011-.035-.002-.035.016v5.401a2.471 2.471 0 0 1-2.471 2.472h-3.318a2.339 2.339 0 0 1-2.339-2.339v-5.599a.02.02 0 0 0-.033-.014l-.027.027c-.002.002-.001.006.003.006zM279.355 317.95c.012-.013.003-.034-.014-.034h-5.593a2.336 2.336 0 0 1-2.336-2.336v-1.637a3.955 3.955 0 0 1 3.955-3.954h1.613a2.34 2.34 0 0 1 2.341 2.341v5.606c0 .017.021.026.034.014zM183.954 166.731c-.012.012-.003.034.014.034h5.586a2.333 2.333 0 0 1 2.333 2.333v1.635a3.95 3.95 0 0 1-3.95 3.95h-1.611a2.339 2.339 0 0 1-2.338-2.339v-5.599c0-.017-.021-.026-.034-.014zM287.421 190.547v5.792a2.24 2.24 0 0 1-2.241 2.241h-5.908c-.019 0-.028.024-.014.037.014.011.035.002.035-.016v-5.577a2.4 2.4 0 0 1 2.4-2.4h5.714c.03 0 .045-.036.024-.057l-.003-.003a.023.023 0 0 1-.007-.017zM255.671 194.579a3.906 3.906 0 0 1 3.902-3.907 3.906 3.906 0 1 1 0 7.813 3.906 3.906 0 0 1-3.902-3.906z" fill="#fff"/><path d="M207.805 262.131c.012-.012.003-.033-.014-.033h-5.592a2.336 2.336 0 0 1-2.336-2.336v-1.389a3.726 3.726 0 0 1 3.725-3.726h1.982c1.216 0 2.201.986 2.201 2.202v5.269c0 .017.022.026.034.013zM311.331 246.433a.007.007 0 0 0 .007-.007v-4.248a3.72 3.72 0 1 1 7.441 0v1.986a2.202 2.202 0 0 1-2.202 2.202h-5.235c-.03 0-.044.036-.023.057l.007.008.005.002zM231.465 182.949a.02.02 0 0 0-.014-.033h-5.255A2.196 2.196 0 0 1 224 180.72v-2.016a3.716 3.716 0 0 1 3.716-3.716h1.374a2.343 2.343 0 0 1 2.342 2.342v5.606c0 .017.021.026.033.013zM295.096 238.272c-.013-.013-.034-.004-.034.013v5.883a2.113 2.113 0 0 1-2.113 2.112h-5.568c-.019 0-.028.024-.014.037a.021.021 0 0 0 .035-.016v-5.733a2.263 2.263 0 0 1 2.263-2.263h5.417c.017 0 .026-.021.014-.033zM255.495 214.431c.012.012.033.003.033-.014v-5.255c0-1.213.983-2.196 2.196-2.196h3.65c1.213 0 2.196.983 2.196 2.196v5.255c0 .017.021.026.034.014.012-.012.003-.034-.014-.034h-8.081c-.018 0-.027.022-.014.034zM311.287 206.756c-.003 0-.006.003-.006.007v3.742a3.75 3.75 0 0 1-3.75 3.749h-.453a3.716 3.716 0 0 1-3.716-3.716v-1.374a2.342 2.342 0 0 1 2.342-2.341h5.572c.03 0 .045-.036.024-.057l-.008-.008a.008.008 0 0 0-.005-.002zM175.955 230.511h-5.427a2.215 2.215 0 0 1-2.215-2.215v-5.839a.02.02 0 0 0-.036-.013c-.012.013-.002.034.016.034h5.371c1.223 0 2.215.992 2.215 2.215v5.808c0 .03.037.044.057.021l.003-.004a.02.02 0 0 1 .016-.007zM183.988 238.247h-5.929a2.113 2.113 0 0 1-2.113-2.113v-5.568a.02.02 0 0 0-.036-.014c-.012.013-.003.035.015.035h5.724a2.263 2.263 0 0 1 2.263 2.263v5.383c0 .03.036.045.057.024l.003-.003a.024.024 0 0 1 .016-.007zM215.938 238.238h-5.922a2.11 2.11 0 0 1-2.111-2.111v-5.561a.02.02 0 0 0-.036-.014c-.012.013-.003.035.015.035h5.717a2.26 2.26 0 0 1 2.26 2.26v5.377c0 .03.036.044.057.023l.004-.003a.023.023 0 0 1 .016-.006zM215.871 238.305h5.321a2.244 2.244 0 0 1 2.244 2.244v5.915c0 .019.024.028.036.013a.02.02 0 0 0-.015-.034h-5.152a2.358 2.358 0 0 1-2.358-2.358v-5.766a.033.033 0 0 0-.057-.024l-.003.003a.02.02 0 0 1-.016.007zM168.204 174.83a.02.02 0 0 0 .014.034h5.254c1.213 0 2.197.983 2.197 2.196v2.016a3.716 3.716 0 0 1-3.716 3.715h-1.374a2.341 2.341 0 0 1-2.342-2.341v-5.606c0-.017-.021-.026-.033-.014zM287.48 190.615a.007.007 0 0 0 .007-.007v-3.771a3.723 3.723 0 0 1 3.723-3.721 3.718 3.718 0 0 1 3.718 3.716v1.514a2.202 2.202 0 0 1-2.202 2.202h-5.235c-.029 0-.044.036-.023.057l.008.008a.008.008 0 0 0 .004.002z" fill="#fff"/><path d="M255.472 218.486a4.088 4.088 0 0 1 8.176 0v15.741a4.087 4.087 0 1 1-8.176 0v-15.741z" fill="#262626"/><path d="M192.064 317.95c.012-.013.003-.034-.014-.034h-5.592a2.336 2.336 0 0 1-2.336-2.336v-1.628a3.954 3.954 0 0 1 3.954-3.954h1.616a2.339 2.339 0 0 1 2.338 2.339v5.599c0 .017.021.026.034.014zM199.696 302.208a.02.02 0 0 0-.014-.033h-5.255a2.196 2.196 0 0 1-2.196-2.196v-2.006a3.716 3.716 0 0 1 3.716-3.716h1.377a2.339 2.339 0 0 1 2.339 2.338v5.6c0 .017.021.026.033.013zM168.204 309.841c.012.012.033.003.033-.014v-5.255c0-1.213.983-2.196 2.196-2.196h1.53a3.715 3.715 0 0 1 3.715 3.716v1.516a2.198 2.198 0 0 1-2.199 2.199h-5.261a.02.02 0 0 0-.014.034z" fill="#060606"/><path d="M181.169 185.16h6.916v2.119h-.338l-.377-1.365a.593.593 0 0 0-.091-.221c-.026-.052-.082-.082-.169-.091a2.607 2.607 0 0 0-.442-.026h-1.469v7.371c0 .303.013.481.039.533.026.052.108.087.247.104l.715.078V194h-3.133v-.338l.715-.078c.139-.017.221-.052.247-.104.026-.052.039-.23.039-.533v-7.371h-1.482a2.75 2.75 0 0 0-.442.026c-.087.009-.147.039-.182.091a.875.875 0 0 0-.078.221l-.377 1.365h-.338v-2.119zm12.565 7.358c-.156.589-.45 1.005-.884 1.248a2.8 2.8 0 0 1-1.417.364c-.962 0-1.681-.29-2.158-.871-.476-.589-.715-1.374-.715-2.353v-.26c0-.971.23-1.746.689-2.327.46-.589 1.127-.884 2.002-.884.468 0 .893.095 1.274.286.39.191.698.472.923.845.234.373.351.836.351 1.391 0 .26-.026.533-.078.819h-3.991v.39c0 .91.139 1.564.416 1.963.286.39.746.585 1.378.585.399 0 .728-.104.988-.312.269-.208.447-.568.533-1.079l.689.195zm-2.483-4.667c-.511 0-.892.195-1.144.585-.251.39-.377 1.031-.377 1.924h2.925v-.039a4.032 4.032 0 0 0 .052-.624c0-.65-.134-1.118-.403-1.404-.268-.295-.619-.442-1.053-.442zm9.131 6.24c-.676 0-1.074-.312-1.196-.936a2.797 2.797 0 0 1-1.001.754 2.864 2.864 0 0 1-1.079.221c-.606 0-1.053-.169-1.339-.507-.286-.338-.429-.745-.429-1.222 0-.511.174-.914.52-1.209.356-.303.967-.455 1.833-.455h1.469v-1.053c0-.693-.121-1.17-.364-1.43-.234-.269-.554-.403-.962-.403-.26 0-.494.052-.702.156-.208.104-.359.295-.455.572-.086.269-.095.663-.026 1.183l-1.027-.156a2.06 2.06 0 0 1 .156-1.092 1.73 1.73 0 0 1 .754-.78c.356-.199.798-.299 1.326-.299.633 0 1.118.108 1.456.325.338.208.572.481.702.819.139.338.208.706.208 1.105v2.925c0 .442.048.719.143.832.104.113.217.169.338.169a.656.656 0 0 0 .247-.052c.087-.043.182-.108.286-.195l.234.325c-.13.113-.286.208-.468.286a1.51 1.51 0 0 1-.624.117zm-2.912-.507c.243 0 .503-.065.78-.195.286-.139.59-.412.91-.819v-1.417h-1.326c-.485 0-.84.1-1.066.299-.216.191-.325.49-.325.897 0 .39.083.693.247.91.174.217.434.325.78.325zm11.714.078V194h-3.068v-.338l.715-.078c.138-.017.221-.052.247-.104.026-.052.039-.23.039-.533v-3.237c0-.641-.1-1.092-.299-1.352-.191-.269-.473-.403-.845-.403-.269 0-.572.087-.91.26-.33.173-.646.507-.949 1.001v3.731c0 .303.013.481.039.533.026.052.108.087.247.104l.715.078V194h-3.068v-.338l.715-.078c.138-.017.221-.052.247-.104.026-.052.039-.23.039-.533v-4.329c0-.303-.013-.481-.039-.533-.026-.052-.109-.087-.247-.104l-.715-.065v-.351h2.002v1.053c.303-.407.645-.706 1.027-.897.39-.191.775-.286 1.157-.286.936 0 1.538.429 1.807 1.287.32-.451.676-.776 1.066-.975a2.562 2.562 0 0 1 1.196-.312c.615 0 1.092.199 1.43.598.346.39.52.945.52 1.664v3.25c0 .303.013.481.039.533.026.052.108.087.247.104l.715.078V194h-3.068v-.338l.715-.078c.138-.017.221-.052.247-.104.026-.052.039-.23.039-.533v-3.237c0-.641-.1-1.092-.299-1.352-.191-.269-.473-.403-.845-.403-.269 0-.577.091-.923.273-.338.173-.659.516-.962 1.027.008.069.013.143.013.221.008.069.013.143.013.221v3.25c0 .303.013.481.039.533.026.052.108.087.247.104l.715.078zm7.565-2.288l-.793-.195c-1.084-.277-1.625-.901-1.625-1.872 0-.321.073-.624.221-.91.147-.286.381-.516.702-.689.329-.182.749-.273 1.261-.273.572 0 1.031.095 1.378.286.346.191.589.438.728.741.138.303.182.633.13.988l-1.014.182c.104-.563.043-1.001-.182-1.313-.217-.312-.577-.468-1.079-.468-.39 0-.702.1-.936.299-.234.191-.351.472-.351.845 0 .277.086.524.26.741.173.208.463.364.871.468l.819.195c.572.139 1.014.36 1.326.663.32.303.481.702.481 1.196 0 .555-.204 1.005-.611 1.352-.399.347-.971.52-1.716.52-.356 0-.702-.052-1.04-.156a2.403 2.403 0 0 1-.871-.52 2.155 2.155 0 0 1-.533-.936l.728-.26c.095.546.303.927.624 1.144.32.217.689.325 1.105.325.242 0 .472-.039.689-.117.225-.078.407-.199.546-.364.138-.173.208-.394.208-.663 0-.277-.096-.516-.286-.715-.191-.199-.538-.364-1.04-.494z" fill="#fff"/></g><defs><clipPath id="clip0_5327_23045"><path fill="#fff" transform="translate(169)" d="M0 0h149v149H0z"/></clipPath><clipPath id="clip1_5327_23045"><path fill="#fff" transform="translate(0 169)" d="M0 0h149v149H0z"/></clipPath><clipPath id="clip2_5327_23045"><path fill="#fff" transform="translate(169 169)" d="M0 0h149v149H0z"/></clipPath></defs></svg>