<svg width="316" height="767" fill="none" xmlns="http://www.w3.org/2000/svg"><g clip-path="url(#clip0_5066_48376)"><path fill="#fff" fill-opacity=".15" d="M0 .232h316v766.116H0z"/><g filter="url(#filter0_d_5066_48376)"><g opacity=".9"><path d="M502.25 739.244c15.521-8.135-1.312-112.73-39.259-308.557 0-137.595 29.427-252.397-78.222-309.139C303.075 78.486 280.143 68.12 239.251 68.12c-40.85-1.746-82.964 12.699-116.281 28.786-61.87 29.875-112.22 67.978-98.491 100.422 17.955 42.435 120.594 18.227 155.507 9.25 12.373 14.649 61.546 35.789 92.62 35.789-11.538 39.515-39.632 127.695-33.355 215.571 7.846 109.845 22.054 242.258 17.744 255.189-4.311 12.93-36.821 17.03-36.821 26.117 0 14.81 59.646 11.66 86.844 5.83 27.198-5.83 33.595-5.558 37.714-15.134 6.993-16.258 3.618-103.424-6.124-246.941 1.638-67.043 10.072-137.381 11.825-185.103.82-22.31 8.036-10.775 8.036-10.775.687 10.305-3.402 109.622 11.92 204.288 21.672 88.026 43.197 194.565 48.558 221.447.782 3.916-.849 7.845-4.066 10.212-12.119 8.917-39.822 30.816-28.473 36.927 26.115 14.062 90.075-7.247 115.842-20.751z" fill="url(#paint0_linear_5066_48376)"/><path d="M502.25 739.244c15.521-8.135-1.312-112.73-39.259-308.557 0-137.595 29.427-252.397-78.222-309.139C303.075 78.486 280.143 68.12 239.251 68.12c-40.85-1.746-82.964 12.699-116.281 28.786-61.87 29.875-112.22 67.978-98.491 100.422 17.955 42.435 120.594 18.227 155.507 9.25 12.373 14.649 61.546 35.789 92.62 35.789-11.538 39.515-39.632 127.695-33.355 215.571 7.846 109.845 22.054 242.258 17.744 255.189-4.311 12.93-36.821 17.03-36.821 26.117 0 14.81 59.646 11.66 86.844 5.83 27.198-5.83 33.595-5.558 37.714-15.134 6.993-16.258 3.618-103.424-6.124-246.941 1.638-67.043 10.072-137.381 11.825-185.103.82-22.31 8.036-10.775 8.036-10.775.687 10.305-3.402 109.622 11.92 204.288 21.672 88.026 43.197 194.565 48.558 221.447.782 3.916-.849 7.845-4.066 10.212-12.119 8.917-39.822 30.816-28.473 36.927 26.115 14.062 90.075-7.247 115.842-20.751z" fill="url(#paint1_radial_5066_48376)" fill-opacity=".9"/><path d="M502.25 739.244c15.521-8.135-1.312-112.73-39.259-308.557 0-137.595 29.427-252.397-78.222-309.139C303.075 78.486 280.143 68.12 239.251 68.12c-40.85-1.746-82.964 12.699-116.281 28.786-61.87 29.875-112.22 67.978-98.491 100.422 17.955 42.435 120.594 18.227 155.507 9.25 12.373 14.649 61.546 35.789 92.62 35.789-11.538 39.515-39.632 127.695-33.355 215.571 7.846 109.845 22.054 242.258 17.744 255.189-4.311 12.93-36.821 17.03-36.821 26.117 0 14.81 59.646 11.66 86.844 5.83 27.198-5.83 33.595-5.558 37.714-15.134 6.993-16.258 3.618-103.424-6.124-246.941 1.638-67.043 10.072-137.381 11.825-185.103.82-22.31 8.036-10.775 8.036-10.775.687 10.305-3.402 109.622 11.92 204.288 21.672 88.026 43.197 194.565 48.558 221.447.782 3.916-.849 7.845-4.066 10.212-12.119 8.917-39.822 30.816-28.473 36.927 26.115 14.062 90.075-7.247 115.842-20.751z" fill="url(#paint2_radial_5066_48376)" fill-opacity=".6"/><path d="M502.25 739.244c15.521-8.135-1.312-112.73-39.259-308.557 0-137.595 29.427-252.397-78.222-309.139C303.075 78.486 280.143 68.12 239.251 68.12c-40.85-1.746-82.964 12.699-116.281 28.786-61.87 29.875-112.22 67.978-98.491 100.422 17.955 42.435 120.594 18.227 155.507 9.25 12.373 14.649 61.546 35.789 92.62 35.789-11.538 39.515-39.632 127.695-33.355 215.571 7.846 109.845 22.054 242.258 17.744 255.189-4.311 12.93-36.821 17.03-36.821 26.117 0 14.81 59.646 11.66 86.844 5.83 27.198-5.83 33.595-5.558 37.714-15.134 6.993-16.258 3.618-103.424-6.124-246.941 1.638-67.043 10.072-137.381 11.825-185.103.82-22.31 8.036-10.775 8.036-10.775.687 10.305-3.402 109.622 11.92 204.288 21.672 88.026 43.197 194.565 48.558 221.447.782 3.916-.849 7.845-4.066 10.212-12.119 8.917-39.822 30.816-28.473 36.927 26.115 14.062 90.075-7.247 115.842-20.751z" fill="url(#paint3_radial_5066_48376)" fill-opacity=".2"/><path d="M356.451 659.483c0-65.137-36.271-48.586-36.271-13.209 0 36.279-1.436 61.374-7.825 72.558-6.389 11.184-45.87 22.763-94.609 22.763" stroke="#000" stroke-width="1.3" stroke-linecap="round"/><path d="M272.862 243.897c-12.199 14.632-18.668 48.885-2.826 72.122 8.932 13.101 45.94 51.15 86.463 32.849 22.536-10.178 41.05-36.527 58.938-63.645 17.887-27.118-15.146-88.682-26.42-97.006 38.924 122.126-90.957 121.825-88.257 114.175 2.16-6.119 8.999-34.036 8.999-62.095-3.767-22.497-17.723-52.08-17.723-52.08s0 28.617-19.174 55.68z" fill="url(#paint4_radial_5066_48376)" fill-opacity=".5"/><path d="M135.292 149.489c-4.689-8.02-14.676-13.165-25.725-13.165" stroke="#000" stroke-opacity=".3" stroke-width="1.3" stroke-linecap="round"/><path d="M205.198 171.745c20.423 5.744 27.444 25.848 31.911 35.74 4.468 9.893-1.89 16.351-9.754 12.055" stroke="#000" stroke-width="1.3" stroke-linecap="round"/><path d="M192.754 182.913c13.721 3.191 32.994 25.352 35.75 31.925 1.486 3.546-3.302 8.489-10.578 5.658-3.191-1.242-8.799-5.116-9.76-6.019" stroke="#000" stroke-width="1.3" stroke-linecap="round"/><path d="M186.618 192.772c11.789 3.391 18.719 9.835 21.689 16.031 2.138 4.461-2.796 10.609-9.417 6.975-5.796-3.267-15.516-9.362-20.252-9.362-1.436 0-14.555 5.301-19.621 5.852" stroke="#000" stroke-width="1.3" stroke-linecap="round"/><path d="M162.41 155.114c-51.635-8.704.257 60.002-38.929 64.429" stroke="#000" stroke-opacity=".3" stroke-width="1.3" stroke-linecap="round"/><path d="M99.582 179.01l5.263 1.071c1.769.359 3.481-.898 3.805-2.673 1.464-8.031 7.139-27.719 27.591-27.719 0 0-9.358-4.385-16.79-3.275-20.518 3.062-22.37 18.063-22.251 29.741.014 1.394 1.015 2.577 2.382 2.855z" fill="url(#paint5_radial_5066_48376)" fill-opacity=".5"/><path d="M143.471 98.218c-10.645 21.064-3.295 45.565 4.681 54.461" stroke="#000" stroke-width="1.3" stroke-linecap="round"/><path d="M153.912 130.278c-42.197-16.743-68.04-70.84-45.485-127.687 22.556-56.849 77.777-92.855 114.241-78.387 42.197 16.742 58.119 76.4 35.563 133.248a150.079 150.079 0 0 1-5.013 11.27c4.468-.3 15.292 0 27.232 4.884-7.438 1.433-14.472-.023-13.504 7.992.443 3.666 12.757 6.278 17.154 7.45 4.053 1.081-4.556 8.692-11.516 14.199-4.894 3.873-11.066 5.54-17.247 6.402-32.354 4.508-32.726 32.656-41.325 55.996l-53.121-10.637c-5.17-13.603-6.979-24.73-6.979-24.73z" fill="url(#paint6_radial_5066_48376)"/><path d="M164.491 116.814c14.615-5.644 32.73-17.175 36.65-46.5 3.92-29.324-3.051-38.582-7.148-49.187-18.044-46.708-58.374-29.216-67.842.655-4.463 14.08-15.49 24.236-2.759 51.585 3.987 25.485 22.478 50.637 41.099 43.447z" fill="#F70000"/><path d="M154.494 43.606c-8.324.725-15.44-9.252-11.014-28.627-6.814 9.51-11.596 19.372-8.605 30.337 0 0-5.842-1.175-4.91-13.93-3.739 5.581-2.202 12.49-1.98 15.028-3.026-1.172-6.461-3.87-6.022-10.57-1.972 3.562-3.06 7.907-1.289 10.71-2.947 1.354-5.475-.035-5.531-3.914-.231-16.097 23.182-43.337 33.942-44.275 8.608-.75 31.998 28.859 38.892 44.081-2.184-.395-15.827 1.38-24.318 2.12-9.013.785-9.647-6.974-13.857-14.91-1.443 6.99 3.148 13.06 4.692 13.95z" fill="#fff"/><path d="M169.414 125.648c35.159-10.821 35.437-40.024 31.889-76.554-.337-3.464-1.658-8.263-1.961-11.747-3.767-43.222 7.005-70.538 13.927-85.648 12.154-26.531-14.701-35.086-44.358-11.912-29.657 23.175-63.853 54.015-59.579 123.557 2.561 29.38 31.264 71.173 60.082 62.304z" fill="url(#paint7_linear_5066_48376)"/><path d="M134.055 100.975c-8.587-8.253-11.473-16.74-14.159-36.395 1.622 3.523 1.383 4.285 3.569 8.823 1.607 6.467 2.655 16.108 10.59 27.572z" fill="#A16EBD"/><path d="M188.07 61.79c.787-20.63-24.4-51.65-45.496-49.811-20.964 1.827-25.793 22.022-27.093 27.46l-.024.102c-1.012 4.228.94 6.506 2.162 7.334 0 0-.574 6.17 1.203 13.8-3.118-6.916-8.386-22.988-4.793-35.203 4.491-15.27 21.559-38.994 52.505-40.181 13.378-.513 28.494 3.407 32.947 8.908-.895 5.615-1.352 16.806-1.566 18.975-.686 6.96 5.623 52.15 5.486 62.943-.123 9.613-4.315 25.88-11.123 33.959-16.67 19.781-33.996 12.45-38.369 11.753-3.499-.558-7.608-5.007-10.956-10.027 7.848 5.719 12.363 7.129 19.412 5.863 7.048-1.265 16.191-12.111 20.745-22.195 6.618-14.653 4.649-25.543 4.96-33.68z" fill="#7F52FF"/><path d="M188.07 61.79c.787-20.63-24.4-51.65-45.496-49.811-20.964 1.827-25.793 22.022-27.093 27.46l-.024.102c-1.012 4.228.94 6.506 2.162 7.334 0 0-.574 6.17 1.203 13.8-3.118-6.916-8.386-22.988-4.793-35.203 4.491-15.27 21.559-38.994 52.505-40.181 13.378-.513 28.494 3.407 32.947 8.908-.895 5.615-1.352 16.806-1.566 18.975-.686 6.96 5.623 52.15 5.486 62.943-.123 9.613-4.315 25.88-11.123 33.959-16.67 19.781-33.996 12.45-38.369 11.753-3.499-.558-7.608-5.007-10.956-10.027 7.848 5.719 12.363 7.129 19.412 5.863 7.048-1.265 16.191-12.111 20.745-22.195 6.618-14.653 4.649-25.543 4.96-33.68z" fill="url(#paint8_radial_5066_48376)"/><path d="M143.303 112.096c11.516 9.234 26.757 9.004 40.379-17.599-5.97 16.129-8.349 24.266-19.97 28.135-13.646 1.468-16.33-4.25-20.409-10.536z" fill="#7F52FF"/><path d="M165.03 5.856c4.946-8.874 9.979-14.73 21.455-18.76-17.503-5.021-27.43-3.024-40.162 3.044-4.652 2.416-12.744 7.314-15.345 14.65 8.63-4.456 23.937-2.843 34.052 1.066z" stroke="#fff" stroke-opacity=".8" stroke-width="1.3" stroke-linecap="round" stroke-linejoin="round"/><path d="M203.71 82.517c-4.802.922-7.317-.868-8.392-6.841l-3.95-20.311c-.503-5.768 3.766-10.852 9.534-11.355" stroke="#fff" stroke-opacity=".5" stroke-width="1.3"/><path d="M242.259 15.665l5.408 62.057c3.307-5.584 10.164-17.791 11.138-21.949l-3.593-41.229c-.374-4.288-4.737-7.036-8.766-5.52a6.491 6.491 0 0 0-4.187 6.64z" stroke="#000" stroke-width="1.3" stroke-linecap="round" stroke-linejoin="round"/><path d="M236.446 89.793c-18.257 24.123-47.921 41.074-65.198 41.074" stroke="#000" stroke-width="1.3" stroke-linecap="round"/><path d="M213.723-48.405c12.535-27.363-17.31-33.212-49.222-5.514-33.776 29.316-59.52 73.71-51.344 120.19 8.176 46.48 34.578 55.858 49.629 56.283 15.052.426 37.587-11.1 39.863-38.05" stroke="#FFBD00" stroke-width="1.3" stroke-linecap="round"/><path d="M126.639 52.576c11.562-2.152 13.306 14.08 13.537 32.42" stroke="#A81400" stroke-width="1.3" stroke-linecap="round"/><ellipse cx="2.581" cy="6.256" rx="2.581" ry="6.256" transform="scale(-1 1) rotate(10.632 -392.934 -677.794)" fill="#A81400"/><ellipse cx="3.141" cy="6.256" rx="3.141" ry="6.256" transform="scale(-1 1) rotate(10.632 -394.08 -875.202)" fill="#A81400"/><path d="M156.326 101.919c5.678-5.454 10.218-12.56 4.657-10.47-5.39 2.028-17.329 3.854-21.972.932.187 2.82 2.991 3.56 3.519 4.593 1.756 3.433 7.07 10.501 13.796 4.945z" fill="#A81400"/><path d="M144.241 96.695c1.074.337 6.67 1.544 13.613-1.186-1.782 1.077-4.388 3.801-7.345 4.059-1.909.166-4.677-.951-6.268-2.873z" fill="#fff"/><path d="M166.678 54.302c-6.167 2.451-16.143 4.209-16.48.285-.337-3.924.89-5.308 11.337-6.218 6.653-.58 14.877-1.296 20.65 4.582-2.096-.874-12.035-.03-15.507 1.351zM124.829 57.618c3.206.066 12.928 3.088 11.622-1.013-1.306-4.1-6.901-6.767-13.908-4.185-5.605 2.066-4.148 5.613-3.984 7.545 1.361-1.14 3.705-2.4 6.27-2.347z" fill="#A81400"/><path d="M214.896-50.817c-7.139 15.583-21.755 42.657-14.925 89.386 6.831 46.729 3.185 60.803-12.499 77.362-15.683 16.56-38.51 11.367-53.114-.895-14.604-12.263-23.835-34.326-25.491-53.321-5.255-60.303 24.581-91.651 54.047-117.226 31.912-27.698 64.518-22.669 51.982 4.694z" stroke="#FFBD00" stroke-width="1.3" stroke-linecap="round"/><path d="M247.085 25.233l.701 8.039" stroke="#FFBD00" stroke-width="1.3" stroke-linecap="round" stroke-linejoin="round"/><path d="M248.636 43.001l.701 8.04" stroke="#21D789" stroke-width="1.3" stroke-linecap="round" stroke-linejoin="round"/><path d="M98.598 143.024c36.061 2.233 33.822 7.658 48.185 9.573s66.697 11.169 79.142 18.189c12.446 7.021 18.233 32.359 9.743 32.359M271.333 243.621c13.333.169 25.666-1.11 37.469-5.738" stroke="#000" stroke-width="1.3" stroke-linecap="round"/><path d="M244.709 417.085c-1.896-6.223 7.441-10.85 22.592-28.609-2.788 4.463-7.802 12.945-10.965 18.212-1.888 3.144-1.952 11.143-1.955 14.639-3.394 1.527-7.775 1.981-9.672-4.242z" fill="#22252A"/><path d="M390.402 276.932c10.315-29.431 16.123-65.543-24.706-147.899-3.412-6.882-8.366-13.208-15.334-16.441-43.435-20.153-80.473 36.399-58.373 80.658 11.807 23.647 16.406 32.956 17.325 49.63.92 16.675-17.488 113.199-27.969 127.463-12.852 17.491-21.007 23.182-26.517 39.664-5.729 20.263 3.931 34.946 6.321 35.663 4.31 1.292 7.344-1.036 7.344-1.036 2.42 4.129 4.697 7.8 8.259 7.087 4.376-.876 7.309-2.571 6.122-9.682.38 2.276 2.847 8.685 9.112 4.236 3.06-2.173 1.846-7.824 2.705-11.291.865 4.32 7.708 5.357 10.108-3.48 4.129-15.202 19.187-28.388 29.844-39.545s44.601-83.194 55.759-115.027z" fill="url(#paint9_linear_5066_48376)"/><path d="M300.415 407.375c-9.988 13.11-6.869 25.597-5.619 29.03 1.25 3.434 8.49 3.244 10.615-6.243 4.055-18.105 30.833-35.216 44.998-60.465M268.586 402.268c-8.051 25.808.323 47.813 4.612 49.462 4.289 1.649 10.206-.814 10.535-5.761" stroke="#000" stroke-width="1.3" stroke-linecap="round"/><path d="M287.331 399.586c-7.162 19.597-7.167 22.235-7.164 27.134.002 4.899 1.885 16.582 4.525 20.351 2.639 3.769 13.104-.175 10.09-10.727" stroke="#000" stroke-width="1.3" stroke-linecap="round"/><path d="M314.228 91.583c-32.314 2.774-36.116 42.45-32.314 56.071M350.161 368.832c-45.869 17.848-65.854-.043-62.801-14.931" stroke="#000" stroke-opacity=".3" stroke-width="1.3" stroke-linecap="round"/><path d="M330.362 249.028c-9.257.946-19.136-.911-20.74-2.076" stroke="#000" stroke-width="1.3" stroke-linecap="round"/><path fill-rule="evenodd" clip-rule="evenodd" d="M335.902 290.563c.786-.265 1.622-.085 2.14.463l4.071 4.303c.451.477.593 1.162.377 1.817l-2.21 6.687a2.153 2.153 0 0 1-.412.725c.282.097.536.256.741.472l4.071 4.304c.451.477.593 1.161.376 1.817l-2.209 6.687c-.088.265-.23.512-.413.726.282.097.537.256.741.473l4.072 4.304c.451.476.593 1.161.376 1.816l-2.209 6.687a2.17 2.17 0 0 1-.412.725c.279.097.532.256.735.471l4.072 4.304c.451.476.592 1.161.376 1.816l-2.209 6.687c-.217.655-.762 1.192-1.447 1.423l-6.183 2.089c-.31.105-.627.14-.929.111.027.259-.002.529-.09.794l-2.209 6.687a2.18 2.18 0 0 1-.411.724c.281.097.535.256.739.472l4.072 4.304c.45.477.592 1.161.376 1.817l-2.209 6.686c-.217.656-.762 1.192-1.447 1.423l-6.184 2.09c-.786.265-1.622.085-2.14-.463l-4.071-4.304a1.706 1.706 0 0 1-.362-.578 2.37 2.37 0 0 1-.671.355l-6.183 2.089c-.787.266-1.623.085-2.141-.462l-4.071-4.304a1.727 1.727 0 0 1-.361-.576c-.2.151-.426.271-.669.354l-6.184 2.089c-.786.266-1.623.085-2.14-.462l-4.072-4.304a1.738 1.738 0 0 1-.362-.578 2.34 2.34 0 0 1-.67.355l-6.184 2.09c-.786.265-1.622.085-2.14-.463l-4.071-4.304c-.451-.476-.593-1.161-.376-1.816l2.209-6.687c.216-.655.761-1.192 1.446-1.423l6.184-2.089c.31-.105.628-.14.931-.111a1.912 1.912 0 0 1 .091-.794l2.209-6.687c.087-.265.229-.51.411-.724a1.838 1.838 0 0 1-.738-.472l-4.071-4.304c-.451-.476-.593-1.161-.377-1.816l2.21-6.687c.216-.655.761-1.192 1.446-1.423l6.184-2.089c.31-.105.628-.14.931-.111a1.927 1.927 0 0 1 .09-.794l2.21-6.687c.216-.655.761-1.192 1.446-1.423l6.184-2.089c.311-.105.629-.141.933-.111-.027-.26.002-.531.09-.797l2.209-6.686c.216-.656.762-1.192 1.446-1.423l6.184-2.09c.309-.104.626-.14.928-.111a1.934 1.934 0 0 1 .09-.795l2.21-6.686c.216-.656.761-1.192 1.446-1.424l6.184-2.089zm-29.765 48.047l-6.068 2.051-.048.015-.105.036c-.411.139-.738.46-.868.854l-2.209 6.686c-.13.394-.045.804.226 1.09l.085.09.015.016 3.983 4.211c.303.309.779.416 1.234.277l6.07-2.051.051-.016.101-.035c.411-.138.738-.46.868-.853l2.209-6.687c.13-.393.045-.804-.226-1.09l-4.071-4.304c-.303-.32-.786-.431-1.247-.29zm-6.319 1.322l6.068-2.05.048-.016.105-.035c.411-.139.738-.461.868-.854l2.209-6.687c.13-.393.045-.804-.226-1.09l-4.071-4.304c-.311-.328-.813-.436-1.284-.277l-6.184 2.089a1.378 1.378 0 0 0-.868.854l-2.209 6.687c-.13.393-.045.804.226 1.09l4.071 4.304c.303.32.786.431 1.247.289zm12.746 3.738c.026.259-.003.53-.09.795l-2.209 6.687a2.18 2.18 0 0 1-.411.724c.28.096.534.255.739.471l4.071 4.304c.16.17.282.365.362.577a2.35 2.35 0 0 1 .668-.354l6.184-2.09c.31-.105.628-.14.932-.111a1.892 1.892 0 0 1 .09-.793l2.209-6.686a2.16 2.16 0 0 1 .412-.725 1.842 1.842 0 0 1-.739-.472l-4.071-4.304a1.708 1.708 0 0 1-.362-.577 2.35 2.35 0 0 1-.668.354l-6.184 2.089c-.311.105-.63.141-.933.111zm-3.859 8.943c.461-.141.943-.03 1.246.29l4.071 4.304c.271.286.356.697.226 1.09l-2.209 6.686c-.13.394-.457.715-.868.854l-6.184 2.089c-.472.16-.974.051-1.284-.277l-4.072-4.304a1.076 1.076 0 0 1-.225-1.09l2.209-6.686c.13-.394.457-.716.868-.854l.101-.035.05-.016 6.071-2.051zm-8.196 1.605l.085.09c.271.286.356.696.226 1.09l-2.209 6.686c-.13.393-.457.715-.868.854l-6.184 2.089c-.471.16-.973.051-1.284-.277l-4.071-4.304a1.074 1.074 0 0 1-.226-1.09l2.209-6.687c.13-.393.457-.715.868-.854l6.184-2.089c.465-.157.96-.054 1.272.265l3.983 4.211.015.016zm21.284-35.768c-.311.105-.63.141-.934.111.027.26-.002.531-.089.797l-2.21 6.686a2.16 2.16 0 0 1-.41.724c.28.097.534.256.739.472l4.071 4.304c.16.169.282.365.362.577a2.35 2.35 0 0 1 .668-.354l6.184-2.089c.31-.105.628-.14.932-.111a1.894 1.894 0 0 1 .09-.794l2.209-6.686c.088-.266.23-.513.413-.727a1.842 1.842 0 0 1-.741-.472l-4.072-4.304a1.737 1.737 0 0 1-.361-.576 2.348 2.348 0 0 1-.668.353l-6.183 2.089zm9.839-10.199l.012-.037a1.38 1.38 0 0 1 .855-.816l6.183-2.09c.472-.159.974-.051 1.285.278l4.071 4.304c.271.286.356.696.226 1.09l-2.209 6.686c-.13.394-.457.715-.868.854l-6.184 2.089c-.472.16-.974.051-1.284-.277l-4.072-4.304a1.07 1.07 0 0 1-.237-1.052l.013-.038 2.209-6.687zm-4.448-6.12l-.052-.054-.051-.054a1.074 1.074 0 0 1-.226-1.09l2.209-6.686c.13-.394.457-.715.868-.854l6.184-2.089c.471-.16.973-.051 1.284.277l4.071 4.304c.271.286.356.697.226 1.09l-2.209 6.687c-.13.393-.457.715-.868.854l-6.184 2.089c-.451.152-.93.06-1.243-.236l-4.009-4.238zm.578 13.49c.398-.135.717-.44.855-.817l.012-.037 2.209-6.687.013-.037a1.071 1.071 0 0 0-.237-1.053l-.051-.054a1.324 1.324 0 0 1-.053-.053l-4.009-4.238c-.313-.296-.791-.389-1.243-.236l-6.184 2.089a1.374 1.374 0 0 0-.867.854l-2.21 6.687c-.13.393-.045.804.226 1.09l4.071 4.303c.311.329.813.437 1.285.278l6.183-2.089zm-11.014 11.157l-6.071 2.051c-.46.14-.943.029-1.245-.29l-4.071-4.304a1.074 1.074 0 0 1-.226-1.09l2.209-6.687c.13-.393.457-.715.868-.854l6.184-2.089c.471-.159.973-.051 1.284.278l4.071 4.303c.271.286.356.697.226 1.091l-2.209 6.686c-.13.393-.457.715-.868.854l-.102.034-.036.012-.014.005zm1.498 1.017c-.302-.319-.785-.43-1.245-.289l-6.071 2.051-.05.016-.101.034a1.378 1.378 0 0 0-.868.854l-2.209 6.687c-.13.393-.045.804.225 1.09l4.072 4.304c.31.328.812.436 1.284.277l6.184-2.089c.41-.139.737-.461.867-.854l2.21-6.687a1.079 1.079 0 0 0-.226-1.09l-4.072-4.304zm16.569 16.284l.065.065 4.018 4.247c.313.289.786.379 1.234.228l6.183-2.089c.411-.139.738-.461.868-.854l2.209-6.687c.13-.393.045-.804-.225-1.09l-4.072-4.304c-.294-.311-.76-.425-1.21-.3l-6.101 2.061a1.767 1.767 0 0 1-.096.03l-.061.021c-.39.132-.705.429-.847.796l-.018.058-2.209 6.686-.02.059c-.104.375-.014.76.243 1.031l.039.042zm-8.144 1.652l6.068-2.05.048-.015.105-.036c.391-.132.706-.429.847-.796l.019-.058 2.209-6.686.02-.059a1.07 1.07 0 0 0-.243-1.031l-.077-.081-.024-.025-3.989-4.217c-.312-.314-.803-.415-1.266-.259l-6.184 2.089c-.41.139-.738.461-.867.854l-2.21 6.687c-.13.393-.044.804.226 1.09l4.072 4.304c.302.32.786.431 1.246.289zm11.599 3.231l.039.041c.27.286.355.697.225 1.09l-2.209 6.687c-.13.393-.457.715-.868.853l-.143.049-.008.003-6.032 2.038-.007.002c-.458.152-.943.052-1.254-.256l-3.995-4.222a.291.291 0 0 0-.03-.031l-.07-.075a1.076 1.076 0 0 1-.225-1.09l2.209-6.686c.13-.394.457-.715.868-.854l.105-.036.048-.015 6.067-2.05c.436-.134.893-.042 1.197.239l4.018 4.248.065.065zm-2.744 9.461c.47-.156.969-.047 1.278.28l4.071 4.303c.271.286.356.697.226 1.091l-2.209 6.686c-.13.393-.457.715-.868.854l-6.184 2.089c-.471.16-.973.051-1.284-.277l-4.071-4.304a1.074 1.074 0 0 1-.226-1.09l2.209-6.687c.13-.393.457-.715.868-.854l.144-.048.008-.003 6.032-2.038.006-.002zm-8.148 1.609l.07.074c.27.286.355.697.225 1.09l-2.209 6.687c-.13.393-.457.715-.868.854l-6.183 2.089c-.472.159-.974.051-1.284-.278l-4.072-4.304a1.078 1.078 0 0 1-.226-1.09l2.21-6.686c.13-.393.457-.715.867-.854l6.184-2.089c.46-.156.949-.056 1.261.253l3.994 4.223.031.031zm4.913-29.916l-.077-.081a1.079 1.079 0 0 1-.226-1.09l2.21-6.687c.13-.393.457-.715.867-.854l6.184-2.089c.472-.16.974-.051 1.284.277l4.072 4.304c.27.286.355.697.225 1.09l-2.209 6.687c-.13.393-.457.715-.868.854l-.06.02-.096.03-6.102 2.062c-.44.122-.896.015-1.191-.281l-3.99-4.218-.023-.024z" fill="url(#paint10_radial_5066_48376)" fill-opacity=".5"/><path fill-rule="evenodd" clip-rule="evenodd" d="M96.77 211.655c.13.7-.124 1.389-.652 1.763l-4.152 2.941c-.46.326-1.059.364-1.59.101l-5.418-2.687a1.87 1.87 0 0 1-.566-.438 1.583 1.583 0 0 1-.491.572l-4.152 2.941c-.46.326-1.059.363-1.59.1l-5.418-2.687a1.86 1.86 0 0 1-.567-.439 1.574 1.574 0 0 1-.492.573l-4.152 2.941c-.46.326-1.058.364-1.59.1l-5.417-2.687a1.839 1.839 0 0 1-.567-.438 1.578 1.578 0 0 1-.489.569l-4.152 2.941c-.46.325-1.059.363-1.59.1l-5.418-2.687a1.972 1.972 0 0 1-1.035-1.402l-1.028-5.51a1.926 1.926 0 0 1 .018-.803 1.65 1.65 0 0 1-.664-.172l-5.418-2.687a1.87 1.87 0 0 1-.566-.438 1.574 1.574 0 0 1-.49.572l-4.152 2.941c-.46.326-1.06.364-1.59.1l-5.418-2.687a1.968 1.968 0 0 1-1.035-1.402l-1.028-5.51c-.131-.7.123-1.389.651-1.763l4.152-2.941c.164-.117.346-.196.535-.238a2.046 2.046 0 0 1-.22-.613l-1.028-5.51c-.131-.701.123-1.39.651-1.764l4.152-2.941a1.47 1.47 0 0 1 .534-.237 2.034 2.034 0 0 1-.22-.612l-1.029-5.51c-.13-.701.124-1.39.652-1.764l4.152-2.941c.163-.116.345-.195.534-.238a2.025 2.025 0 0 1-.22-.612l-1.029-5.51c-.13-.701.124-1.39.652-1.764l4.151-2.941c.46-.326 1.06-.364 1.59-.1l5.418 2.687c.532.263.922.791 1.035 1.401l1.029 5.51c.051.277.043.552-.019.806.224.009.45.066.664.173l5.418 2.686c.215.107.407.257.566.438.117-.227.283-.423.49-.571l4.152-2.941c.46-.325 1.06-.363 1.59-.1l5.418 2.687c.531.264.921.792 1.035 1.402l1.028 5.51c.052.277.044.551-.018.806.224.008.45.066.664.172l5.418 2.687c.531.264.921.792 1.035 1.402l1.029 5.51c.051.277.043.552-.02.807.225.008.452.066.667.173l5.418 2.687c.531.263.921.791 1.035 1.401l1.028 5.51c.052.276.044.55-.017.803.223.009.45.066.665.173l5.418 2.687c.53.263.92.791 1.035 1.402l1.028 5.51zm-37.25-31.117l-1.01-5.407a1.354 1.354 0 0 1-.007-.043l-.017-.093a1.182 1.182 0 0 0-.621-.841l-5.418-2.687a.922.922 0 0 0-.954.06l-.087.061a.149.149 0 0 1-.015.011l-4.062 2.877c-.3.22-.448.612-.385 1.015l1.01 5.41.008.045.017.09c.068.366.302.683.62.841l5.418 2.687a.924.924 0 0 0 .954-.06l4.152-2.941c.308-.218.461-.616.397-1.025zm-.36-5.532l1.01 5.406.007.043.017.094c.069.366.303.683.621.841l5.418 2.687a.924.924 0 0 0 .954-.06l4.152-2.941c.317-.225.47-.638.391-1.059l-1.028-5.51a1.182 1.182 0 0 0-.621-.841l-5.418-2.687a.922.922 0 0 0-.954.061l-4.152 2.941c-.308.218-.461.616-.397 1.025zm-4.72 10.384a1.64 1.64 0 0 1-.664-.173l-5.418-2.687a1.85 1.85 0 0 1-.566-.437 1.576 1.576 0 0 1-.49.572l-4.152 2.941a1.47 1.47 0 0 1-.533.237c.104.188.18.395.22.612l1.028 5.51c.052.276.043.551-.018.805.223.009.449.067.663.173l5.418 2.687c.215.106.407.256.566.437.117-.226.282-.423.49-.57l4.152-2.941c.164-.116.345-.196.534-.238a2.03 2.03 0 0 1-.22-.611l-1.028-5.51a1.926 1.926 0 0 1 .019-.807zm-7.136-4.362c.064.408-.089.805-.397 1.024l-4.151 2.941a.924.924 0 0 1-.954.06l-5.418-2.687a1.182 1.182 0 0 1-.621-.841l-1.028-5.51c-.079-.421.074-.834.39-1.059l4.152-2.941a.924.924 0 0 1 .954-.06l5.418 2.687c.319.158.553.475.621.841l.017.091.008.044 1.01 5.41zm-.373-7.162l-.086.061a.922.922 0 0 1-.954.06l-5.418-2.687a1.182 1.182 0 0 1-.621-.841l-1.029-5.51c-.078-.42.075-.834.392-1.058l4.151-2.941a.922.922 0 0 1 .954-.06l5.418 2.687c.319.158.553.475.621.841l1.028 5.51c.078.415-.07.823-.379 1.049l-4.061 2.878a.138.138 0 0 0-.016.011zm27.836 22.421a1.924 1.924 0 0 1 .018-.807 1.646 1.646 0 0 1-.666-.173l-5.418-2.687a1.851 1.851 0 0 1-.566-.437 1.572 1.572 0 0 1-.49.571l-4.152 2.941a1.474 1.474 0 0 1-.534.238c.104.188.18.395.22.612l1.028 5.509c.052.277.044.552-.018.806.223.009.45.066.664.173l5.418 2.687c.215.106.407.257.567.439a1.58 1.58 0 0 1 .492-.574l4.151-2.941c.164-.115.345-.195.534-.237a2.036 2.036 0 0 1-.22-.61l-1.028-5.51zm7.48 9.598l.031.015c.303.163.525.471.59.825l1.03 5.51c.078.421-.075.834-.392 1.059l-4.151 2.941a.924.924 0 0 1-.955.06l-5.417-2.687a1.182 1.182 0 0 1-.621-.841l-1.029-5.51c-.078-.421.075-.834.392-1.058l4.151-2.942a.92.92 0 0 1 .924-.074l.03.015 5.418 2.687zm5.743-3.041l.051-.038.052-.037a.924.924 0 0 1 .954-.06l5.418 2.687c.319.158.553.475.621.841l1.029 5.51c.078.42-.075.834-.392 1.058l-4.151 2.941a.922.922 0 0 1-.954.06l-5.418-2.687a1.182 1.182 0 0 1-.621-.841l-1.028-5.51c-.076-.402.061-.798.35-1.028l4.089-2.896zm-11.54-1.14c.067.355.288.663.591.826l.03.014 5.418 2.687.03.016a.92.92 0 0 0 .924-.075l.052-.037.052-.038 4.088-2.896c.29-.23.426-.626.351-1.028l-1.028-5.51a1.182 1.182 0 0 0-.621-.841l-5.418-2.687a.922.922 0 0 0-.954.06l-4.152 2.941c-.317.224-.47.638-.39 1.058l1.027 5.51zm-8.153-10.713l-1.01-5.41c-.064-.408.09-.805.397-1.024l4.152-2.941a.925.925 0 0 1 .954-.06l5.418 2.687c.318.158.552.475.62.841l1.03 5.51c.078.421-.075.834-.392 1.059l-4.152 2.941a.925.925 0 0 1-.954.06l-5.417-2.687a1.182 1.182 0 0 1-.621-.841l-.017-.091-.006-.032-.002-.012zm-1.047 1.15c.308-.218.461-.615.397-1.023l-1.01-5.41a3.034 3.034 0 0 1-.007-.044l-.017-.091a1.182 1.182 0 0 0-.62-.841l-5.419-2.687a.924.924 0 0 0-.954.06l-4.151 2.941c-.317.224-.47.638-.391 1.058l1.028 5.51c.068.366.302.683.62.841l5.419 2.687a.922.922 0 0 0 .954-.06l4.151-2.941zm-15.847 12.117l-.063.048-4.098 2.902c-.283.231-.417.623-.342 1.022l1.028 5.51c.068.366.302.683.62.841l5.419 2.687a.924.924 0 0 0 .954-.06l4.151-2.941c.3-.213.453-.595.402-.993l-1.015-5.436a1.973 1.973 0 0 1-.014-.086l-.01-.054a1.187 1.187 0 0 0-.574-.816.978.978 0 0 1-.047-.023l-5.418-2.687a.921.921 0 0 0-.954.058l-.04.028zm-.42-7.123l1.008 5.407.008.042.017.094c.065.348.28.652.575.817a.953.953 0 0 1 .047.022l5.418 2.687.047.024a.916.916 0 0 0 .906-.082l.078-.055.024-.017 4.068-2.882c.304-.227.45-.633.373-1.045l-1.028-5.51a1.182 1.182 0 0 0-.621-.841l-5.418-2.687a.922.922 0 0 0-.954.06l-4.152 2.941c-.308.218-.461.616-.397 1.025zm-4.15 9.47l-.04.028a.92.92 0 0 1-.954.06l-5.417-2.686a1.182 1.182 0 0 1-.621-.842l-.024-.127-.002-.008-1.003-5.374v-.006c-.075-.408.069-.809.368-1.036l4.073-2.885.03-.022.072-.051a.924.924 0 0 1 .954-.06l5.418 2.687c.318.158.552.475.62.841l.018.094.008.043 1.009 5.406c.06.387-.073.764-.349.989l-4.097 2.902a1.53 1.53 0 0 0-.063.047zm-7.712-3.476c.076.418-.077.829-.392 1.052l-4.152 2.941a.924.924 0 0 1-.954.06l-5.418-2.687a1.182 1.182 0 0 1-.62-.841l-1.029-5.51c-.079-.42.074-.834.391-1.058l4.152-2.941a.922.922 0 0 1 .954-.06l5.418 2.687c.318.158.552.475.62.841l.024.127.002.008 1.003 5.375.001.006zm-.382-7.123l-.072.051a.924.924 0 0 1-.954.06l-5.418-2.687a1.182 1.182 0 0 1-.62-.841l-1.03-5.51c-.078-.421.075-.834.392-1.059l4.152-2.941a.924.924 0 0 1 .954-.06l5.417 2.687c.32.158.553.475.621.841l1.029 5.51c.076.41-.067.814-.368 1.042l-4.073 2.885a.499.499 0 0 0-.03.022zm24.84 7.795l.078-.055a.922.922 0 0 1 .954-.06l5.418 2.687c.319.158.553.475.621.841l1.028 5.51c.079.42-.074.834-.39 1.058l-4.152 2.941a.922.922 0 0 1-.954.06l-5.418-2.687a1.182 1.182 0 0 1-.621-.841l-.01-.054a2.09 2.09 0 0 0-.014-.085l-1.015-5.437c-.05-.389.095-.764.383-.979l4.069-2.882.023-.017z" fill="url(#paint11_radial_5066_48376)" fill-opacity=".5"/><circle cx="6.754" cy="6.754" r="6.754" transform="matrix(-1 0 0 1 140.24 227.584)" fill="url(#paint12_radial_5066_48376)"/><path fill-rule="evenodd" clip-rule="evenodd" d="M305.552 540.009c.6-.574 1.434-.764 2.135-.488l5.512 2.173c.61.241 1.029.801 1.11 1.486l.833 6.993c.033.278.009.56-.066.831.296-.031.593.005.87.114l5.512 2.174c.61.24 1.029.8 1.11 1.486l.833 6.992c.033.279.009.562-.066.834.296-.032.594.004.872.114l5.511 2.173c.611.24 1.029.8 1.111 1.486l.832 6.993c.033.277.009.56-.066.831.294-.031.59.006.866.115l5.511 2.173c.611.24 1.029.8 1.111 1.486l.832 6.993c.082.685-.185 1.402-.707 1.902l-4.716 4.512a2.225 2.225 0 0 1-.793.494c.133.224.221.48.254.758l.833 6.992c.033.277.009.56-.066.831a1.83 1.83 0 0 1 .87.114l5.512 2.173c.61.24 1.029.8 1.11 1.486l.833 6.993c.081.685-.185 1.402-.707 1.902l-4.716 4.512c-.6.574-1.434.765-2.135.489l-5.511-2.174a1.708 1.708 0 0 1-.573-.37 2.364 2.364 0 0 1-.457.605l-4.716 4.513c-.599.574-1.433.765-2.134.488l-5.512-2.173a1.697 1.697 0 0 1-.571-.369 2.383 2.383 0 0 1-.456.605l-4.716 4.512c-.6.574-1.434.765-2.135.488l-5.511-2.173a1.706 1.706 0 0 1-.573-.369 2.36 2.36 0 0 1-.456.605l-4.716 4.513c-.6.574-1.434.765-2.135.488l-5.511-2.173c-.611-.24-1.029-.8-1.111-1.486l-.832-6.993c-.082-.685.185-1.402.707-1.902l4.716-4.512c.236-.227.509-.394.796-.496a1.918 1.918 0 0 1-.254-.757l-.833-6.992a2.16 2.16 0 0 1 .066-.831 1.853 1.853 0 0 1-.869-.114l-5.511-2.174c-.611-.24-1.029-.8-1.111-1.486l-.832-6.993c-.082-.685.185-1.402.707-1.901l4.716-4.513a2.22 2.22 0 0 1 .797-.495 1.914 1.914 0 0 1-.255-.758l-.833-6.993c-.081-.685.185-1.402.707-1.902l4.716-4.512c.237-.227.511-.394.798-.496a1.919 1.919 0 0 1-.256-.76l-.832-6.992c-.082-.686.185-1.403.707-1.902l4.716-4.513c.235-.226.507-.392.793-.494a1.914 1.914 0 0 1-.255-.758l-.832-6.993c-.082-.686.184-1.402.707-1.902l4.715-4.513zm-6.6 56.133l-4.627 4.428-.037.035-.08.077a1.375 1.375 0 0 0-.424 1.141l.832 6.992c.049.412.3.748.666.892l.115.045.021.008 5.392 2.126c.406.153.882.048 1.235-.271l4.63-4.43.038-.036.078-.074c.313-.3.473-.73.424-1.142l-.833-6.992a1.074 1.074 0 0 0-.666-.892l-5.512-2.173c-.409-.162-.894-.057-1.252.266zm-5.163 3.875l4.627-4.428.037-.035.08-.076c.314-.3.473-.73.424-1.142l-.832-6.992a1.074 1.074 0 0 0-.666-.892l-5.512-2.173c-.421-.166-.921-.051-1.281.293l-4.715 4.512c-.314.3-.474.73-.425 1.142l.833 6.992c.049.412.3.748.666.892l5.512 2.173c.409.162.894.057 1.252-.266zm13.129-2.015c.133.223.222.48.255.758l.832 6.993a2.17 2.17 0 0 1-.065.829 1.84 1.84 0 0 1 .869.115l5.512 2.173c.217.085.409.211.571.369.117-.222.271-.427.456-.605l4.716-4.512c.237-.227.51-.394.797-.495a1.909 1.909 0 0 1-.255-.757l-.832-6.993a2.162 2.162 0 0 1 .066-.831 1.837 1.837 0 0 1-.869-.114l-5.512-2.173a1.73 1.73 0 0 1-.572-.37c-.117.222-.27.427-.455.604l-4.716 4.513a2.244 2.244 0 0 1-.798.496zm.294 9.735c.357-.323.842-.426 1.251-.265l5.512 2.173c.366.144.617.48.666.892l.832 6.992c.049.412-.111.842-.424 1.142l-4.716 4.512c-.359.345-.86.459-1.28.293l-5.512-2.173a1.074 1.074 0 0 1-.666-.892l-.833-6.992a1.378 1.378 0 0 1 .424-1.142l.078-.074.038-.036 4.63-4.43zm-6.743 4.927l.115.045c.366.144.617.48.666.892l.832 6.992c.049.412-.111.842-.424 1.141l-4.716 4.513c-.359.344-.86.459-1.28.293l-5.512-2.173a1.074 1.074 0 0 1-.666-.892l-.833-6.992a1.378 1.378 0 0 1 .424-1.142l4.716-4.512c.355-.34.848-.456 1.265-.299l5.392 2.126a.18.18 0 0 1 .021.008zm4.121-41.417a2.244 2.244 0 0 1-.798.496c.134.224.223.482.256.76l.832 6.993c.033.276.009.559-.065.829.295-.031.593.005.869.114l5.512 2.174c.217.085.41.211.572.369.117-.221.27-.426.456-.604l4.715-4.513c.237-.226.51-.393.797-.495a1.918 1.918 0 0 1-.254-.757l-.833-6.993a2.154 2.154 0 0 1 .067-.833 1.825 1.825 0 0 1-.872-.114l-5.512-2.173a1.72 1.72 0 0 1-.571-.368c-.117.221-.27.425-.455.603l-4.716 4.512zm4.59-13.407l-.005-.039a1.382 1.382 0 0 1 .429-1.102l4.715-4.512c.36-.345.861-.459 1.281-.293l5.512 2.173c.366.144.617.48.666.892l.832 6.992c.049.412-.11.842-.424 1.141l-4.715 4.513c-.36.344-.861.459-1.281.293l-5.512-2.173a1.073 1.073 0 0 1-.661-.853l-.004-.039-.833-6.993zm-6.622-3.659c-.023-.01-.047-.018-.07-.026l-.069-.028a1.072 1.072 0 0 1-.666-.891l-.833-6.993a1.377 1.377 0 0 1 .424-1.141l4.716-4.513c.36-.344.86-.459 1.281-.293l5.511 2.173c.367.145.618.481.667.892l.832 6.993c.049.411-.111.841-.424 1.141l-4.716 4.513c-.344.329-.817.448-1.226.312l-5.427-2.139zm6.24 11.974c.303-.291.463-.703.428-1.102l-.005-.039-.832-6.993-.004-.039a1.073 1.073 0 0 0-.661-.853l-.069-.027-.071-.026-5.427-2.14c-.408-.136-.881-.017-1.226.313l-4.715 4.513a1.373 1.373 0 0 0-.425 1.141l.833 6.992c.049.412.3.748.666.892l5.512 2.173c.42.166.921.052 1.28-.293l4.716-4.512zm-5.248 14.773l-4.63 4.43c-.357.323-.842.426-1.251.265l-5.512-2.173a1.074 1.074 0 0 1-.666-.892l-.832-6.992a1.378 1.378 0 0 1 .424-1.142l4.716-4.512c.359-.345.86-.459 1.28-.293l5.512 2.173c.366.144.617.48.666.892l.833 6.992c.049.412-.111.842-.424 1.142l-.078.074-.028.026-.01.01zm1.788.287c-.409-.162-.894-.058-1.251.265l-4.63 4.43-.038.036-.078.074c-.313.3-.473.73-.424 1.141l.833 6.993c.049.411.3.747.666.892l5.512 2.173c.42.166.92.051 1.28-.293l4.716-4.513c.313-.299.473-.729.424-1.141l-.832-6.992a1.074 1.074 0 0 0-.667-.892l-5.511-2.173zm21.907 7.728l.086.031 5.44 2.145c.406.129.873.009 1.214-.317l4.716-4.512c.313-.3.473-.73.424-1.142l-.833-6.992a1.074 1.074 0 0 0-.666-.892l-5.512-2.173c-.398-.157-.868-.063-1.223.24l-4.653 4.453a2.383 2.383 0 0 1-.074.068l-.046.044a1.383 1.383 0 0 0-.43 1.08l.008.06.833 6.993.006.062c.065.383.309.694.657.831l.053.021zm-6.676 4.947l4.628-4.428.036-.034.081-.077a1.38 1.38 0 0 0 .43-1.079l-.008-.061-.833-6.993-.006-.061a1.068 1.068 0 0 0-.658-.831l-.103-.041-.032-.013-5.401-2.129c-.415-.152-.903-.035-1.256.302l-4.716 4.513c-.313.3-.473.73-.424 1.141l.832 6.993c.049.411.3.747.667.892l5.511 2.173c.41.161.895.057 1.252-.267zm11.875-1.988l.053.021c.366.144.617.48.666.891l.832 6.993c.049.411-.11.841-.424 1.141l-.109.105-.007.006-4.6 4.402-.004.005c-.351.332-.833.447-1.245.3l-5.408-2.133a1.732 1.732 0 0 0-.04-.015l-.095-.037a1.077 1.077 0 0 1-.666-.892l-.833-6.993a1.375 1.375 0 0 1 .425-1.141l.08-.077.037-.034 4.627-4.428c.338-.306.791-.416 1.185-.29l5.44 2.144c.028.012.057.022.086.032zm1.524 9.732c.36-.34.857-.453 1.276-.288l5.511 2.173c.367.144.618.48.667.892l.832 6.992c.049.412-.111.842-.424 1.142l-4.716 4.512c-.36.345-.86.459-1.28.293l-5.512-2.173a1.074 1.074 0 0 1-.666-.892l-.833-6.992a1.375 1.375 0 0 1 .424-1.141l.11-.105.006-.006 4.6-4.402.005-.005zm-6.699 4.91l.095.038c.366.144.617.48.666.892l.833 6.992c.049.412-.111.842-.425 1.142l-4.715 4.512c-.36.344-.86.459-1.281.293l-5.512-2.173a1.074 1.074 0 0 1-.666-.892l-.832-6.992c-.049-.412.11-.842.424-1.142l4.716-4.512c.35-.336.835-.453 1.249-.305l5.407 2.132.041.015zm-8.227-29.179l-.104-.041a1.074 1.074 0 0 1-.666-.892l-.832-6.992c-.049-.412.11-.842.424-1.142l4.716-4.512c.359-.345.86-.459 1.28-.293l5.512 2.173c.366.144.617.48.666.892l.833 6.992c.049.412-.111.842-.425 1.142l-.046.044-.074.068-4.653 4.453c-.347.297-.805.393-1.198.25l-5.401-2.13-.032-.012z" fill="url(#paint13_radial_5066_48376)" fill-opacity=".5"/><circle cx="133.65" cy="234.171" r="1.201" transform="rotate(180 133.65 234.171)" fill="#fff"/><circle cx="5.478" cy="5.478" r="5.478" transform="matrix(-1 0 0 1 119.121 200.879)" fill="url(#paint14_radial_5066_48376)"/><path d="M167.008 143.836c8.679 3.063 20.424 5.669 68.93-52.028-3.975 4.573-16.657 18.883-36.134 29.271-21.328 11.376-38.939 11.638-45.948 9.218 2.22 3.557 7.342 11.488 13.152 13.539z" fill="#000" fill-opacity=".2"/><path d="M201.146 216.358c-2.3-.658-16.202-8.869-22.02-10.005 9.156 10.096 28.678 20.122 39.559 23.932 11.073 3.877 12.871-3.523 4.639-9.012-4.718 1.628-11.232-3.159-15.517-6.43-1.682.612-3.079 2.538-6.661 1.515zM119.122 137.576c6.6 1.565 20.038 3.256 20.975-2.493.937 5.632 5.673 14.081 7.923 17.601-10.267-2.298-29.54-6.953-24.495-7.187 5.046-.235-.833-5.378-4.403-7.921z" fill="#000" fill-opacity=".3"/><path d="M68.45 58.427a1 1 0 0 0-1.619.347L46.753 108.3a.999.999 0 0 0 .21 1.073l51.524 52.9a1 1 0 0 0 1.627-.284l22.877-50.4a1.001 1.001 0 0 0-.219-1.135L68.45 58.427z" fill="url(#paint15_radial_5066_48376)"/><path d="M112.679 132.69c-3.356-3.09-6.801-5.41-10.221-7.093m-34.543 4.427c.913-1.606 2.546-3.169 4.728-4.488m29.815.061c-1.418 3.346-8.77 4.229-12.941 4.275-.469.005-.88.322-.989.778l-1.095 4.563c-.23.958-1.559 1.042-1.907.121l-1.648-4.354a1.028 1.028 0 0 0-.99-.657c-3.96.087-10.58-.741-10.245-4.787m29.815.061c-11.78-5.794-23.267-4.021-29.815-.061M95.644 99.538c-2.512-15.904-25.949-13.5-23.982-1.54.22 1.332.441 2.894.757 4.545m22.73 6.392c-1.894 7.699-8.22 9.82-13.913 7.429-3.37-1.415-5.448-4.045-6.797-7.02M87.093 108.239c-.972 2.573-3.306 3.153-5.184.429" stroke="#FFBD00" stroke-width="1.3" stroke-linecap="round"/><path d="M91.014 92.459c.45 3.269 1.837 10.291 6.627 7.556.696-4.527.236-9.253-3.258-10.281-3.228-4.649-8.71-4.093-13.004-3.6-13.676 1.565-14.563 14.285-8.178 15.037-.36-4.197 1.478-7.888 5.333-9.023 3.382-.997 8.108-.984 12.48.31z" fill="#FFBD00"/><path d="M87.122 97.805c.793-.29 2.122-.314 4.087.616-1.07-2.9-5.251-3.183-5.569-1.945-.11.427-.062.8.053 1.104.199.526.901.419 1.43.225zM78.19 98.356c-.832-.144-2.143.071-3.91 1.338.532-3.044 4.596-4.072 5.13-2.912.184.401.205.777.146 1.097-.102.553-.812.572-1.366.477z" fill="#FFBD00"/><path d="M95.642 99.972c2.034-.303 5.046-.037 5.275 3.57.229 3.606-3.085 5.466-5.187 5.185M71.628 101.008c-3.912-.46-5.734 8.986 2.679 8.349" stroke="#FFBD00" stroke-width="1.3" stroke-linecap="round"/><ellipse cx=".839" cy="1.748" rx=".839" ry="1.748" transform="scale(-1 1) rotate(10.763 -571.49 -425.102)" fill="#FFBD00"/><ellipse cx=".839" cy="1.748" rx=".839" ry="1.748" transform="scale(-1 1) rotate(10.763 -566.465 -365.653)" fill="#FFBD00"/><circle cx="2.675" cy="2.675" r="2.675" transform="matrix(-1 0 0 1 103.291 163.496)" fill="#FFBD00"/></g><path d="M50.954 527.799c90.14 51.042 45.56 120.939 105.707 158.528 60.148 37.589 166.893-84.992 148.848 61.646" stroke="#041429" stroke-width="60" stroke-linecap="round"/><path d="M50.954 527.799c90.14 51.042 45.56 120.939 105.707 158.528 60.148 37.589 166.893-84.992 148.848 61.646" stroke="url(#paint16_linear_5066_48376)" stroke-opacity=".7" stroke-width="60" stroke-linecap="round"/><path d="M50.954 527.799c90.14 51.042 45.56 120.939 105.707 158.528 60.148 37.589 166.893-84.992 148.848 61.646" stroke="url(#paint17_radial_5066_48376)" stroke-opacity=".6" stroke-width="60" stroke-linecap="round"/><circle cx="11.664" cy="11.664" r="11.664" transform="matrix(-1 0 0 1 187.206 516.384)" fill="url(#paint18_radial_5066_48376)"/><path d="M118.539 407.855c-10.684-7.094-16.239-13.913-18.522-20.073m9.637-25.315a27.125 27.125 0 0 0-6.219 5.695m29.706-3.474c-3.812 24.758-20.371 24.406-29.706 3.474m0 0c-3.901 4.916-6.346 11.726-3.418 19.62m0 0c-16.394 7.694-23.377-13.572-17.346-23.094" stroke="url(#paint19_linear_5066_48376)" stroke-opacity=".2" stroke-width="6" stroke-linecap="round"/><path d="M151.539 420.395c0 72.373-253.077 0-76.072 126.191" stroke="#000" stroke-width="60" stroke-linecap="round"/><path d="M151.539 420.395c0 72.373-253.077 0-76.072 126.191" stroke="url(#paint20_radial_5066_48376)" stroke-opacity=".8" stroke-width="60" stroke-linecap="round"/><path d="M217.995 405.421c-1.185 6.013-3.542 11.14-6.574 15.385m-33.336 13.93c4.001 2.245 10.692 1.901 17.507-1.057m15.829-12.873c3.043 5.807 19.997 8.985 25.295 0m-25.295 0c-4.37 6.12-10.143 10.406-15.829 12.873m0 0c-3.997-7.771-9.21-26.634 1.919-39.914" stroke="url(#paint21_linear_5066_48376)" stroke-opacity=".2" stroke-width="6" stroke-linecap="round"/><path fill-rule="evenodd" clip-rule="evenodd" d="M106.691 552.941c-26.288 2.112-45.885 25.135-43.773 51.422.225 2.796.287 5.558.193 8.284-6.669-5.714-13.272-11.101-19.726-16.034C27.928 584.799 9.998 572.942-8.157 566.4c-16.378-5.902-50.758-13.12-76.941 14.362-21.314 22.372-21.685 53.803-19.886 75.009 2.105 24.815 9.286 56 21.189 93.988 7.283 23.243 25.648 35.363 41.27 40.239 14.412 4.499 28.902 4.009 40.34 2.345 23.462-3.412 49.026-13.98 71.932-28.909a214.884 214.884 0 0 0 6.22-4.211c22.063 24.006 39.813 44.907 47.051 53.668 16.796 20.332 99.283 44.269 119.614 27.473 20.332-16.796-29.191-67.964-45.987-88.296-7.595-9.194-29.355-34.962-56.827-64.461 13.357-25.726 21.086-56.149 18.294-90.894-2.112-26.287-25.134-45.884-51.421-43.772zM6.444 689.893a106.746 106.746 0 0 1-7.263 3.369 474.061 474.061 0 0 1-3.104-12.245 462.15 462.15 0 0 1 10.367 8.876z" fill="#000"/><path fill-rule="evenodd" clip-rule="evenodd" d="M106.691 552.941c-26.288 2.112-45.885 25.135-43.773 51.422.225 2.796.287 5.558.193 8.284-6.669-5.714-13.272-11.101-19.726-16.034C27.928 584.799 9.998 572.942-8.157 566.4c-16.378-5.902-50.758-13.12-76.941 14.362-21.314 22.372-21.685 53.803-19.886 75.009 2.105 24.815 9.286 56 21.189 93.988 7.283 23.243 25.648 35.363 41.27 40.239 14.412 4.499 28.902 4.009 40.34 2.345 23.462-3.412 49.026-13.98 71.932-28.909a214.884 214.884 0 0 0 6.22-4.211c22.063 24.006 39.813 44.907 47.051 53.668 16.796 20.332 99.283 44.269 119.614 27.473 20.332-16.796-29.191-67.964-45.987-88.296-7.595-9.194-29.355-34.962-56.827-64.461 13.357-25.726 21.086-56.149 18.294-90.894-2.112-26.287-25.134-45.884-51.421-43.772zM6.444 689.893a106.746 106.746 0 0 1-7.263 3.369 474.061 474.061 0 0 1-3.104-12.245 462.15 462.15 0 0 1 10.367 8.876z" fill="url(#paint22_linear_5066_48376)" fill-opacity=".8"/><path fill-rule="evenodd" clip-rule="evenodd" d="M106.691 552.941c-26.288 2.112-45.885 25.135-43.773 51.422.225 2.796.287 5.558.193 8.284-6.669-5.714-13.272-11.101-19.726-16.034C27.928 584.799 9.998 572.942-8.157 566.4c-16.378-5.902-50.758-13.12-76.941 14.362-21.314 22.372-21.685 53.803-19.886 75.009 2.105 24.815 9.286 56 21.189 93.988 7.283 23.243 25.648 35.363 41.27 40.239 14.412 4.499 28.902 4.009 40.34 2.345 23.462-3.412 49.026-13.98 71.932-28.909a214.884 214.884 0 0 0 6.22-4.211c22.063 24.006 39.813 44.907 47.051 53.668 16.796 20.332 99.283 44.269 119.614 27.473 20.332-16.796-29.191-67.964-45.987-88.296-7.595-9.194-29.355-34.962-56.827-64.461 13.357-25.726 21.086-56.149 18.294-90.894-2.112-26.287-25.134-45.884-51.421-43.772zM6.444 689.893a106.746 106.746 0 0 1-7.263 3.369 474.061 474.061 0 0 1-3.104-12.245 462.15 462.15 0 0 1 10.367 8.876z" fill="url(#paint23_radial_5066_48376)" fill-opacity=".4"/><path d="M243.643 448.622c-3.362 5.665-6.929 10.477-10.625 14.532m-69.138 7.865c5.592 5.214 14.347 9.517 24.479 10.672m30.396-6.728c-4.974-7.448-12.36-25.537-2.115-38.302m2.115 38.302c4.856-2.884 9.66-6.759 14.263-11.809m-14.263 11.809c-10.368 6.158-20.977 7.803-30.396 6.728m76.776-26.555c-9.238 14.696-26.519 12.623-32.117 8.018m-44.659 18.537c32.192 36.051 75.262 6.897 87.23-16.119" stroke="url(#paint24_linear_5066_48376)" stroke-opacity=".6" stroke-width="6" stroke-linecap="round"/><path d="M168.397 549.369c.446 7.59-.223 13.973-1.707 19.234m-45.359 6.15c8.609 14.461 27.081 18.386 38.193 6.958m0 0c-6.607-3.361-13.711-11.874-17.342-22.216m17.342 22.216c3.073-3.161 5.584-7.496 7.166-13.108m-25.791-31.926c-2.067 7.751-1.21 15.716 1.283 22.818m0 0c-9.771-2.318-27.622-10.126-20.851-22.818m45.359 31.926c6.739 4.57 21.91 9.147 28.679-9.108" stroke="url(#paint25_linear_5066_48376)" stroke-opacity=".8" stroke-width="6" stroke-linecap="round"/><path d="M128.984 456.102c-13.917-2.101-14.252-13.345-10.259-24.78m10.259-19.417A90.57 90.57 0 0 0 123 421.67m-4.275 9.652c-8.645 6.71-21.806 10.396-30.901 2.555-2.183-1.881-3.372-4.607-3.819-7.851m34.72 5.296c1.143-3.271 2.64-6.559 4.275-9.652m-24.48-38.982c-3.095 4.398-7.51 12.616-10.696 21.336m67.615 14.573c-14.363 14.975-27.611 8.288-32.439 3.073m-35.176-17.646c-17.955-9.493-16.427-18.662-14.135-25.156m14.135 25.156c-2.816 7.704-4.674 15.8-3.819 22.002m0 0c-27.125 7.851-47.371-17.743-37.057-35.315" stroke="url(#paint26_linear_5066_48376)" stroke-opacity=".6" stroke-width="6" stroke-linecap="round"/><path d="M85.382 521.29c-3.572 8.867 24.735 28.625 63.225 44.132 38.491 15.507 72.59 20.89 76.162 12.024 3.572-8.867-20.103-40.123-58.594-55.63-38.49-15.507-77.221-9.393-80.793-.526z" fill="url(#paint27_radial_5066_48376)" fill-opacity=".7"/><path d="M317.394 479.148c.333-8.976-.202-15.784-3.182-23.078-3.286-8.043-12.797-10.753-21.266-8.814-13.931 3.188-26.965 4.276-32.541.947 0 0 .214 11.466 1.366 24.792 1.153 13.325 2.186 29.945 2.186 29.945 7.537 3.189 23.167.27 41.977-7.345 6.724-2.722 11.192-9.198 11.46-16.447z" fill="#000" fill-opacity=".3"/><circle cx="9.332" cy="9.332" r="9.332" transform="matrix(-1 0 0 1 16.624 485.848)" fill="url(#paint28_radial_5066_48376)"/><circle cx="16.902" cy="16.902" r="16.902" transform="matrix(-1 0 0 1 7.961 446.466)" fill="url(#paint29_radial_5066_48376)"/><path d="M102.936 503.962c27.819-4.014 52.999-12.884 66.693-24.384-40.151 22.412-75.258-15.478-116.648-11.557 8.867 5.054 49.955 35.941 49.955 35.941z" fill="url(#paint30_radial_5066_48376)"/><path d="M77.833 762.429C-21.63 640.95-61.825 660.808-63.26 676.12M140.004 687.52c-35.566-45.596-69.271-68.928-81.47-80.308M108.02 508.425c-24.146-20.694-55.063-40.522-55.063-40.522" stroke="#000" stroke-width="1.3" stroke-linecap="round"/><circle cx="13.762" cy="13.762" r="13.762" transform="matrix(-1 0 0 1 248.895 347.043)" fill="url(#paint31_radial_5066_48376)"/><circle cx="27.278" cy="27.278" r="27.278" transform="matrix(-1 0 0 1 226.675 256.255)" fill="url(#paint32_radial_5066_48376)"/><circle cx="2.165" cy="2.165" r="2.165" transform="matrix(-1 0 0 1 183.248 305.998)" fill="#51CCFF"/><circle cx="5.876" cy="5.876" r="5.876" transform="matrix(-1 0 0 1 241.013 354.927)" fill="#51CCFF"/><circle cx="3.599" cy="3.599" r="3.599" transform="matrix(-1 0 0 1 246.016 383.362)" fill="url(#paint33_radial_5066_48376)"/><circle cx="8.192" cy="8.192" r="8.192" transform="matrix(-1 0 0 1 174.797 286.251)" fill="url(#paint34_radial_5066_48376)"/><circle cx="6.586" cy="6.586" r="6.586" transform="matrix(-1 0 0 1 251.984 316.864)" fill="url(#paint35_radial_5066_48376)"/><circle cx="6.586" cy="6.586" r="6.586" transform="matrix(-1 0 0 1 227.214 375.973)" fill="url(#paint36_radial_5066_48376)"/><circle cx="6.586" cy="6.586" r="6.586" transform="matrix(-1 0 0 1 176.783 321.243)" fill="url(#paint37_radial_5066_48376)"/><circle cx="6.586" cy="6.586" r="6.586" transform="matrix(-1 0 0 1 210.241 527.799)" fill="url(#paint38_radial_5066_48376)"/><circle cx="2.424" cy="2.424" r="2.424" transform="matrix(-1 0 0 1 197.794 507.202)" fill="url(#paint39_radial_5066_48376)"/><circle cx="15.391" cy="15.391" r="15.391" transform="matrix(-1 0 0 1 219.417 325.321)" fill="url(#paint40_radial_5066_48376)"/><circle cx="12.647" cy="12.647" r="12.647" transform="matrix(-1 0 0 1 186.68 345.264)" fill="url(#paint41_radial_5066_48376)"/><circle cx="11.938" cy="11.938" r="11.938" transform="matrix(-1 0 0 1 211.338 271.595)" fill="#51CCFF"/><circle cx="242.337" cy="386.962" r=".833" transform="rotate(180 242.337 386.962)" fill="#51CCFF"/><circle cx="166.415" cy="294.443" r="1.895" transform="rotate(180 166.415 294.443)" fill="#51CCFF"/><circle cx="207.438" cy="359.97" r=".833" transform="rotate(180 207.438 359.97)" fill="#51CCFF"/><circle cx="228.049" cy="350.474" r=".833" transform="rotate(180 228.049 350.474)" fill="#51CCFF"/><circle cx="209.408" cy="322.615" r=".833" transform="rotate(180 209.408 322.615)" fill="#51CCFF"/><circle cx="212.299" cy="334.417" r="1.746" transform="rotate(180 212.299 334.417)" fill="#51CCFF" fill-opacity=".5"/><path opacity=".8" d="M-48.423 341.098c-10.868 26.976 67.36 83.911 174.73 127.167 107.368 43.256 203.218 56.454 214.086 29.477 10.869-26.976-53.267-118.893-160.636-162.149s-217.312-21.472-228.18 5.505z" fill="url(#paint42_radial_5066_48376)"/><circle cx="4.551" cy="4.551" r="4.551" transform="matrix(-1 0 0 1 208.577 336.163)" fill="#167DFF"/><path opacity=".8" d="M330.737 506.567c-14.817-38.932-34.138-61.46-38.014-65.336l-79.746-10.182c-38.236-26.599-133.993-83.181-240.39-104.238" stroke="#51CCFF" stroke-opacity=".4" stroke-width=".5" stroke-linecap="round"/><path opacity=".8" d="M293.026 441.612c-17.404-19.577-36.217-36.635-55.86-51.408M41.533 311.837c62.151 7.184 130.596 29.456 195.633 78.367m0 0c-.041-6.183-1.033-20.275-4.676-27.178" stroke="#51CCFF" stroke-opacity=".4" stroke-width=".5" stroke-linecap="round"/><path d="M75.02 759.703c-57.49-67.735-91.733-98.055-129.103-94.816-27.548 15.762-52.005 104.46 10.328 124.887 46.224 15.148 97.753-15.858 118.775-30.071z" fill="url(#paint43_radial_5066_48376)"/><path d="M60.913 603.566c-.759-4.437-5.78-11.523-9.232-15.649 10.359-3.719 65.919 21.897 78.439 86.799-26.448-31.046-56.339-55.061-68.08-63.805.633.158-.673-4.698-1.127-7.345z" fill="url(#paint44_linear_5066_48376)" fill-opacity=".6"/><circle cx="2.165" cy="2.165" r="2.165" transform="matrix(-1 0 0 1 9.453 492.596)" fill="#86DBFF"/><circle cx="10.288" cy="447.298" r=".833" transform="rotate(180 10.288 447.298)" fill="#51CCFF"/><circle cx="14.729" cy="475.337" r="1.895" transform="rotate(180 14.729 475.337)" fill="#51CCFF"/></g></g><defs><filter id="filter0_d_5066_48376" x="-245.156" y="-79" width="803.156" height="1035.03" filterUnits="userSpaceOnUse" color-interpolation-filters="sRGB"><feFlood flood-opacity="0" result="BackgroundImageFix"/><feColorMatrix in="SourceAlpha" values="0 0 0 0 0 0 0 0 0 0 0 0 0 0 0 0 0 0 127 0" result="hardAlpha"/><feOffset dy="60"/><feGaussianBlur stdDeviation="25"/><feComposite in2="hardAlpha" operator="out"/><feColorMatrix values="0 0 0 0 0 0 0 0 0 0 0 0 0 0 0 0 0 0 0.15 0"/><feBlend in2="BackgroundImageFix" result="effect1_dropShadow_5066_48376"/><feBlend in="SourceGraphic" in2="effect1_dropShadow_5066_48376" result="shape"/></filter><linearGradient id="paint0_linear_5066_48376" x1="409.284" y1="862.279" x2="159.485" y2="-120.665" gradientUnits="userSpaceOnUse"><stop stop-color="#828A97"/><stop offset=".79" stop-color="#2C333C"/></linearGradient><radialGradient id="paint1_radial_5066_48376" cx="0" cy="0" r="1" gradientUnits="userSpaceOnUse" gradientTransform="rotate(105.747 128.05 424.368) scale(411.042 318.793)"><stop offset=".291" stop-opacity=".92"/><stop offset="1" stop-color="#2C333C" stop-opacity="0"/></radialGradient><radialGradient id="paint2_radial_5066_48376" cx="0" cy="0" r="1" gradientUnits="userSpaceOnUse" gradientTransform="rotate(32.05 63.195 494.468) scale(243.116 166.341)"><stop offset=".253"/><stop offset="1" stop-opacity="0"/></radialGradient><radialGradient id="paint3_radial_5066_48376" cx="0" cy="0" r="1" gradientUnits="userSpaceOnUse" gradientTransform="rotate(-53.13 384.41 -110.887) scale(122.755 85.6028)"><stop stop-color="#fff"/><stop offset="1" stop-opacity="0"/></radialGradient><radialGradient id="paint4_radial_5066_48376" cx="0" cy="0" r="1" gradientUnits="userSpaceOnUse" gradientTransform="rotate(-60.072 378.327 -152.066) scale(151.956 84.3345)"><stop offset=".178"/><stop offset=".657" stop-opacity="0"/></radialGradient><radialGradient id="paint5_radial_5066_48376" cx="0" cy="0" r="1" gradientUnits="userSpaceOnUse" gradientTransform="rotate(77.586 -46.922 144.6) scale(24.0103 27.6933)"><stop stop-color="#FFBD00"/><stop offset="1" stop-color="#FFBD00" stop-opacity="0"/></radialGradient><radialGradient id="paint6_radial_5066_48376" cx="0" cy="0" r="1" gradientUnits="userSpaceOnUse" gradientTransform="rotate(-70.243 288.272 120.211) scale(420.906 586.003)"><stop stop-color="#EFF1F4"/><stop offset=".744" stop-color="#2C333C"/></radialGradient><linearGradient id="paint7_linear_5066_48376" x1="195.26" y1="-89.679" x2="173.657" y2="135.882" gradientUnits="userSpaceOnUse"><stop offset=".017" stop-color="#FD7823"/><stop offset=".328" stop-color="#FFBD00"/><stop offset=".591" stop-color="#FFBD00" stop-opacity=".37"/><stop offset=".825" stop-color="#FFBD00" stop-opacity=".62"/></linearGradient><radialGradient id="paint8_radial_5066_48376" cx="0" cy="0" r="1" gradientUnits="userSpaceOnUse" gradientTransform="rotate(162.501 99.994 15.37) scale(64.8298 306.548)"><stop offset=".121" stop-color="#FD7823"/><stop offset=".771" stop-color="#FFBD00" stop-opacity=".26"/></radialGradient><linearGradient id="paint9_linear_5066_48376" x1="347.957" y1="72.802" x2="305.745" y2="512.832" gradientUnits="userSpaceOnUse"><stop offset=".159" stop-color="#2C333C" stop-opacity="0"/><stop offset=".241" stop-color="#2C333C"/><stop offset=".544" stop-color="#2D333D"/><stop offset="1" stop-color="#BEC1C7"/></linearGradient><radialGradient id="paint10_radial_5066_48376" cx="0" cy="0" r="1" gradientUnits="userSpaceOnUse" gradientTransform="rotate(93.847 4.458 314.826) scale(42.1603 31.8174)"><stop stop-color="#fff"/><stop offset="1" stop-color="#fff" stop-opacity="0"/></radialGradient><radialGradient id="paint11_radial_5066_48376" cx="0" cy="0" r="1" gradientUnits="userSpaceOnUse" gradientTransform="rotate(-168.057 42.066 92.764) scale(36.2055 27.3235)"><stop stop-color="#fff"/><stop offset="1" stop-color="#fff" stop-opacity="0"/></radialGradient><radialGradient id="paint12_radial_5066_48376" cx="0" cy="0" r="1" gradientUnits="userSpaceOnUse" gradientTransform="rotate(90 0 6.754) scale(6.75351)"><stop stop-color="#fff"/><stop offset="1" stop-opacity="0"/></radialGradient><radialGradient id="paint13_radial_5066_48376" cx="0" cy="0" r="1" gradientUnits="userSpaceOnUse" gradientTransform="matrix(15.26328 39.30042 -29.65912 11.51884 307.475 584.304)"><stop stop-color="#fff"/><stop offset="1" stop-color="#fff" stop-opacity="0"/></radialGradient><radialGradient id="paint14_radial_5066_48376" cx="0" cy="0" r="1" gradientUnits="userSpaceOnUse" gradientTransform="rotate(90 0 5.478) scale(5.47788)"><stop stop-color="#fff"/><stop offset="1" stop-color="#fff" stop-opacity="0"/></radialGradient><radialGradient id="paint15_radial_5066_48376" cx="0" cy="0" r="1" gradientUnits="userSpaceOnUse" gradientTransform="rotate(56.055 -64.877 135.302) scale(65.0319 69.8832)"><stop stop-color="#FFBD00" stop-opacity="0"/><stop offset="1" stop-color="#FFBD00"/></radialGradient><linearGradient id="paint16_linear_5066_48376" x1="59.431" y1="606.239" x2="204.738" y2="992.581" gradientUnits="userSpaceOnUse"><stop offset=".22" stop-color="#358AB4"/><stop offset=".511" stop-color="#041428"/></linearGradient><radialGradient id="paint17_radial_5066_48376" cx="0" cy="0" r="1" gradientUnits="userSpaceOnUse" gradientTransform="rotate(18.963 -2054.305 671.484) scale(135.343 98.0761)"><stop stop-color="#072245"/><stop offset="1" stop-opacity="0"/></radialGradient><radialGradient id="paint18_radial_5066_48376" cx="0" cy="0" r="1" gradientUnits="userSpaceOnUse" gradientTransform="rotate(90 0 11.664) scale(11.664)"><stop stop-color="#167DFF"/><stop offset="1" stop-color="#167DFF" stop-opacity="0"/></radialGradient><linearGradient id="paint19_linear_5066_48376" x1="105.998" y1="392.584" x2="101.649" y2="395.109" gradientUnits="userSpaceOnUse"><stop stop-color="#51CCFF"/><stop offset="1" stop-color="#1F5677"/></linearGradient><radialGradient id="paint20_radial_5066_48376" cx="0" cy="0" r="1" gradientUnits="userSpaceOnUse" gradientTransform="matrix(-85.03468 59.38282 -191.29526 -273.92995 193.233 459.345)"><stop stop-color="#113552"/><stop offset="1" stop-color="#368DB7"/></radialGradient><linearGradient id="paint21_linear_5066_48376" x1="206.468" y1="421.919" x2="202.088" y2="424.951" gradientUnits="userSpaceOnUse"><stop stop-color="#51CCFF"/><stop offset="1" stop-color="#1F5677"/></linearGradient><linearGradient id="paint22_linear_5066_48376" x1="148.209" y1="699.409" x2="170.599" y2="887.386" gradientUnits="userSpaceOnUse"><stop stop-color="#358AB4"/><stop offset=".583" stop-color="#041428"/></linearGradient><radialGradient id="paint23_radial_5066_48376" cx="0" cy="0" r="1" gradientUnits="userSpaceOnUse" gradientTransform="rotate(20.573 -2007.45 108.39) scale(284.616 340.599)"><stop stop-color="#0A64D6"/><stop offset=".797" stop-color="#368BB5" stop-opacity="0"/></radialGradient><linearGradient id="paint24_linear_5066_48376" x1="224.793" y1="445.722" x2="197.731" y2="480.031" gradientUnits="userSpaceOnUse"><stop stop-color="#51CCFF"/><stop offset="1" stop-color="#1F5677"/></linearGradient><linearGradient id="paint25_linear_5066_48376" x1="125.001" y1="518.268" x2="106.384" y2="524.876" gradientUnits="userSpaceOnUse"><stop stop-color="#51CCFF" stop-opacity=".64"/><stop offset=".855" stop-color="#368BB5"/></linearGradient><linearGradient id="paint26_linear_5066_48376" x1="123.315" y1="418.365" x2="112.366" y2="427.187" gradientUnits="userSpaceOnUse"><stop stop-color="#51CCFF"/><stop offset="1" stop-color="#1F5677"/></linearGradient><radialGradient id="paint27_radial_5066_48376" cx="0" cy="0" r="1" gradientUnits="userSpaceOnUse" gradientTransform="matrix(-17.3008 36.85285 -158.27742 -74.30432 167.155 526.075)"><stop stop-opacity="0"/><stop offset="1" stop-color="#51CCFF"/></radialGradient><radialGradient id="paint28_radial_5066_48376" cx="0" cy="0" r="1" gradientUnits="userSpaceOnUse" gradientTransform="rotate(90 0 9.332) scale(9.33153)"><stop stop-color="#51CCFF"/><stop offset="1" stop-color="#51CCFF" stop-opacity="0"/></radialGradient><radialGradient id="paint29_radial_5066_48376" cx="0" cy="0" r="1" gradientUnits="userSpaceOnUse" gradientTransform="rotate(90 0 16.902) scale(16.9025)"><stop stop-color="#51CCFF"/><stop offset="1" stop-color="#51CCFF" stop-opacity="0"/></radialGradient><radialGradient id="paint30_radial_5066_48376" cx="0" cy="0" r="1" gradientUnits="userSpaceOnUse" gradientTransform="matrix(80.5419 28.51727 -4.62433 13.0606 106.309 495.864)"><stop stop-color="#0F2A46"/><stop offset="1" stop-color="#0F2A46" stop-opacity="0"/></radialGradient><radialGradient id="paint31_radial_5066_48376" cx="0" cy="0" r="1" gradientUnits="userSpaceOnUse" gradientTransform="rotate(90 0 13.762) scale(13.7622)"><stop stop-color="#51CCFF"/><stop offset="1" stop-color="#167DFF" stop-opacity="0"/></radialGradient><radialGradient id="paint32_radial_5066_48376" cx="0" cy="0" r="1" gradientUnits="userSpaceOnUse" gradientTransform="rotate(90 0 27.278) scale(27.2781)"><stop stop-color="#51CCFF"/><stop offset="1" stop-color="#51CCFF" stop-opacity="0"/></radialGradient><radialGradient id="paint33_radial_5066_48376" cx="0" cy="0" r="1" gradientUnits="userSpaceOnUse" gradientTransform="rotate(90 0 3.6) scale(3.59928)"><stop stop-color="#167DFF"/><stop offset="1" stop-color="#167DFF" stop-opacity="0"/></radialGradient><radialGradient id="paint34_radial_5066_48376" cx="0" cy="0" r="1" gradientUnits="userSpaceOnUse" gradientTransform="rotate(90 0 8.192) scale(8.19227)"><stop stop-color="#167DFF"/><stop offset="1" stop-color="#167DFF" stop-opacity="0"/></radialGradient><radialGradient id="paint35_radial_5066_48376" cx="0" cy="0" r="1" gradientUnits="userSpaceOnUse" gradientTransform="rotate(90 0 6.586) scale(6.58588)"><stop stop-color="#167DFF"/><stop offset="1" stop-color="#167DFF" stop-opacity="0"/></radialGradient><radialGradient id="paint36_radial_5066_48376" cx="0" cy="0" r="1" gradientUnits="userSpaceOnUse" gradientTransform="rotate(90 0 6.586) scale(6.58588)"><stop stop-color="#17E6E8"/><stop offset="1" stop-color="#167DFF" stop-opacity="0"/></radialGradient><radialGradient id="paint37_radial_5066_48376" cx="0" cy="0" r="1" gradientUnits="userSpaceOnUse" gradientTransform="rotate(90 0 6.586) scale(6.58588)"><stop stop-color="#17E6E8"/><stop offset="1" stop-color="#167DFF" stop-opacity="0"/></radialGradient><radialGradient id="paint38_radial_5066_48376" cx="0" cy="0" r="1" gradientUnits="userSpaceOnUse" gradientTransform="rotate(90 0 6.586) scale(6.58588)"><stop stop-color="#167DFF"/><stop offset="1" stop-color="#167DFF" stop-opacity="0"/></radialGradient><radialGradient id="paint39_radial_5066_48376" cx="0" cy="0" r="1" gradientUnits="userSpaceOnUse" gradientTransform="rotate(90 0 2.424) scale(2.42407)"><stop stop-color="#167DFF"/><stop offset="1" stop-color="#167DFF" stop-opacity="0"/></radialGradient><radialGradient id="paint40_radial_5066_48376" cx="0" cy="0" r="1" gradientUnits="userSpaceOnUse" gradientTransform="rotate(90 0 15.391) scale(15.3912)"><stop stop-color="#167DFF"/><stop offset="1" stop-color="#167DFF" stop-opacity="0"/></radialGradient><radialGradient id="paint41_radial_5066_48376" cx="0" cy="0" r="1" gradientUnits="userSpaceOnUse" gradientTransform="rotate(90 0 12.647) scale(12.6468)"><stop stop-color="#167DFF"/><stop offset="1" stop-color="#167DFF" stop-opacity="0"/></radialGradient><radialGradient id="paint42_radial_5066_48376" cx="0" cy="0" r="1" gradientUnits="userSpaceOnUse" gradientTransform="matrix(-39.07315 69.40597 -274.16842 -154.3473 165.379 398.859)"><stop offset=".24" stop-color="#51CCFF" stop-opacity="0"/><stop offset="1" stop-color="#51CCFF"/></radialGradient><radialGradient id="paint43_radial_5066_48376" cx="0" cy="0" r="1" gradientUnits="userSpaceOnUse" gradientTransform="matrix(-224.61134 -104.23729 115.95883 -249.869 61.61 739.236)"><stop offset=".302" stop-color="#0C0C0D" stop-opacity=".54"/><stop offset=".893" stop-color="#167DFF" stop-opacity="0"/></radialGradient><linearGradient id="paint44_linear_5066_48376" x1="60.818" y1="631.141" x2="93.997" y2="605.591" gradientUnits="userSpaceOnUse"><stop stop-color="#092036"/><stop offset=".89" stop-color="#092036" stop-opacity="0"/></linearGradient><clipPath id="clip0_5066_48376"><path fill="#fff" transform="translate(0 .232)" d="M0 0h316v766.116H0z"/></clipPath></defs></svg>